<?xml version="1.0" encoding="UTF-8" standalone="no"?>
<!DOCTYPE svg PUBLIC "-//W3C//DTD SVG 1.1//EN" "http://www.w3.org/Graphics/SVG/1.1/DTD/svg11.dtd">
<svg width="100%" height="100%" viewBox="0 0 512 512" version="1.1" xmlns="http://www.w3.org/2000/svg" xmlns:xlink="http://www.w3.org/1999/xlink" xml:space="preserve" xmlns:serif="http://www.serif.com/" style="fill-rule:evenodd;clip-rule:evenodd;stroke-linecap:round;stroke-linejoin:round;stroke-miterlimit:1.5;">
    <g id="Package-Icons" serif:id="Package Icons" transform="matrix(1,0,0,1,0,2.34131)">
        <g id="Box" transform="matrix(1,0,0,1,2.11992,-2.81953)">
            <path d="M247.92,325.256L247.92,507.977L77.646,441.384L79.377,343.053L194.818,396.442L247.92,325.256ZM259.841,325.256L259.841,507.977L430.114,441.384L428.383,343.053L312.942,396.442L259.841,325.256ZM241.433,306.804L190.845,378.165L20.341,296.235L74.245,230.259L241.433,306.804ZM266.327,306.804L316.916,378.165L487.419,296.235L433.515,230.259L266.327,306.804Z" style="fill:rgb(199,161,114);fill-rule:nonzero;"/>
        </g>
        <g id="Icons" transform="matrix(1.03628,0,0,1.03628,-11.359,-19.0013)">
            <path d="M82.654,223.645L243.988,297.51L268.012,297.51L429.346,223.645L526.106,223.645L526.106,-10.237L-10.014,-10.237L-10.014,223.645L82.654,223.645Z" style="fill:none;"/>
            <clipPath id="_clip1">
                <path d="M82.654,223.645L243.988,297.51L268.012,297.51L429.346,223.645L526.106,223.645L526.106,-10.237L-10.014,-10.237L-10.014,223.645L82.654,223.645Z"/>
            </clipPath>
            <g clip-path="url(#_clip1)">
                <g id="AutoInject">
                    <g id="Egg" transform="matrix(0.794693,0,0,0.846289,42.5265,3.64856)">
                        <path d="M273.221,78.698C334.774,78.698 415.289,149.646 415.289,261.18C415.289,324.421 369.54,395.369 273.221,395.369C176.902,395.369 131.154,324.421 131.154,261.18C131.154,149.646 211.668,78.698 273.221,78.698Z" style="fill:white;"/>
                        <clipPath id="_clip2">
                            <path d="M273.221,78.698C334.774,78.698 415.289,149.646 415.289,261.18C415.289,324.421 369.54,395.369 273.221,395.369C176.902,395.369 131.154,324.421 131.154,261.18C131.154,149.646 211.668,78.698 273.221,78.698Z"/>
                        </clipPath>
                        <g clip-path="url(#_clip2)">
                            <g transform="matrix(1.06493,0,0,1,0.548465,42.1946)">
                                <path d="M353.999,59.922C353.999,59.922 418.584,221.565 325.065,291.644C268.733,333.856 169.911,345.949 58.834,325.698C40.473,322.35 163.318,449.069 163.318,449.069L489.539,374.854L406.824,59.922L353.999,59.922Z" style="fill:rgb(226,226,226);"/>
                            </g>
                            <g transform="matrix(0.916569,-0.376826,0.221244,1.09722,58.3025,114.365)">
                                <g transform="matrix(1,0.105238,5.55112e-17,1,-21.2492,9.13364)">
                                    <ellipse cx="256.277" cy="133.986" rx="9.806" ry="15.563" style="fill:rgb(91,91,91);"/>
                                </g>
                                <g transform="matrix(1,0.105238,5.55112e-17,1,29.3758,14.4613)">
                                    <ellipse cx="256.277" cy="133.986" rx="9.806" ry="15.563" style="fill:rgb(91,91,91);"/>
                                </g>
                                <g transform="matrix(1,0,0,1,8.13972,7.43344)">
                                    <path d="M211.88,229.781C211.88,229.781 225.837,218.068 235.643,220.286C245.449,222.504 247.216,234.533 265.309,234.533C272.801,234.533 281.313,229.781 287.269,220.286" style="fill:none;stroke:rgb(120,120,120);stroke-width:6px;"/>
                                </g>
                            </g>
                        </g>
                        <path d="M273.221,71.857C247.06,71.857 217.566,83.689 191.722,105.747C153.996,137.948 123.868,191.98 123.868,261.18C123.868,327.655 171.977,402.21 273.221,402.21C374.466,402.21 422.574,327.655 422.574,261.18C422.574,191.98 392.447,137.948 354.72,105.747C328.876,83.689 299.382,71.857 273.221,71.857ZM273.221,78.698C334.774,78.698 415.289,149.646 415.289,261.18C415.289,324.421 369.54,395.369 273.221,395.369C176.902,395.369 131.154,324.421 131.154,261.18C131.154,149.646 211.668,78.698 273.221,78.698Z" style="fill:rgb(165,165,165);"/>
                    </g>
                    <g id="Syringe" transform="matrix(-0.541976,-0.541976,0.541976,-0.541976,138.745,383.508)">
                        <path d="M314.469,215.602L302.91,215.602C300.043,215.602 296.567,215.602 296.567,221.134C296.567,226.665 300.043,226.665 302.91,226.665L314.469,226.665L314.469,260.559C314.469,263.426 314.469,266.902 320,266.902C325.531,266.902 325.531,263.426 325.531,260.559L325.531,226.665L353.094,226.665L353.094,233.326C353.094,234.212 353.094,235.287 358.625,235.287C364.157,235.287 364.157,234.212 364.157,233.326L364.157,226.665L381.761,226.665C384.628,226.665 388.104,226.665 388.104,221.134C388.104,215.602 384.628,215.602 381.761,215.602L364.157,215.602L364.157,208.941C364.157,208.055 364.157,206.98 358.625,206.98C353.094,206.98 353.094,208.055 353.094,208.941L353.094,215.602L325.531,215.602L325.531,181.708C325.531,178.841 325.531,175.365 320,175.365C314.469,175.365 314.469,178.841 314.469,181.708L314.469,215.602Z" style="fill:rgb(120,120,120);"/>
                        <g transform="matrix(1,0,0,0.619513,37.7253,87.2392)">
                            <path d="M180.627,211.124L91.986,211.124L84.221,221.134L180.627,221.134L180.627,211.124Z" style="fill:rgb(120,120,120);"/>
                        </g>
                        <g transform="matrix(0.893983,0,0,0.893983,33.8709,32.5239)">
                            <path d="M363.267,146.88C348.235,146.88 336.031,159.084 336.031,174.116C336.031,189.148 348.235,201.352 363.267,201.352C378.299,201.352 390.503,189.148 390.503,174.116C390.503,159.084 378.299,146.88 363.267,146.88ZM363.267,154.71C373.977,154.71 382.673,163.405 382.673,174.116C382.673,184.826 373.977,193.522 363.267,193.522C352.557,193.522 343.861,184.826 343.861,174.116C343.861,163.405 352.557,154.71 363.267,154.71Z" style="fill:rgb(120,120,120);"/>
                        </g>
                        <g transform="matrix(0.893983,0,0,0.893983,81.0566,65.4771)">
                            <path d="M363.267,146.88C348.235,146.88 336.031,159.084 336.031,174.116C336.031,189.148 348.235,201.352 363.267,201.352C378.299,201.352 390.503,189.148 390.503,174.116C390.503,159.084 378.299,146.88 363.267,146.88ZM363.267,154.71C373.977,154.71 382.673,163.405 382.673,174.116C382.673,184.826 373.977,193.522 363.267,193.522C352.557,193.522 343.861,184.826 343.861,174.116C343.861,163.405 352.557,154.71 363.267,154.71Z" style="fill:rgb(120,120,120);"/>
                        </g>
                        <g transform="matrix(0.893983,0,0,0.893983,33.8709,98.4303)">
                            <path d="M363.267,146.88C348.235,146.88 336.031,159.084 336.031,174.116C336.031,189.148 348.235,201.352 363.267,201.352C378.299,201.352 390.503,189.148 390.503,174.116C390.503,159.084 378.299,146.88 363.267,146.88ZM363.267,154.71C373.977,154.71 382.673,163.405 382.673,174.116C382.673,184.826 373.977,193.522 363.267,193.522C352.557,193.522 343.861,184.826 343.861,174.116C343.861,163.405 352.557,154.71 363.267,154.71Z" style="fill:rgb(120,120,120);"/>
                        </g>
                        <path d="M321.978,221.134C321.978,202.654 315.988,197.437 311.046,197.437L175.151,197.437C170.209,197.437 164.219,204.684 164.219,221.134C164.219,237.583 170.209,244.831 175.151,244.831L311.046,244.831C315.988,244.831 321.978,239.613 321.978,221.134Z" style="fill:rgb(120,120,120);"/>
                        <path d="M175.442,203.986L299.65,203.986C300.312,203.986 300.749,204.695 301.316,205.663C303.053,208.632 304.032,213.544 304.032,221.134C304.032,228.723 303.053,233.635 301.316,236.604C300.749,237.573 300.312,238.281 299.65,238.281L175.442,238.281C175.195,238.047 174.121,237.001 173.579,236.008C171.836,232.822 170.769,227.909 170.769,221.134C170.769,214.358 171.836,209.445 173.579,206.259C174.121,205.266 175.195,204.22 175.442,203.986Z" style="fill:rgb(225,225,225);"/>
                        <path d="M190.13,218.033C190.13,218.033 189.455,217.448 186.518,217.448C183.58,217.448 182.905,218.033 182.905,218.033C182.905,218.033 181.802,221.134 181.802,227.864C181.802,234.795 182.905,238.281 182.905,238.281L190.13,238.281C190.13,238.281 189.027,234.795 189.027,227.864C189.027,221.134 190.13,218.033 190.13,218.033ZM272.425,218.033C272.425,218.033 271.75,217.448 268.813,217.448C265.875,217.448 265.2,218.033 265.2,218.033C265.2,218.033 264.097,221.134 264.097,227.864C264.097,234.795 265.2,238.281 265.2,238.281L272.425,238.281C272.425,238.281 271.322,234.795 271.322,227.864C271.322,221.134 272.425,218.033 272.425,218.033ZM292.999,218.033C292.999,218.033 292.324,217.448 289.386,217.448C286.449,217.448 285.774,218.033 285.774,218.033C285.774,218.033 284.671,221.134 284.671,227.864C284.671,234.795 285.774,238.281 285.774,238.281L292.999,238.281C292.999,238.281 291.896,234.795 291.896,227.864C291.896,221.134 292.999,218.033 292.999,218.033ZM231.278,218.033C231.278,218.033 230.603,217.448 227.665,217.448C224.728,217.448 224.053,218.033 224.053,218.033C224.053,218.033 222.949,221.134 222.949,227.864C222.949,234.795 224.053,238.281 224.053,238.281L231.278,238.281C231.278,238.281 230.175,234.795 230.175,227.864C230.175,221.134 231.278,218.033 231.278,218.033ZM210.704,218.033C210.704,218.033 210.029,217.448 207.091,217.448C204.154,217.448 203.479,218.033 203.479,218.033C203.479,218.033 202.376,221.134 202.376,227.864C202.376,234.795 203.479,238.281 203.479,238.281L210.704,238.281C210.704,238.281 209.601,234.795 209.601,227.864C209.601,221.134 210.704,218.033 210.704,218.033ZM251.851,218.033C251.851,218.033 251.177,217.448 248.239,217.448C245.301,217.448 244.626,218.033 244.626,218.033C244.626,218.033 243.523,221.134 243.523,227.864C243.523,234.795 244.626,238.281 244.626,238.281L251.851,238.281C251.851,238.281 250.748,234.795 250.748,227.864C250.748,221.134 251.851,218.033 251.851,218.033Z" style="fill:rgb(120,120,120);"/>
                    </g>
                </g>
            </g>
        </g>
        <g id="Overlays">
        </g>
    </g>
</svg>
