<?xml version="1.0" encoding="UTF-8" standalone="no"?>
<!DOCTYPE svg PUBLIC "-//W3C//DTD SVG 1.1//EN" "http://www.w3.org/Graphics/SVG/1.1/DTD/svg11.dtd">
<svg width="100%" height="100%" viewBox="0 0 512 512" version="1.1" xmlns="http://www.w3.org/2000/svg" xmlns:xlink="http://www.w3.org/1999/xlink" xml:space="preserve" xmlns:serif="http://www.serif.com/" style="fill-rule:evenodd;clip-rule:evenodd;stroke-linejoin:round;stroke-miterlimit:2;">
    <g id="Bloc.NET" transform="matrix(2.02957,0,0,2.02957,-263.47,-267.3)">
        <g transform="matrix(0.460619,0,0,0.460619,138.032,139.92)">
            <path d="M38.882,130.31L256.247,5.05L473.346,131.166L473.205,380.6L256,506.583L38.882,380.466L38.882,130.31Z" style="fill:rgb(81,43,212);"/>
            <path d="M30.894,116.447C25.937,119.304 22.882,124.589 22.882,130.31L22.882,380.466C22.882,386.168 25.916,391.438 30.846,394.302L247.964,520.418C252.929,523.302 259.06,523.304 264.028,520.423L481.233,394.44C486.165,391.58 489.202,386.311 489.205,380.609L489.346,131.175C489.35,125.471 486.316,120.196 481.383,117.331L264.284,-8.785C259.332,-11.662 253.221,-11.672 248.259,-8.813L30.894,116.447ZM38.882,130.31L256.247,5.05L473.346,131.166L473.205,380.6L256,506.583L38.882,380.466L38.882,130.31Z"/>
        </g>
        <g transform="matrix(0.501473,-2.00191e-16,2.92809e-16,0.577831,-37.7032,188.856)">
            <path d="M587.259,119.485L386.153,19.187L386.153,218.6L585.566,319.134L587.259,119.485Z" style="fill:rgb(123,221,239);"/>
        </g>
        <g transform="matrix(-0.501473,2.61603e-16,-3.63572e-16,-0.577831,549.71,326.651)">
            <path d="M584.117,119.088L386.153,19.187L386.153,218.6L585.566,319.134L584.117,119.088Z" style="fill:rgb(123,221,239);"/>
        </g>
        <g opacity="0.64">
            <g transform="matrix(0.250737,0.434288,-0.500416,0.288916,268.844,26.7403)">
                <path d="M585.753,119.198L386.761,19.492L387.081,218.034L585.557,319.178L585.753,119.198Z" style="fill:rgb(81,43,212);"/>
            </g>
            <g transform="matrix(0.126142,-0.0694849,0,0.126142,253.003,306.983)">
                <text x="107.377px" y="178.778px" style="font-family:'OpenSansRoman-SemiBold', 'Open Sans';font-size:288px;fill:white;">.NET</text>
            </g>
        </g>
        <g transform="matrix(-0.250737,-0.434288,0.500416,-0.288916,243.163,488.767)">
            <path d="M585.753,119.198L386.761,19.492L385.218,220.249L585.566,319.183L585.753,119.198Z" style="fill:rgb(62,142,237);fill-opacity:0.3;"/>
        </g>
    </g>
</svg>
