<?xml version="1.0" encoding="UTF-8" standalone="no"?>
<!DOCTYPE svg PUBLIC "-//W3C//DTD SVG 1.1//EN" "http://www.w3.org/Graphics/SVG/1.1/DTD/svg11.dtd">
<svg width="100%" height="100%" viewBox="0 0 512 512" version="1.1" xmlns="http://www.w3.org/2000/svg" xmlns:xlink="http://www.w3.org/1999/xlink" xml:space="preserve" xmlns:serif="http://www.serif.com/" style="fill-rule:evenodd;clip-rule:evenodd;stroke-linejoin:round;stroke-miterlimit:2;">
    <g id="network" transform="matrix(0.988198,0,0,0.914521,-37.4736,-8.92865)">
        <path d="M296.979,43.222C160.853,43.222 50.51,153.565 50.51,289.691C50.51,425.817 160.853,536.16 296.979,536.16C433.104,536.16 543.447,425.817 543.447,289.691C543.447,153.565 433.104,43.222 296.979,43.222Z" style="fill:rgb(154,162,255);fill-rule:nonzero;"/>
    </g>
    <g id="network1" serif:id="network" transform="matrix(0.988198,0,0,0.914521,-37.4736,-8.92865)">
        <path d="M296.979,43.222C160.853,43.222 50.51,153.565 50.51,289.691C50.51,425.817 160.853,536.16 296.979,536.16C433.104,536.16 543.447,425.817 543.447,289.691C543.447,153.565 433.104,43.222 296.979,43.222ZM286.385,85.379L286.385,164.191C264.327,163.513 242.051,161.386 219.572,157.847C228.409,135.587 238.988,113.058 251.197,90.254C262.592,87.65 274.354,85.992 286.385,85.379ZM307.572,85.379C319.603,85.992 331.366,87.65 342.76,90.254C355.187,113.472 365.922,136.414 374.854,159.066C352.649,162.369 330.226,164.162 307.572,164.41L307.572,85.379ZM225.416,97.972C215.257,116.919 206.334,135.652 198.697,154.16C183.821,151.25 168.852,147.738 153.791,143.597C174.03,123.758 198.359,108.076 225.416,97.972ZM368.541,97.972C396.006,108.229 420.654,124.238 441.072,144.504C426.088,148.891 410.987,152.565 395.791,155.504C388.033,136.559 378.939,117.377 368.541,97.972ZM138.76,159.972C156.349,165.038 173.886,169.395 191.385,172.941C178.015,209.211 169.65,244.606 166.541,279.097L92.666,279.097C94.966,233.985 111.875,192.729 138.76,159.972ZM456.01,160.972C482.423,193.567 499.014,234.44 501.291,279.097L427.416,279.097C424.36,245.191 416.235,210.41 403.26,174.785C420.903,171.201 438.489,166.614 456.01,160.972ZM212.447,176.847C237.199,180.981 261.833,183.517 286.385,184.347L286.385,279.097L188.947,279.097C192.13,245.764 200.098,211.667 212.447,176.847ZM382.135,178.566C394.136,212.786 401.88,246.317 405.01,279.097L307.572,279.097L307.572,184.629C332.536,184.463 357.397,182.468 382.135,178.566ZM92.666,300.285L165.291,300.285C164.286,336.832 169.339,372.329 180.76,406.722C166.451,409.94 152.176,413.858 137.947,418.441C111.525,385.843 94.944,344.951 92.666,300.285ZM187.604,300.285L286.385,300.285L286.385,394.754C257.75,394.944 229.251,397.531 200.916,402.66C190.658,369.479 186.407,335.324 187.604,300.285ZM307.572,300.285L406.354,300.285C407.572,335.963 403.114,370.721 392.447,404.472C364.023,399.196 335.735,395.988 307.572,395.035L307.572,300.285ZM428.666,300.285L501.291,300.285C498.992,345.382 482.097,386.628 455.229,419.379C440.982,415.27 426.755,411.645 412.572,408.535C424.422,373.576 429.689,337.475 428.666,300.285ZM286.385,414.972L286.385,494.004C270.817,493.21 255.718,490.712 241.26,486.629C241.257,486.628 241.263,486.598 241.26,486.597C227.267,465.572 216.137,444.077 207.697,422.16C233.618,417.677 259.847,415.263 286.385,414.972L286.385,414.972ZM307.572,415.191C333.348,415.983 359.409,418.743 385.76,423.441C377.375,444.929 366.368,465.999 352.635,486.629C338.194,490.702 323.12,493.211 307.572,494.004L307.572,415.191ZM187.885,426.004C194.868,443.176 203.503,460.06 213.791,476.66C190.976,466.492 170.376,452.239 152.885,434.879C164.491,431.485 176.152,428.533 187.885,426.004ZM405.541,427.316C417.023,429.775 428.574,432.627 440.166,435.816C422.875,452.761 402.579,466.671 380.166,476.66C390.192,460.485 398.655,444.035 405.541,427.316Z" style="fill-rule:nonzero;"/>
    </g>
    <g transform="matrix(0.443838,0,0,0.443838,-106.726,-141.677)">
        <path d="M880.564,1316.82L853.173,1334.3C849.793,1336.46 849.117,1339.04 849.115,1339.05C847.926,1343.01 850.179,1347.19 854.144,1348.38C856.346,1349.04 858.616,1348.64 860.402,1347.48L860.397,1347.48C860.397,1347.48 860.751,1347.25 861.249,1346.94L872.578,1339.71L866.746,1353.53C865.959,1355.4 865.84,1356.54 865.839,1356.54C865.427,1360.66 868.437,1364.34 872.556,1364.75C875.927,1365.09 879.003,1363.13 880.233,1360.15L880.569,1359.36L891.045,1334.52L909.733,1356.34C912.426,1359.48 917.164,1359.85 920.308,1357.15C923.451,1354.46 923.817,1349.72 921.123,1346.58L895.861,1317.09L877.647,1217.77C876.9,1213.7 872.989,1211 868.917,1211.74C864.846,1212.49 862.146,1216.4 862.893,1220.47L880.564,1316.82Z" style="fill:rgb(201,110,61);"/>
        <path d="M845.797,1369.33C850.006,1378.93 859.14,1386.05 870.314,1387.17C881.117,1388.25 891.161,1383.45 897.264,1375.37C908.279,1383.76 924.033,1383.63 934.967,1374.27C947.553,1363.48 949.017,1344.51 938.233,1331.92C938.236,1331.92 916.926,1307.04 916.926,1307.04C916.926,1307.04 899.808,1213.7 899.808,1213.7C896.818,1197.4 881.156,1186.59 864.853,1189.58C848.551,1192.57 837.742,1208.23 840.732,1224.54L855.669,1305.98L841.041,1315.31C829.181,1322.89 827.541,1332.55 827.535,1332.57C822.963,1347.81 831.093,1363.86 845.797,1369.33ZM894.409,1372.9L880.233,1382.69C886.755,1382.69 892.817,1379.87 897.004,1375.18L895.86,1374.25C895.485,1373.91 895.111,1373.57 894.737,1373.23L894.409,1372.9ZM870.322,1367.74C867.266,1369.36 863.931,1370.46 860.463,1370.94C860.777,1371.54 861.128,1372.12 861.507,1372.68C865.689,1378.93 872.713,1382.69 880.233,1382.69L870.322,1367.74ZM880.569,1381.89L894.296,1372.79L894.293,1372.78L880.569,1381.89ZM870.954,1367.4L870.941,1367.41L880.569,1381.89L870.954,1367.4ZM851.7,1347.12C852.406,1347.67 853.229,1348.11 854.144,1348.38C856.346,1349.04 858.616,1348.64 860.402,1347.48L860.397,1347.48C860.397,1347.48 860.751,1347.25 861.249,1346.94L872.578,1339.71L866.746,1353.53C865.959,1355.4 865.84,1356.54 865.839,1356.54C865.427,1360.66 868.437,1364.34 872.556,1364.75C875.927,1365.09 879.003,1363.13 880.233,1360.15L880.569,1359.36L891.045,1334.52L909.733,1356.34C912.426,1359.48 917.164,1359.85 920.308,1357.15C923.451,1354.46 923.817,1349.72 921.123,1346.58L895.861,1317.09L877.647,1217.77C876.9,1213.7 872.989,1211 868.917,1211.74C864.846,1212.49 862.146,1216.4 862.893,1220.47L880.564,1316.82L853.173,1334.3C849.793,1336.46 849.117,1339.04 849.115,1339.05C848.934,1339.65 848.832,1340.26 848.814,1340.87L848.175,1339.59L850.135,1334.94L848.252,1328.51L848.07,1328.62C845.843,1330.08 843.942,1331.88 842.411,1333.92L842.389,1333.94L841.91,1334.61C840.242,1336.97 839.211,1339.26 838.687,1341.47C837.584,1345.45 837.569,1349.75 838.809,1353.91C839.802,1357.24 841.519,1360.21 843.759,1362.66C843.432,1360.9 843.265,1359.08 843.272,1357.24C839.64,1352.83 837.269,1347.47 838.687,1341.47C839.364,1339.02 840.45,1336.7 841.91,1334.61L842.411,1333.92C843.645,1332.33 845.79,1335.04 848.175,1339.59L845.984,1344.78C843.516,1350.64 843.421,1354.29 843.42,1354.3C843.322,1355.29 843.272,1356.27 843.272,1357.24C848.909,1364.08 857.587,1368.63 859.851,1369.73L859.973,1370L860.395,1370.01L860.393,1370L859.851,1369.73C858.821,1367.55 858.157,1365.23 857.876,1362.87C856.249,1358.39 854.012,1352.47 851.7,1347.12ZM857.718,1360.86C857.738,1361.53 857.789,1362.2 857.876,1362.87C859.354,1366.93 860.328,1369.81 860.393,1370L857.718,1360.86Z"/>
    </g>
    <g transform="matrix(0.443838,0,0,0.443838,-106.726,-141.677)">
        <path d="M675.717,1344.17L672.466,1346.39C671.969,1346.72 671.616,1346.96 671.616,1346.96L671.618,1346.96C669.624,1348.31 668.313,1350.59 668.313,1353.18C668.313,1357.32 671.674,1360.68 675.813,1360.68C675.815,1360.68 677.947,1360.8 680.743,1358.9L702.486,1344.1L706.912,1360.1C708.016,1364.09 712.15,1366.43 716.14,1365.33C720.13,1364.23 722.473,1360.09 721.37,1356.1L714.592,1331.6L731.068,1233.43C731.753,1229.35 728.994,1225.48 724.912,1224.79C720.83,1224.11 716.959,1226.87 716.274,1230.95C711.632,1258.62 703.121,1309.36 700.417,1325.48C688.468,1327.27 664.24,1330.89 664.236,1330.89C660.097,1330.89 656.736,1334.25 656.736,1338.39C656.736,1342.53 660.097,1345.89 664.236,1345.89L675.717,1344.17Z" style="fill:rgb(201,110,61);"/>
        <path d="M661.894,1308.46C646.411,1309.65 634.205,1322.61 634.205,1338.39C634.205,1348.79 639.507,1357.97 647.557,1363.36C651.727,1374.93 662.81,1383.21 675.813,1383.21C675.819,1383.21 682.839,1384.14 692.032,1378.41C699.411,1386.44 710.922,1390.15 722.146,1387.04C738.12,1382.63 747.503,1366.07 743.085,1350.1L737.639,1330.41L753.288,1237.16C756.03,1220.81 744.986,1205.32 728.64,1202.57C712.294,1199.83 696.797,1210.88 694.054,1227.22C690.491,1248.46 684.65,1283.28 680.903,1305.62L661.894,1308.46ZM671.615,1369.49L671.05,1367.65L670.084,1367.8L670.211,1367.94L671.615,1369.49ZM671.054,1367.65L671.616,1369.49L671.624,1367.57L671.054,1367.65ZM684.697,1365.3L684.13,1365.66L684.242,1365.63L684.697,1365.3ZM668.334,1352.85L668.313,1353.18C668.313,1357.32 671.674,1360.68 675.813,1360.68C675.815,1360.68 677.947,1360.8 680.743,1358.9L702.486,1344.1L706.912,1360.1C708.016,1364.09 712.15,1366.43 716.14,1365.33C720.13,1364.23 722.473,1360.09 721.37,1356.1L714.592,1331.6L731.068,1233.43C731.753,1229.35 728.994,1225.48 724.912,1224.79C720.83,1224.11 716.959,1226.87 716.274,1230.95C711.632,1258.62 703.121,1309.36 700.417,1325.48L668.746,1330.22C667.833,1326.89 666.622,1324.93 665.026,1325.42C664.395,1325.61 663.798,1325.82 663.236,1326.05L665.082,1330.76L664.236,1330.89C660.097,1330.89 656.736,1334.25 656.736,1338.39C656.736,1342.53 660.097,1345.89 664.236,1345.89L670.626,1344.93L670.907,1345.65L670.848,1344.9L675.717,1344.17L671.618,1346.96C669.712,1348.25 668.429,1350.4 668.334,1352.84L666.59,1353.09L666.633,1353.23L667.264,1353.12C667.506,1353.06 667.748,1353 667.991,1352.95L668.334,1352.85ZM666.574,1353.09L664.236,1353.42C665.046,1353.42 665.842,1353.36 666.617,1353.23L666.574,1353.09Z"/>
    </g>
    <g transform="matrix(0.443838,0,0,0.443838,-106.726,-141.677)">
        <path d="M567.473,594.884C567.464,594.882 562.355,591.169 560.34,589.362C543.564,574.318 517.294,555.124 509.663,533.921C505.726,522.982 502.464,504.296 509.663,495.167C513.538,490.253 523.195,488.578 529.453,488.57C537.041,488.559 546.712,493.166 553.365,496.815C564.613,502.984 586.319,524.058 586.349,524.027C586.372,524.002 572.358,504.218 569.857,494.342C566.881,482.589 567.044,465.503 570.681,453.938C573.419,445.232 579.15,432.724 587.173,428.376C592.18,425.662 600.635,426.084 606.138,427.551C611.509,428.984 618.061,433.336 621.805,437.446C627.169,443.335 630.673,453.856 633.348,461.359C635.827,468.31 639.098,485.279 639.121,485.272C639.14,485.266 637.113,470.967 638.682,465.13C640.163,459.617 644.942,453.289 648.524,448.844C652.876,443.443 659.229,436.205 665.402,433.042C673.103,429.097 685.222,426.496 693.771,427.836C696.818,428.314 700.794,430.104 703.107,432.145C712.286,440.24 715.098,458.161 721.781,468.414C722.892,470.12 725.894,473.802 725.911,473.801C725.945,473.797 725.947,463.649 727.706,459.796C731.407,451.687 740.993,443.361 748.534,438.609C752.139,436.336 757.658,432.668 761.821,433.581C766.734,434.659 770.652,441.521 773.312,445.791C776.079,450.232 779.4,462.124 779.417,462.13C779.427,462.134 786.644,458.557 790.01,458C794.641,457.233 801.53,456.614 805.631,458.898C811.204,462.003 816.012,470.426 817.302,476.673C820.362,491.495 811.599,511.965 805.058,525.613C804.511,526.754 803.383,528.046 802.711,529.118C801.534,530.998 799.005,535.51 799,535.514C798.887,535.605 737.984,531.446 655.659,555.552C600.736,571.634 567.567,594.905 567.473,594.884Z" style="fill:rgb(255,73,73);"/>
        <path d="M526.78,443.596C508.959,444.453 484.899,453.798 474.279,467.265C467.481,475.886 462.794,486.879 461.091,499.445C458.886,515.713 462.45,535.806 467.264,549.181C477.116,576.555 508.597,603.487 530.256,622.91C537.347,629.269 557.666,638.865 557.698,638.872L557.648,638.861C557.931,638.925 573.41,644.899 593.222,631.885C598.33,628.529 625.786,611.253 668.322,598.798C668.322,598.798 668.322,598.798 668.322,598.798C734.942,579.29 785.925,580.127 795.537,580.478C817.226,581.27 827.057,570.776 827.263,570.61C827.17,570.685 836.233,560.026 840.231,554.03C841.353,552.357 844.519,547.539 845.691,545.093C845.692,545.091 845.693,545.09 845.694,545.088C855.951,523.687 866.231,490.804 861.433,467.562C861.433,467.561 861.433,467.561 861.432,467.56C857.867,450.295 842.965,428.115 827.563,419.534C827.561,419.533 827.559,419.531 827.556,419.53C821.476,416.144 813.363,414.074 805.093,413.166C796.153,402.495 783.295,392.159 771.479,389.567C771.477,389.566 771.476,389.566 771.474,389.566C759.655,386.974 743.311,390.962 731.123,396.863C723,390.428 710.526,384.852 700.755,383.319C700.753,383.319 700.751,383.318 700.749,383.318C683.939,380.683 660,385.179 644.857,392.937C644.856,392.937 644.855,392.938 644.853,392.939C643.563,393.6 642.257,394.346 640.945,395.171C633.482,390.128 625.112,385.976 617.754,384.012C617.751,384.012 617.748,384.011 617.745,384.01C602.595,379.971 579.486,381.288 565.701,388.759C548.787,397.927 533.468,422.065 527.695,440.419L526.78,443.596ZM567.473,594.884C567.464,594.882 562.355,591.169 560.34,589.362C543.564,574.318 517.294,555.124 509.663,533.921C505.726,522.982 502.464,504.296 509.663,495.167C513.538,490.253 523.195,488.578 529.453,488.57C537.041,488.559 546.712,493.166 553.365,496.815C564.613,502.984 586.319,524.058 586.349,524.027C586.372,524.002 572.358,504.218 569.857,494.342C566.881,482.589 567.044,465.503 570.681,453.938C573.419,445.232 579.15,432.724 587.173,428.376C592.18,425.662 600.635,426.084 606.138,427.551C611.509,428.984 618.061,433.336 621.805,437.446C627.169,443.335 630.673,453.856 633.348,461.359C635.827,468.31 639.098,485.279 639.121,485.272C639.14,485.266 637.113,470.967 638.682,465.13C640.163,459.617 644.942,453.289 648.524,448.844C652.876,443.443 659.229,436.205 665.402,433.042C673.103,429.097 685.222,426.496 693.771,427.836C696.818,428.314 700.794,430.104 703.107,432.145C712.286,440.24 715.098,458.161 721.781,468.414C722.892,470.12 725.894,473.802 725.911,473.801C725.945,473.797 725.947,463.649 727.706,459.796C731.407,451.687 740.993,443.361 748.534,438.609C752.139,436.336 757.658,432.668 761.821,433.581C766.734,434.659 770.652,441.521 773.312,445.791C776.079,450.232 779.4,462.124 779.417,462.13C779.427,462.134 786.644,458.557 790.01,458C794.641,457.233 801.53,456.614 805.631,458.898C811.204,462.003 816.012,470.426 817.302,476.673C820.362,491.495 811.599,511.965 805.058,525.613C804.511,526.754 803.383,528.046 802.711,529.118C801.534,530.998 799.005,535.51 799,535.514C798.887,535.605 737.984,531.446 655.659,555.552C600.736,571.634 567.567,594.905 567.473,594.884ZM840.231,554.03L839.84,554.626C839.84,554.626 840.376,553.845 840.881,553.068L840.231,554.03Z"/>
    </g>
    <g transform="matrix(0.927841,0,0,0.927841,9.22133,16.8081)">
        <path d="M134.757,107.786C130.487,110.884 124.843,115.161 121.163,118.941C112.63,127.705 102.331,140.832 97.223,151.946C97.223,151.946 97.223,151.946 97.223,151.946C87.225,173.702 81.583,206.229 81.39,230.171C81.083,268.159 88.303,321.18 107.173,354.15C118.743,374.368 142.411,397.376 163.177,407.926C163.178,407.926 163.178,407.926 163.178,407.926C188.248,420.661 227.65,425.754 255.653,423.205C287.221,420.336 331.026,407.528 354.722,386.47C364.839,377.481 373.083,364.718 379.871,350.424C387.557,334.237 393.437,315.986 399.536,301.232C400.807,301.269 401.969,301.205 402.992,301.076C406.801,300.597 412.942,298.497 417.728,295.07C422.462,291.679 425.821,287.149 427.446,282.847C427.447,282.843 427.449,282.839 427.45,282.835C429.621,277.076 428.717,268.4 425.935,261.704C427.227,259.709 428.489,257.496 429.216,255.447C431.066,250.24 431.031,245.123 429.519,240.48C428.021,235.877 425.032,231.633 420.482,228.414C416.171,225.365 409.609,223.336 405.049,222.774C403.154,222.541 400.967,222.589 398.737,222.862C392.907,219.721 384.675,218.335 379.119,219.877C372.907,221.602 366.18,227.696 362.203,234.024C359.822,230.455 357.87,226.558 356.81,223.101C356.053,220.632 356.664,217.494 356.805,214.463C357.019,209.851 357.156,205.334 356.783,201.423C356.783,201.423 356.783,201.422 356.783,201.422C355.405,186.975 353.648,167.329 348.494,153.764C341.592,135.597 327.912,112.106 313.129,99.492C300.118,88.391 277.907,79.839 261.301,75.745C253.518,73.827 242.699,72.96 234.692,73.333C219.091,74.06 198.668,79.333 183.679,83.718C175.405,86.139 164.476,89.93 156.765,93.785C156.764,93.786 156.764,93.786 156.764,93.786C149.765,97.286 141.09,103.19 134.757,107.786ZM135.009,359.04L135.353,359.451C135.552,359.688 135.752,359.925 135.954,360.161C135.636,359.789 135.321,359.415 135.009,359.04ZM130.769,353.664L131.079,354.079C131.323,354.404 131.57,354.73 131.82,355.055C131.465,354.593 131.114,354.129 130.769,353.664ZM128.401,350.353C128.496,350.491 128.592,350.629 128.687,350.766C128.592,350.629 128.496,350.491 128.401,350.353ZM126.628,347.676C127.049,348.336 127.484,348.998 127.933,349.664C127.484,348.999 127.049,348.336 126.628,347.676ZM139.731,129.097L139.373,129.389C137.948,130.561 136.605,131.75 135.493,132.892C128.381,140.197 119.653,151.034 115.396,160.297C106.449,179.766 101.562,208.907 101.389,230.333C101.107,265.195 107.214,313.959 124.531,344.215C125.042,345.108 125.581,346.007 126.144,346.91C125.581,346.007 125.042,345.108 124.531,344.215C107.214,313.959 101.107,265.195 101.389,230.333C101.562,208.907 106.449,179.766 115.396,160.297C119.653,151.034 128.381,140.197 135.493,132.892C136.698,131.655 138.173,130.363 139.731,129.097ZM400.079,281.256L400.08,281.256L400.079,281.256ZM395.592,280.103L395.67,280.133L395.592,280.103L395.528,280.078L395.592,280.103ZM408.383,270.848L408.378,270.833L408.383,270.848ZM408.027,270.007C408.121,270.203 408.209,270.406 408.292,270.613C408.209,270.406 408.121,270.203 408.027,270.007ZM401.222,265.775C401.733,265.895 402.29,266.033 402.855,266.197C402.29,266.033 401.733,265.895 401.222,265.775ZM399.514,265.482C399.997,265.531 400.434,265.595 400.8,265.678L400.92,265.706L400.8,265.678C400.434,265.595 399.997,265.531 399.514,265.482ZM391.611,265.485C391.614,265.491 393.905,265.342 396.329,265.348C394.16,265.343 392.098,265.461 391.685,265.482L391.611,265.485ZM397.857,265.376C398.396,265.395 398.919,265.426 399.4,265.471C399.031,265.436 398.637,265.41 398.231,265.391L397.857,265.376ZM369.793,264.241L369.678,264.199C369.752,264.227 369.792,264.241 369.793,264.241L371.41,263.895C370.442,264.103 369.796,264.241 369.793,264.241ZM372.444,251.275C371.403,249.698 370.595,247.949 370.386,246.356L370.94,245.95L372.444,251.275ZM400.455,242.708C399.349,242.887 398.223,243.242 397.366,243.652C394.409,245.066 389.277,250.996 389.267,250.989L389.286,250.913L389.267,250.989C389.277,250.996 394.409,245.066 397.366,243.652C398.268,243.221 399.468,242.85 400.629,242.681L400.455,242.708ZM346.544,246.403C347.475,247.741 348.443,249.041 349.438,250.284C348.444,249.041 347.476,247.741 346.544,246.403ZM407.939,244.148C408.081,244.22 408.22,244.296 408.355,244.374C408.22,244.296 408.081,244.22 407.939,244.148ZM390.188,243.402C390.201,243.513 390.213,243.624 390.224,243.733L390.192,243.438L390.188,243.402ZM390.045,242.466C390.078,242.634 390.107,242.803 390.132,242.972C390.107,242.803 390.078,242.634 390.045,242.466ZM389.651,241.136C389.8,241.476 389.913,241.853 389.999,242.243C389.913,241.853 389.8,241.476 389.651,241.136ZM387.943,239.52C388.371,239.707 388.751,239.94 389.037,240.213C389.183,240.352 389.311,240.516 389.424,240.698C389.311,240.516 389.183,240.352 389.037,240.213C388.783,239.97 388.454,239.759 388.084,239.584L387.943,239.52ZM339.237,233.231L339.41,233.641L339.237,233.231ZM338.31,230.833L338.426,231.153L338.31,230.833ZM336.653,221.522C336.673,222.243 336.707,222.954 336.761,223.652C336.707,222.954 336.673,222.243 336.653,221.522ZM334.395,180.396C334.512,181.19 334.623,181.987 334.73,182.785C334.623,181.987 334.512,181.19 334.395,180.396ZM280.36,103.115C281.195,103.475 282.025,103.843 282.847,104.22C282.025,103.843 281.195,103.475 280.36,103.115ZM275.387,101.09C276.384,101.474 277.38,101.87 278.37,102.277C277.379,101.869 276.383,101.473 275.387,101.09ZM407.916,269.783C407.897,269.746 407.878,269.71 407.859,269.674L407.801,269.565C407.86,269.673 407.917,269.783 407.972,269.895L407.916,269.783ZM407.682,269.354C407.582,269.182 407.477,269.017 407.37,268.861L407.305,268.769C407.457,268.981 407.604,269.213 407.742,269.459L407.682,269.354ZM406.843,268.208C406.591,267.952 406.296,267.72 405.97,267.509L405.88,267.452C406.272,267.697 406.623,267.971 406.91,268.278L406.843,268.208ZM396.713,265.351C396.969,265.353 397.225,265.357 397.479,265.364L397.096,265.356L396.713,265.351ZM368.181,263.618L368.848,263.881C368.277,263.658 367.482,263.342 366.56,262.959C367.164,263.21 367.713,263.432 368.181,263.618ZM379.782,260.741L379.83,260.926L379.985,261.511C379.93,261.308 379.861,261.048 379.782,260.741ZM344.044,242.572L344.344,243.058L344.044,242.572ZM402.299,242.596L402.142,242.588C402.301,242.594 402.455,242.606 402.604,242.624C404.055,242.803 406.044,243.242 407.679,244.02C406.044,243.242 404.055,242.803 402.604,242.624C402.504,242.612 402.403,242.603 402.299,242.596ZM400.976,242.637C401.321,242.598 401.659,242.58 401.982,242.584L401.819,242.584C401.492,242.587 401.15,242.613 400.803,242.657L400.976,242.637ZM343.169,241.104L343.457,241.594C342.781,240.45 342.14,239.297 341.54,238.144C342.054,239.132 342.599,240.121 343.169,241.104ZM341.036,237.155L341.285,237.649C341.019,237.128 340.762,236.607 340.514,236.088C340.684,236.444 340.858,236.799 341.036,237.155ZM337.912,229.668L337.985,229.891L338.144,230.361C338.065,230.129 337.987,229.898 337.912,229.668ZM334.184,178.995C333.932,177.365 333.657,175.747 333.355,174.154C333.7,175.975 334.01,177.829 334.291,179.695L334.184,178.995ZM333.09,172.795C332.228,168.516 331.159,164.451 329.798,160.867C329.433,159.905 329.046,158.925 328.639,157.931C329.046,158.925 329.433,159.905 329.798,160.867C331.231,164.639 332.34,168.944 333.224,173.473L333.09,172.795ZM328.014,156.427C326.947,153.905 325.757,151.301 324.46,148.666C325.887,151.563 327.184,154.426 328.33,157.182L328.014,156.427ZM322.012,143.906L322.435,144.7C322.294,144.435 322.153,144.171 322.012,143.906L321.583,143.111C321.728,143.376 321.87,143.641 322.012,143.906ZM320.263,140.732L320.708,141.524L320.263,140.732ZM318.425,137.583C317.956,136.8 317.479,136.022 316.994,135.249L317.235,135.636C317.798,136.539 318.351,137.451 318.892,138.367L318.425,137.583ZM316.261,134.094C315.606,133.071 314.938,132.06 314.259,131.064C315.023,132.185 315.773,133.325 316.507,134.478L316.261,134.094ZM313.747,130.32C312.463,128.466 311.14,126.668 309.784,124.947C311.23,126.782 312.639,128.706 314.003,130.692L313.747,130.32ZM308.142,122.92C307.958,122.7 307.774,122.481 307.589,122.263C307.866,122.589 308.143,122.919 308.418,123.253L308.142,122.92ZM307.032,121.615C306.009,120.437 304.97,119.308 303.919,118.238C305.065,119.405 306.196,120.641 307.311,121.938L307.032,121.615ZM303.345,117.66L303.632,117.948C303.345,117.659 303.057,117.374 302.768,117.095L302.479,116.817C302.768,117.093 303.057,117.375 303.345,117.66ZM298.012,112.991C297.271,112.428 296.503,111.876 295.711,111.335C296.603,111.944 297.463,112.567 298.288,113.202L298.012,112.991ZM288.678,107.101C291.052,108.372 293.316,109.717 295.412,111.132L295.112,110.93C293.1,109.589 290.94,108.312 288.678,107.101ZM177.317,106.823L176.541,107.106C177.316,106.821 178.095,106.541 178.874,106.267L178.095,106.543C177.836,106.635 177.576,106.729 177.317,106.823ZM181.203,105.463L180.429,105.727C183.532,104.664 186.579,103.708 189.295,102.913C195.255,101.17 202.154,99.24 209.216,97.566L208.46,97.746C201.663,99.378 195.043,101.232 189.295,102.913C186.805,103.642 184.038,104.506 181.203,105.463ZM263.35,97.016C267.002,98.093 270.822,99.359 274.632,100.802C271.07,99.453 267.498,98.259 264.061,97.228L263.35,97.016ZM210.732,97.211L209.974,97.388C212.753,96.737 215.552,96.129 218.326,95.589L217.569,95.738C215.295,96.19 213.008,96.686 210.732,97.211ZM260.549,96.218C259.858,96.027 259.176,95.844 258.503,95.669L257.833,95.496C258.945,95.78 260.083,96.085 261.241,96.41L260.549,96.218ZM219.836,95.301L219.082,95.443C219.837,95.3 220.59,95.161 221.34,95.028L220.589,95.163C220.338,95.209 220.087,95.255 219.836,95.301ZM224.319,94.53L223.578,94.648L222.835,94.771C223.33,94.688 223.826,94.607 224.319,94.53ZM255.041,94.827C254.637,94.741 254.226,94.659 253.808,94.58L253.493,94.522C254.125,94.638 254.743,94.761 255.342,94.892L255.041,94.827ZM252.856,94.409C252.429,94.335 251.995,94.265 251.557,94.198L251.227,94.149C251.888,94.246 252.539,94.352 253.176,94.465L252.856,94.409ZM250.228,94.008C248.663,93.798 247.053,93.631 245.446,93.507L244.758,93.457C246.822,93.6 248.902,93.815 250.895,94.1L250.228,94.008ZM243.385,93.372C241.333,93.26 239.319,93.22 237.446,93.253L238.075,93.245C239.978,93.228 242.01,93.284 244.07,93.412L243.385,93.372Z"/>
    </g>
    <g transform="matrix(0.443838,0,0,0.443838,-106.726,-141.677)">
        <path d="M880.564,1316.82L853.173,1334.3C849.793,1336.46 849.117,1339.04 849.115,1339.05C847.926,1343.01 850.179,1347.19 854.144,1348.38C856.346,1349.04 858.616,1348.64 860.402,1347.48L860.397,1347.48C860.397,1347.48 860.751,1347.25 861.249,1346.94L872.578,1339.71L866.746,1353.53C865.959,1355.4 865.84,1356.54 865.839,1356.54C865.427,1360.66 868.437,1364.34 872.556,1364.75C875.927,1365.09 879.003,1363.13 880.233,1360.15L880.569,1359.36L891.045,1334.52L909.733,1356.34C912.426,1359.48 917.164,1359.85 920.308,1357.15C923.451,1354.46 923.817,1349.72 921.123,1346.58L895.861,1317.09L877.647,1217.77C876.9,1213.7 872.989,1211 868.917,1211.74C864.846,1212.49 862.146,1216.4 862.893,1220.47L880.564,1316.82Z" style="fill:rgb(201,110,61);"/>
    </g>
    <g transform="matrix(0.443838,0,0,0.443838,-106.726,-141.677)">
        <path d="M675.717,1344.17L672.466,1346.39C671.969,1346.72 671.616,1346.96 671.616,1346.96L671.618,1346.96C669.624,1348.31 668.313,1350.59 668.313,1353.18C668.313,1357.32 671.674,1360.68 675.813,1360.68C675.815,1360.68 677.947,1360.8 680.743,1358.9L702.486,1344.1L706.912,1360.1C708.016,1364.09 712.15,1366.43 716.14,1365.33C720.13,1364.23 722.473,1360.09 721.37,1356.1L714.592,1331.6L731.068,1233.43C731.753,1229.35 728.994,1225.48 724.912,1224.79C720.83,1224.11 716.959,1226.87 716.274,1230.95C711.632,1258.62 703.121,1309.36 700.417,1325.48C688.468,1327.27 664.24,1330.89 664.236,1330.89C660.097,1330.89 656.736,1334.25 656.736,1338.39C656.736,1342.53 660.097,1345.89 664.236,1345.89L675.717,1344.17Z" style="fill:rgb(201,110,61);"/>
    </g>
    <g transform="matrix(0.443838,0,0,0.443838,-106.726,-141.677)">
        <path d="M706.409,687.974C660.899,678.325 585.938,685.498 554.669,719.943C533.503,743.259 539.864,792.101 537.558,823.506C534.242,868.65 515.565,937.013 541.16,974.347C599.159,1058.95 767.493,1061.96 869.858,1068.45C894.393,1070.01 931.973,1075.02 951.358,1059.9C984.497,1034.05 1000.49,965.984 990.08,925.268C975.707,869.063 893.238,830.507 848.696,793.338C807.935,759.326 758.37,698.991 706.409,687.974Z" style="fill:rgb(66,66,66);"/>
    </g>
    <g transform="matrix(0.443838,0,0,0.443838,-106.726,-141.677)">
        <path d="M562.89,854.937C562.323,855.837 573.637,870.7 580.16,875.381C586.672,880.052 597.126,883.751 605.013,885.176C613.082,886.634 624.428,886.814 632.339,884.661C635.117,883.906 638.922,882.421 640.899,880.33C647.231,873.63 652.436,852.214 650.751,851.224C649.403,850.433 644.728,855.179 641.986,856.587C635.863,859.73 627.533,864.136 620.741,865.249C611.555,866.754 598.961,864.551 589.805,862.878C581.724,861.401 563.484,853.994 562.89,854.937Z" style="fill:rgb(201,110,61);"/>
    </g>
    <g transform="matrix(0.443838,0,0,0.443838,-106.726,-141.677)">
        <path d="M561.623,844.452C560.517,841.034 575.411,827.624 583.444,823.323C590.933,819.313 602.599,817.423 611.09,817.202C618.348,817.013 628.699,817.416 634.984,821.052C641.07,824.574 649.999,836.764 649.794,839.219C649.64,841.062 641.374,846.618 633.997,849.29C627.443,851.664 618.079,853.347 611.09,853.635C598.925,854.136 582.525,852 570.806,848.697C567.841,847.862 561.991,845.59 561.623,844.452Z" style="fill:rgb(255,170,94);"/>
    </g>
    <g transform="matrix(0.443838,0,0,0.443838,-106.726,-141.677)">
        <path d="M567.505,616.243C560.313,621.462 550.686,628.521 544.487,634.889C529.619,650.16 511.374,672.814 502.474,692.18C483.77,732.88 473.554,793.798 473.192,838.589C472.603,911.468 485.37,1013.41 521.571,1076.66C542.188,1112.69 584.29,1153.77 621.297,1172.57C667.519,1196.05 740.263,1204.85 791.893,1200.15C850.09,1194.86 931.328,1172.56 975.013,1133.74C1018.31,1095.27 1038.6,1014.36 1061.86,961.32C1065.27,953.536 1072.17,934.956 1072.2,934.944C1072.22,934.933 1091.55,945.867 1098.47,944.995C1103.55,944.356 1113.51,939.395 1115.7,933.597C1117.37,929.167 1115.18,921.848 1112.15,918.216C1109.4,914.939 1103.28,913.426 1099.11,912.478C1093.49,911.199 1079.91,912.094 1079.9,912.075C1079.9,912.055 1093.19,904.507 1098.36,900.513C1103.03,896.908 1109.25,891.849 1112.7,887.059C1115.46,883.209 1120.86,877.253 1119.39,872.744C1117.67,867.452 1108.41,864.964 1102.88,864.284C1099.56,863.874 1094.95,864.989 1091.93,866.433C1085.75,869.388 1075.02,881.785 1075,881.771C1074.99,881.763 1077.42,872.398 1077.14,868.323C1076.94,865.494 1076.57,861.199 1074.52,859.243C1072.39,857.214 1067.8,856.232 1064.97,857.018C1059.41,858.56 1054.12,865.981 1052.25,871.436C1048.97,880.962 1055.9,904.791 1055.88,904.818C1055.87,904.835 1034.31,909.477 1034.29,909.474C1034.25,909.471 1013.54,901.751 1006.43,895.724C990.028,881.81 973.48,856.29 967.174,835.724C962.459,820.341 966.999,798.137 965.472,782.121C962.909,755.25 960.267,718.603 950.68,693.371C938.46,661.207 914.87,619.206 888.695,596.873C865.886,577.411 826.593,563.195 797.48,556.019C784.71,552.871 766.948,551.533 753.81,552.146C724.169,553.527 685.438,563.887 656.96,572.219C641.815,576.65 621.767,583.476 607.653,590.533C594.861,596.93 579.08,607.842 567.505,616.243ZM882.665,879.493C886.189,884.473 890.747,894.072 894.33,899.016C902.649,910.495 914.858,924.968 924.164,935.661C929.226,941.477 938.354,949.914 941.597,954.546C942.272,955.51 944.753,958.258 944.197,959.222C943.457,960.503 939.122,958.872 937.115,958.582C932.225,957.875 923.444,952.682 920.16,955.022C919.422,955.549 919.638,959.817 920.031,961.818C920.989,966.707 925.802,972.016 927.194,976.799C928.269,980.495 931.653,986.896 928.84,989.523C925.379,992.755 918.172,986.646 913.58,985.487C910.935,984.82 906.808,981.57 904.742,983.352C903.094,984.772 904.63,988.449 904.961,990.599C905.486,994 907.291,998.285 908.215,1001.6C909.69,1006.89 912.093,1013.88 912.826,1019.33C913.615,1025.18 917.836,1035.55 913.053,1039.02C899.387,1048.93 884.327,1011.86 873.981,998.523C856.854,976.438 827.368,926.817 819.511,909.58C825.188,925.721 847.045,985.878 863.113,1010.75C870.977,1022.92 882.109,1040.28 894.873,1047.14C901.974,1050.95 914.467,1055.98 921.34,1051.77C926.213,1048.78 927.754,1039.62 927.957,1033.91C928.238,1026 922.614,1016.23 920.017,1008.76C918.904,1005.56 916.04,998.183 916.047,998.174C916.063,998.154 930.433,1009.47 937.883,1010.75C940.777,1011.24 945.352,1011.43 947.596,1009.53C950.17,1007.36 950.99,1002.08 950.637,998.724C950.009,992.76 943.385,986.752 940.501,981.494C938.147,977.202 933.054,966.974 933.068,966.966C933.078,966.961 938.648,973.283 941.852,974.736C946.031,976.632 952.967,978.509 957.056,976.425C959.535,975.162 962.1,971.438 962.123,968.656C962.188,960.817 950.383,954.63 945.231,948.722C928.323,929.338 890.154,887.611 882.665,879.493ZM603.615,806.786C596.47,806.863 586.574,807.938 580.205,811.177C568.54,817.109 550.463,837.731 549.573,842.234C549.125,844.497 552.77,857.517 556.217,863.113C561.402,871.531 571.964,880.265 580.242,885.671C586.358,889.666 595.323,894.328 602.54,895.456C614.132,897.267 631.81,897.277 641.321,890.408C654.218,881.094 664.707,857.672 662.715,841.889C661.434,831.733 651.562,819.625 642.969,814.061C632.892,807.534 615.621,806.657 603.615,806.786ZM600.824,736.136C602.53,738.57 602.779,742.107 602.219,745.943C601.717,749.381 600.196,751.93 598.561,754.032C596.211,757.052 593.439,761.732 588.447,761.806C583.207,761.884 580.032,757.119 577.65,753.884C576.142,751.836 575.03,749.243 574.676,745.943C574.141,740.972 574.214,736.185 576.786,733.343C579.223,730.649 583.726,729.674 588.447,730.082C593.82,730.546 598.452,732.751 600.824,736.136ZM687.04,736.695C688.26,738.774 688.236,741.577 687.814,744.694C687.101,749.956 685.596,754.439 682.64,757.237C680.631,759.137 677.648,760.636 674.042,760.558C669.084,760.451 664.92,758.164 662.571,755.175C660.583,752.643 660.072,748.889 660.27,744.694C660.473,740.391 661.522,736.745 663.649,734.219C665.91,731.532 669.461,728.747 674.042,728.832C679.986,728.941 684.733,732.764 687.04,736.695Z" style="fill:rgb(255,223,94);"/>
    </g>
</svg>
