<?xml version="1.0" encoding="UTF-8" standalone="no"?>
<!DOCTYPE svg PUBLIC "-//W3C//DTD SVG 1.1//EN" "http://www.w3.org/Graphics/SVG/1.1/DTD/svg11.dtd">
<svg width="100%" height="100%" viewBox="0 0 512 512" version="1.1" xmlns="http://www.w3.org/2000/svg" xmlns:xlink="http://www.w3.org/1999/xlink" xml:space="preserve" xmlns:serif="http://www.serif.com/" style="fill-rule:evenodd;clip-rule:evenodd;stroke-linejoin:round;stroke-miterlimit:2;">
    <g id="Icon" transform="matrix(1,0,0,1,0,2.34131)">
        <g id="Box" transform="matrix(1,0,0,1,2.11992,-2.81953)">
            <path d="M247.92,325.256L247.92,507.977L77.646,441.384L79.377,343.053L194.818,396.442L247.92,325.256ZM259.841,325.256L259.841,507.977L430.114,441.384L428.383,343.053L312.942,396.442L259.841,325.256ZM241.433,306.804L190.845,378.165L20.341,296.235L74.245,230.259L241.433,306.804ZM266.327,306.804L316.916,378.165L487.419,296.235L433.515,230.259L266.327,306.804Z" style="fill:rgb(161,118,111);fill-rule:nonzero;"/>
        </g>
        <g id="Clip-Window" serif:id="Clip Window" transform="matrix(1.03628,0,0,1.03628,-11.359,-19.0013)">
            <path d="M82.654,223.645L243.988,297.51L268.012,297.51L429.346,223.645L526.106,223.645L526.106,-10.237L-10.014,-10.237L-10.014,223.645L82.654,223.645Z" style="fill:none;"/>
            <clipPath id="_clip1">
                <path d="M82.654,223.645L243.988,297.51L268.012,297.51L429.346,223.645L526.106,223.645L526.106,-10.237L-10.014,-10.237L-10.014,223.645L82.654,223.645Z"/>
            </clipPath>
            <g clip-path="url(#_clip1)">
                <g id="GoDotLog">
                    <g transform="matrix(0.964991,0,0,0.964991,8.69566,-7.39825)">
                        <path d="M367.427,94.441C367.427,84.145 359.068,75.786 348.772,75.786L167.924,75.786C157.628,75.786 149.268,84.145 149.268,94.441C149.268,94.441 133.21,237.971 128.929,278.916C126.801,299.273 120.17,340.109 134.295,340.109L382.401,340.109C396.526,340.109 389.895,299.273 387.766,278.916C383.485,237.971 367.427,94.441 367.427,94.441Z" style="fill:rgb(255,236,159);"/>
                    </g>
                    <g transform="matrix(0.964991,0,0,0.964991,10.9613,-6.00853)">
                        <path d="M181.922,156.672C182.068,156.918 182.217,157.161 182.376,157.399C183.755,159.474 185.468,161.333 188.433,162.515C189.615,162.986 190.988,163.196 192.398,163.296C192.839,163.327 193.292,163.302 193.718,163.317C193.802,163.693 193.896,164.076 193.97,164.317C194.296,165.375 194.816,166.188 195.377,166.749C196.863,168.235 198.968,168.851 201.554,168.064C202.892,167.657 204.511,166.748 206.115,165.543C207.169,164.752 208.235,163.832 209.203,162.943C209.852,163.581 210.585,164.219 211.367,164.666C213.377,165.814 215.624,166.131 218.037,164.903C219.77,164.022 221.175,162.521 222.554,160.994C223.164,160.318 223.619,159.341 224.771,159.532C228.665,160.179 232.028,162.191 235.279,163.816C236.429,164.392 238.221,164.647 240.331,164.262C242.266,163.908 244.727,162.983 246.527,162.434C248.761,164.222 251.186,165.357 253.722,166.289C256.181,167.193 258.757,167.873 261.267,169.128C262.111,169.55 263.837,169.887 266.139,169.345C268.478,168.794 272.235,167.349 275.652,166.27C277.368,165.729 278.955,165.238 280.056,165.238C294.662,165.238 294.819,165.469 308.186,160.968C312.527,161.242 326.787,164.685 331.798,164.685C334.143,164.685 336.048,162.781 336.048,160.435C336.048,158.09 334.143,156.185 331.798,156.185C327.475,156.185 316.024,153.451 310.667,152.697C308.314,152.366 306.626,152.524 305.977,152.743C293.422,156.976 293.44,156.738 280.056,156.738C277.746,156.738 273.925,157.848 270.268,159.102C268.089,159.849 265.151,160.73 264.069,161.051C262.091,160.154 260.096,159.502 258.137,158.833C255.568,157.955 253.044,157.104 250.912,154.972C250.194,154.254 248.409,153.225 245.738,153.839C244.113,154.213 239.413,155.636 238.491,155.917C234.692,154.004 230.691,151.899 226.164,151.147C222.768,150.583 220.355,151.61 218.329,153.258C217.467,153.959 216.69,154.8 215.928,155.65C215.615,156 215.325,156.373 215.005,156.695L214.781,156.466L214.195,155.871C213.959,155.155 213.6,154.135 213.401,153.87C212.996,153.33 212.53,152.953 212.064,152.686C211.211,152.197 210.288,152.011 209.286,152.154C208.573,152.256 207.649,152.527 206.732,153.46C206.121,154.081 204.137,156.187 201.995,157.966C201.754,158.166 201.466,158.38 201.166,158.59C200.575,157.366 199.695,156.476 198.613,155.935C197.422,155.339 195.993,155.044 194.478,154.919C193.489,154.837 192.421,154.954 191.58,154.619C190.168,154.056 189.608,152.964 188.986,151.956C188.103,150.526 187.227,149.098 185.996,147.866C185.28,147.15 184.28,146.591 182.898,146.597C182.423,146.599 181.736,146.689 180.979,147.02C180.37,147.287 179.425,147.928 179.269,148.033C176.774,149.725 173.639,152.423 171.515,155.437C169.761,157.927 168.704,160.651 168.704,163.271C168.704,165.617 170.609,167.521 172.954,167.521C175.3,167.521 177.204,165.617 177.204,163.271C177.204,162.265 177.79,161.289 178.464,160.332C179.421,158.974 180.677,157.718 181.922,156.672Z" style="fill:rgb(121,121,121);"/>
                    </g>
                    <g transform="matrix(0.964991,0,0,0.964991,10.9613,-6.00853)">
                        <path d="M223.116,191.689C222.829,191.482 220.636,189.905 219.512,189.2C217.995,188.248 216.532,187.855 215.511,187.872C215.411,187.874 214.537,187.903 213.239,188.51C210.961,189.577 202.233,193.912 198.106,196.051C197.788,195.651 197.464,195.26 197.212,194.99C196.517,194.247 195.769,193.676 195.035,193.31C193.993,192.791 192.228,192.156 190.581,191.376C189.943,191.074 188.98,190.443 188.773,190.306C188.096,189.106 186.962,188.225 185.216,188.086C184.457,188.026 182.082,188.698 182.082,188.698C182.082,188.698 182.173,188.671 182.212,188.661C173.952,190.753 172.34,194.594 169.06,201.268C168.025,203.373 168.894,205.922 170.999,206.957C173.104,207.991 175.653,207.122 176.688,205.017C178.6,201.128 179.2,198.433 183.636,197.087C183.947,197.336 184.282,197.574 184.637,197.802C186.603,199.062 189.403,200.048 190.991,200.796C191.311,201.215 193.158,203.605 194.015,204.282C195.345,205.333 196.74,205.631 198.024,205.459C198.842,205.349 199.692,205.051 200.509,204.392L200.519,204.387C202.695,203.188 211.65,198.718 215.55,196.828C216.306,197.361 217.39,198.119 218.043,198.549C218.984,199.17 219.876,199.602 220.586,199.807C226.392,201.483 232.462,202.861 238.494,203.86C251.549,206.024 267.94,204.434 277.888,196.587C279.494,197.521 281.595,198.724 281.944,198.839C288.851,201.128 296.467,205.416 303.727,206.339C306.426,206.683 310.209,205.629 313.253,203.431C313.984,202.903 314.665,202.315 315.281,201.68C318.176,202.976 321.449,203.664 325.063,203.191C327.797,202.833 335.829,199.647 340.348,197.607C340.846,198.176 341.426,198.797 341.852,199.139C343.036,200.085 344.346,200.567 345.721,200.567C348.066,200.567 349.971,198.662 349.971,196.317C349.971,194.401 348.7,192.779 346.956,192.25C346.513,191.712 345.46,190.455 344.874,189.947C342.933,188.261 340.847,187.894 338.618,189.027C335.721,190.501 326.708,194.403 323.959,194.763C322.205,194.992 320.607,194.679 319.167,194.099C318.897,193.329 318.407,191.948 318.305,191.756C317.3,189.869 315.755,189.583 315.032,189.495C313.575,189.318 311.678,189.555 310.603,192.041C310.496,192.287 310.233,192.885 310.233,193.967C310.233,195.042 309.232,195.85 308.276,196.54C307.135,197.365 305.812,198.036 304.799,197.907C298.156,197.063 291.249,193.023 284.911,190.871C284.26,190.478 279.81,187.808 278.874,187.479C276.36,186.596 274.792,187.905 274.221,188.486C266.428,196.413 251.473,197.395 239.884,195.475C234.237,194.539 228.556,193.254 223.116,191.689ZM195.553,197.483C195.35,197.613 195.15,197.776 194.954,197.975C195.021,197.907 195.216,197.724 195.553,197.483Z" style="fill:rgb(121,121,121);"/>
                    </g>
                    <g transform="matrix(0.964991,0,0,0.964991,10.9613,-6.00853)">
                        <path d="M164.849,233.618C162.531,233.967 160.156,234.079 158.315,235.016C156.224,236.079 155.39,238.64 156.453,240.731C157.517,242.822 160.077,243.656 162.168,242.592C162.769,242.286 163.513,242.284 164.265,242.208C165.247,242.108 166.252,242.018 167.228,241.839C167.636,241.764 170.366,240.929 170.893,240.745C171.752,240.445 172.166,240.067 172.236,240.01C172.655,239.671 172.96,239.319 173.183,238.974C174.388,240.538 176.226,241.996 177.167,242.937C177.412,243.182 178.534,244.387 180.748,244.159C181.226,244.11 183.786,243.75 184.478,243.652C187.526,244.74 190.756,246.561 194.135,247.84C198.661,249.553 203.403,250.361 208.286,248.715C210.412,247.998 211.444,246.998 212.041,246.143C212.671,245.24 212.972,244.295 213.019,243.279C215.408,243.633 217.922,243.894 220.291,243.894C225.301,243.894 230.308,244.398 235.339,244.398C235.639,244.398 236.742,244.362 237.777,244.326C237.929,244.935 238.087,245.491 238.209,245.736C239.03,247.377 240.757,248.816 243.191,249.616C246.602,250.738 251.662,250.69 253.759,250.326C257.485,249.68 260.717,247.995 263.971,246.315C265.047,246.729 267.058,247.491 267.568,247.608C271.756,248.571 277.793,248.26 281.885,247.228C284.16,246.655 286.207,245.505 288.19,244.172C290.119,242.875 291.934,241.288 294.21,240.684C294.299,240.708 294.563,240.781 294.71,240.845C294.983,240.964 295.251,241.113 295.515,241.275C296.842,242.088 298.058,243.177 299.007,243.887C303.613,247.332 312.246,248.609 317.778,247.214C320.937,246.417 323.557,244.901 326.108,243.283C328.002,242.082 329.839,240.802 332.049,240.057C336.066,238.702 340.493,239.964 343.8,241.06C346.239,241.868 349.23,241.819 352.311,241.311C355.585,240.772 358.985,239.649 361.409,239.649C363.754,239.649 365.659,237.744 365.659,235.399C365.659,233.053 363.754,231.149 361.409,231.149C359.012,231.149 355.791,231.963 352.539,232.625C350.371,233.066 348.183,233.558 346.474,232.992C341.66,231.396 335.182,230.03 329.333,232.002C326.459,232.971 324.019,234.543 321.556,236.105C319.75,237.25 317.936,238.408 315.7,238.972C312.289,239.832 306.938,239.204 304.097,237.08C302.694,236.03 300.773,234.369 298.761,233.36C296.612,232.282 294.351,231.878 292.213,232.419C289.389,233.134 286.951,234.703 284.578,236.343C283.044,237.403 281.571,238.542 279.807,238.986C276.889,239.722 272.602,240.013 269.583,239.348C269.23,239.202 266.131,237.934 264.838,237.693C263.313,237.409 262.107,237.721 261.362,238.099C258.43,239.591 255.649,241.371 252.306,241.951C251.359,242.116 249.456,242.155 247.661,241.922C247.097,241.849 246.312,241.629 245.815,241.477C245.678,240.758 245.473,239.771 245.311,239.3C244.984,238.353 244.498,237.683 244.078,237.263C243.553,236.738 242.49,236.021 240.862,235.818C239.287,235.621 236.085,235.898 235.339,235.898C230.308,235.898 225.301,235.394 220.291,235.394C217.834,235.394 215.196,235.04 212.792,234.642C212.499,234.594 212.248,234.586 212.017,234.47C212.259,234.591 212.594,234.95 212.919,235.353C211.01,234.276 206.843,232.602 205.756,235.402C205.275,236.045 204.544,237.068 204.389,237.542C204.033,238.628 204.035,239.922 204.144,241.011C201.736,241.395 199.402,240.745 197.145,239.89C193.477,238.502 189.973,236.516 186.686,235.421C186.186,235.254 185.41,235.112 184.456,235.133C183.697,235.15 182.486,235.304 181.499,235.449L180.984,234.997C180.682,234.725 180.343,234.465 180.132,234.166C179.989,233.606 179.599,232.136 179.324,231.601C178.615,230.22 177.548,229.535 176.629,229.228C175.185,228.747 173.398,228.728 171.621,229.18C169.429,229.737 167.293,231.003 166.126,232.19C165.988,232.33 165.375,232.978 164.849,233.618ZM213.983,237.318L213.969,237.488L213.976,237.424L213.983,237.318ZM213.985,237.282C213.989,237.211 213.991,237.135 213.991,237.052L213.985,237.282Z" style="fill:rgb(121,121,121);"/>
                    </g>
                    <g transform="matrix(0.964991,0,0,0.964991,10.9613,16.0768)">
                        <path d="M163.138,254.406L163.189,254.591C164.059,257.528 165.549,260.531 172.383,262.797C175.548,263.845 178.673,263.27 181.783,261.815C184.413,260.585 187.017,258.51 189.775,257.568C190.77,258.031 193.527,259.298 194.625,259.662C198.52,260.952 204.338,260.233 208.647,260.169C209.099,260.474 210.346,261.328 211.219,261.985C213.024,263.344 215.004,264.74 216.811,265.483C220.043,266.813 222.968,266.468 225.236,264.16C225.958,263.426 226.978,263.631 228.007,263.76C229.464,263.943 230.983,264.35 232.462,264.698C236.264,265.593 239.885,265.873 242.557,264.514C243.444,264.063 244.729,263.007 246.059,261.749C246.387,261.439 246.8,261.067 247.214,260.703C248.116,261.819 249.016,262.921 249.17,263.076C252.86,266.778 259.666,269.147 264.816,269.147C267.897,269.147 270.526,268.058 272.984,266.823C273.316,266.843 274.417,266.92 275.091,267.021C277.331,267.358 279.651,267.638 281.232,267.317C286.167,266.317 291.003,264.063 295.239,261.919C295.976,262.031 299.614,262.575 300.759,262.575C303.676,262.575 318.343,263.688 322.553,265.198C323.518,265.939 324.886,266.446 326.627,266.399C329.467,266.323 334.6,264.113 335.796,263.811C344.282,261.672 353.377,258.778 361.793,258.778C364.139,258.778 366.043,256.873 366.043,254.528C366.043,252.182 364.139,250.278 361.793,250.278C352.713,250.278 342.873,253.261 333.718,255.569C332.875,255.782 327.919,257.404 326.679,257.811C325.802,257.351 324.595,256.885 323.095,256.541C316.91,255.125 303.652,254.075 300.759,254.075C299.651,254.075 297.512,253.499 295.84,253.414C294.215,253.331 292.812,253.619 291.848,254.11C288.143,255.994 283.903,258.102 279.543,258.986C278.444,259.209 276.752,258.648 275.238,258.46C272.926,258.173 270.835,258.384 269.463,259.081C268.049,259.801 266.599,260.647 264.816,260.647C261.701,260.647 257.544,259.37 255.27,257.152C255.045,256.867 251.904,252.887 251.202,252.19C249.803,250.802 248.385,250.821 247.968,250.828C246.742,250.849 245.025,251.459 243.321,252.79C241.677,254.075 239.815,256.372 238.703,256.938C238.018,257.287 237.15,256.988 236.211,256.814C234.228,256.446 232.094,255.812 230.041,255.469C226.226,254.833 222.675,255.204 219.894,257.538C219.676,257.441 219.422,257.321 219.235,257.212C218.335,256.692 217.421,256.013 216.544,255.354C214.955,254.161 213.446,253.035 212.264,252.446C211.127,251.881 210.085,251.662 209.234,251.662C205.678,251.662 200.626,252.696 197.299,251.593C196.091,251.193 194.074,250.041 192.568,249.493C190.884,248.88 189.405,248.857 188.487,249.089C185.401,249.871 182.411,251.836 179.492,253.442C177.986,254.271 176.586,255.235 175.058,254.728C173.402,254.179 172.37,253.692 171.773,253.042C171.347,252.578 171.291,252.042 171.17,251.522C171.041,250.963 170.922,250.393 170.768,249.815C170.265,247.919 169.455,245.968 167.463,243.976C166.25,242.762 164.224,241.939 161.71,243.314C159.89,244.309 156.671,248.264 156.23,249.162C154.935,251.796 153.089,256.508 153.089,259.293C153.089,261.638 154.993,263.543 157.339,263.543C159.684,263.543 161.589,261.638 161.589,259.293C161.589,257.97 162.388,256.013 163.138,254.406Z" style="fill:rgb(121,121,121);"/>
                    </g>
                    <g transform="matrix(0.964991,0,0,0.964991,11.3785,-6.00853)">
                        <path d="M146.958,118.801C126.323,118.801 132.627,100.268 134.226,92.859C136.399,82.794 139.912,74.346 156.552,74.346L354.583,74.346C371.223,74.346 374.737,82.794 376.909,92.859C378.508,100.268 384.813,118.801 364.178,118.801L146.958,118.801Z" style="fill:rgb(93,48,26);"/>
                    </g>
                    <g transform="matrix(0.964991,0,0,0.964991,11.3785,-14.8807)">
                        <path d="M146.958,118.801C126.323,118.801 135.086,100.268 136.685,92.859C138.857,82.794 139.912,74.346 156.552,74.346L354.583,74.346C371.223,74.346 372.278,82.794 374.45,92.859C376.049,100.268 384.813,118.801 364.178,118.801L146.958,118.801Z" style="fill:rgb(117,61,33);"/>
                    </g>
                </g>
            </g>
        </g>
    </g>
</svg>
