<?xml version="1.0" encoding="UTF-8" standalone="no"?>
<!DOCTYPE svg PUBLIC "-//W3C//DTD SVG 1.1//EN" "http://www.w3.org/Graphics/SVG/1.1/DTD/svg11.dtd">
<svg width="100%" height="100%" viewBox="0 0 512 512" version="1.1" xmlns="http://www.w3.org/2000/svg" xmlns:xlink="http://www.w3.org/1999/xlink" xml:space="preserve" xmlns:serif="http://www.serif.com/" style="fill-rule:evenodd;clip-rule:evenodd;stroke-linejoin:round;stroke-miterlimit:2;">
    <g id="Icon" transform="matrix(1,0,0,1,0,2.34131)">
        <g id="Box" transform="matrix(1,0,0,1,2.11992,-2.81953)">
            <path d="M247.92,325.256L247.92,507.977L77.646,441.384L79.377,343.053L194.818,396.442L247.92,325.256ZM259.841,325.256L259.841,507.977L430.114,441.384L428.383,343.053L312.942,396.442L259.841,325.256ZM241.433,306.804L190.845,378.165L20.341,296.235L74.245,230.259L241.433,306.804ZM266.327,306.804L316.916,378.165L487.419,296.235L433.515,230.259L266.327,306.804Z" style="fill:rgb(161,118,111);fill-rule:nonzero;"/>
        </g>
        <g id="Clip-Window" serif:id="Clip Window" transform="matrix(1.03628,0,0,1.03628,-11.359,-19.0013)">
            <path d="M82.654,223.645L243.988,297.51L268.012,297.51L429.346,223.645L526.106,223.645L526.106,-10.237L-10.014,-10.237L-10.014,223.645L82.654,223.645Z" style="fill:none;"/>
            <clipPath id="_clip1">
                <path d="M82.654,223.645L243.988,297.51L268.012,297.51L429.346,223.645L526.106,223.645L526.106,-10.237L-10.014,-10.237L-10.014,223.645L82.654,223.645Z"/>
            </clipPath>
            <g clip-path="url(#_clip1)">
                <g id="SetupGodot" transform="matrix(0.27043,0,0,0.27043,119.349,20.5993)">
                    <g transform="matrix(1.24896,0,0,1.24896,-96.5621,-30.8441)">
                        <path d="M788.223,566.849C788.223,566.849 794.593,512.619 810.628,480.289C817.437,466.56 832.9,456.779 839.115,456.779C873.823,456.779 873.823,456.779 873.823,566.849C873.823,676.919 873.823,676.919 839.115,676.919C832.9,676.919 817.437,667.139 810.628,653.409C794.593,621.079 788.223,566.849 788.223,566.849Z" style="fill:rgb(103,140,176);"/>
                    </g>
                    <g transform="matrix(1.24896,0,0,1.24896,-154.882,-30.8441)">
                        <path d="M234.38,566.849C234.38,566.849 228.01,512.619 211.975,480.289C205.166,466.56 189.703,456.779 183.488,456.779C148.781,456.779 148.781,456.779 148.781,566.849C148.781,676.919 148.781,676.919 183.488,676.919C189.703,676.919 205.166,667.139 211.975,653.409C228.01,621.079 234.38,566.849 234.38,566.849Z" style="fill:rgb(103,140,176);"/>
                    </g>
                    <g transform="matrix(3.33168,0,0,3.33168,-340.199,-1.80983)">
                        <path d="M143.486,163.548L143.486,138.569C143.486,136.194 143.89,133.913 144.633,131.791C177.78,125.576 215.623,122.051 255.787,122.051C296.115,122.051 334.103,125.604 367.345,131.867C368.164,134.112 368.611,136.535 368.611,139.063L368.611,163.548C365.978,164.983 362.712,167.812 360.966,171.333C354.955,183.453 352.567,203.782 352.567,203.782C352.567,203.782 354.955,224.111 360.966,236.231C362.712,239.753 365.978,242.581 368.611,244.016L368.611,256.32C368.611,281.747 347.968,302.39 322.542,302.39L189.555,302.39C164.129,302.39 143.486,281.747 143.486,256.32L143.486,244.016C146.119,242.581 149.384,239.753 151.131,236.231C157.142,224.111 159.53,203.782 159.53,203.782C159.53,203.782 157.142,183.453 151.131,171.333C149.384,167.812 146.119,164.983 143.486,163.548ZM237.901,277.379L237.901,257.619L196.268,257.619L196.268,271.884L223.637,271.884L223.637,291.644L288.46,291.644L288.46,271.884L315.829,271.884L315.829,257.619L274.196,257.619L274.196,277.379L237.901,277.379ZM327.549,183.697C327.549,174.068 319.731,166.25 310.101,166.25L299.081,166.25C289.452,166.25 281.634,174.068 281.634,183.697L281.634,217.889C281.634,227.518 289.452,235.336 299.081,235.336L310.101,235.336C319.731,235.336 327.549,227.518 327.549,217.889L327.549,183.697ZM229.939,183.837C229.939,174.13 222.059,166.25 212.352,166.25L201.612,166.25C191.905,166.25 184.025,174.13 184.025,183.837L184.025,217.749C184.025,227.456 191.905,235.336 201.612,235.336L212.352,235.336C222.059,235.336 229.939,227.456 229.939,217.749L229.939,183.837Z" style="fill:rgb(103,140,176);"/>
                    </g>
                    <g transform="matrix(1.24896,0,0,1.24896,-126.594,-30.8441)">
                        <path d="M511.302,324.13C413.564,324.13 241.009,344.391 242.391,343.712C281.009,256.665 386.883,194.109 511.302,194.109C635.61,194.109 741.407,256.554 780.109,343.479C781.743,344.251 609.283,324.13 511.302,324.13Z" style="fill:rgb(103,140,176);"/>
                    </g>
                    <g transform="matrix(1.40526,0,0,1.40526,-227.038,-60.967)">
                        <path d="M293.572,224.094C288.427,226.312 282.758,227.542 276.804,227.542C253.39,227.542 234.38,208.533 234.38,185.118C234.38,161.704 253.39,142.695 276.804,142.695C300.218,142.695 319.227,161.704 319.227,185.118C319.227,191.073 317.998,196.742 315.779,201.887L403.319,289.427L381.112,311.633L293.572,224.094Z" style="fill:rgb(103,140,176);"/>
                    </g>
                    <g transform="matrix(1.40526,0,0,1.40526,-185.989,-60.967)">
                        <path d="M706.824,201.887C704.606,196.742 703.376,191.073 703.376,185.118C703.376,161.704 722.386,142.695 745.8,142.695C769.214,142.695 788.223,161.704 788.223,185.118C788.223,208.533 769.214,227.542 745.8,227.542C739.845,227.542 734.176,226.312 729.031,224.094L646.437,306.688L624.231,284.481L706.824,201.887Z" style="fill:rgb(103,140,176);"/>
                    </g>
                    <g transform="matrix(1.40526,0,0,1.40526,-206.514,-106.265)">
                        <path d="M495.599,170.505C490.392,168.436 485.514,165.296 481.304,161.086C464.747,144.53 464.747,117.647 481.304,101.09C497.86,84.534 524.743,84.534 541.299,101.09C557.856,117.647 557.856,144.53 541.299,161.086C537.089,165.296 532.211,168.436 527.004,170.505L527.004,321.661L495.599,321.661L495.599,170.505Z" style="fill:rgb(103,140,176);"/>
                    </g>
                </g>
            </g>
        </g>
    </g>
</svg>
