<svg clip-rule="evenodd" fill-rule="evenodd" stroke-linejoin="round" stroke-miterlimit="2" viewBox="0 0 512 512" xmlns="http://www.w3.org/2000/svg" xmlns:xlink="http://www.w3.org/1999/xlink"><clipPath id="a"><path clip-rule="evenodd" d="m82.654 223.645 161.334 73.865h24.024l161.334-73.865h96.76v-233.882h-536.12v233.882z"/></clipPath><path d="m247.92 325.256v182.721l-170.274-66.593 1.731-98.331 115.441 53.389zm11.921 0v182.721l170.273-66.593-1.731-98.331-115.441 53.389zm-18.408-18.452-50.588 71.361-170.504-81.93 53.904-65.976zm24.894 0 50.589 71.361 170.503-81.93-53.904-65.976z" fill="#c7a172" fill-rule="nonzero" transform="translate(2.11992 -.47822)"/><g transform="matrix(1.03628 0 0 1.03628 -11.359 -16.65999)"><path d="m82.654 223.645 161.334 73.865h24.024l161.334-73.865h96.76v-233.882h-536.12v233.882z" fill="none"/><g clip-path="url(#a)" fill="#678cb0"><path d="m788.223 566.849s6.37-54.23 22.405-86.56c6.809-13.729 22.272-23.51 28.487-23.51 34.708 0 34.708 0 34.708 110.07s0 110.07-34.708 110.07c-6.215 0-21.678-9.78-28.487-23.51-16.035-32.33-22.405-86.56-22.405-86.56z" transform="matrix(.3377562528 0 0 .3377562528 93.235711297 12.258130037)"/><path d="m234.38 566.849s-6.37-54.23-22.405-86.56c-6.809-13.729-22.272-23.51-28.487-23.51-34.707 0-34.707 0-34.707 110.07s0 110.07 34.707 110.07c6.215 0 21.678-9.78 28.487-23.51 16.035-32.33 22.405-86.56 22.405-86.56z" transform="matrix(.3377562528 0 0 .3377562528 77.46426074 12.258130037)"/><path d="m143.486 163.548v-24.979c0-2.375.404-4.656 1.147-6.778 33.147-6.215 70.99-9.74 111.154-9.74 40.328 0 78.316 3.553 111.558 9.816.819 2.245 1.266 4.668 1.266 7.196v24.485c-2.633 1.435-5.899 4.264-7.645 7.785-6.011 12.12-8.399 32.449-8.399 32.449s2.388 20.329 8.399 32.449c1.746 3.522 5.012 6.35 7.645 7.785v12.304c0 25.427-20.643 46.07-46.069 46.07h-132.987c-25.426 0-46.069-20.643-46.069-46.07v-12.304c2.633-1.435 5.898-4.263 7.645-7.785 6.011-12.12 8.399-32.449 8.399-32.449s-2.388-20.329-8.399-32.449c-1.747-3.521-5.012-6.35-7.645-7.785zm94.415 113.831v-19.76h-41.633v14.265h27.369v19.76h64.823v-19.76h27.369v-14.265h-41.633v19.76zm89.648-93.682c0-9.629-7.818-17.447-17.448-17.447h-11.02c-9.629 0-17.447 7.818-17.447 17.447v34.192c0 9.629 7.818 17.447 17.447 17.447h11.02c9.63 0 17.448-7.818 17.448-17.447zm-97.61.14c0-9.707-7.88-17.587-17.587-17.587h-10.74c-9.707 0-17.587 7.88-17.587 17.587v33.912c0 9.707 7.88 17.587 17.587 17.587h10.74c9.707 0 17.587-7.88 17.587-17.587z" transform="matrix(.9009862224 0 0 .9009862224 27.34898443 20.1098676731)"/><path d="m511.302 324.13c-97.738 0-270.293 20.261-268.911 19.582 38.618-87.047 144.492-149.603 268.911-149.603 124.308 0 230.105 62.445 268.807 149.37 1.634.772-170.826-19.349-268.807-19.349z" transform="matrix(.3377562528 0 0 .3377562528 85.11418458 12.258130037)"/><path d="m293.572 224.094c-5.145 2.218-10.814 3.448-16.768 3.448-23.414 0-42.424-19.009-42.424-42.424 0-23.414 19.01-42.423 42.424-42.423s42.423 19.009 42.423 42.423c0 5.955-1.229 11.624-3.448 16.769l87.54 87.54-22.207 22.206z" transform="matrix(.3800244618 0 0 .3800244618 57.95111366 4.11199419)"/><path d="m706.824 201.887c-2.218-5.145-3.448-10.814-3.448-16.769 0-23.414 19.01-42.423 42.424-42.423s42.423 19.009 42.423 42.423c0 23.415-19.009 42.424-42.423 42.424-5.955 0-11.624-1.23-16.769-3.448l-82.594 82.594-22.206-22.207z" transform="matrix(.3800244618 0 0 .3800244618 69.05199473 4.11199419)"/><path d="m495.599 170.505c-5.207-2.069-10.085-5.209-14.295-9.419-16.557-16.556-16.557-43.439 0-59.996 16.556-16.556 43.439-16.556 59.995 0 16.557 16.557 16.557 43.44 0 59.996-4.21 4.21-9.088 7.35-14.295 9.419v151.156h-31.405z" transform="matrix(.3800244618 0 0 .3800244618 63.50141898 -8.13794395)"/></g></g></svg>