<svg clip-rule="evenodd" fill-rule="evenodd" stroke-linecap="round" stroke-linejoin="round" stroke-miterlimit="1.5" viewBox="0 0 512 512" xmlns="http://www.w3.org/2000/svg" xmlns:xlink="http://www.w3.org/1999/xlink"><clipPath id="a"><path clip-rule="evenodd" d="m82.654 223.645 161.334 73.865h24.024l161.334-73.865h96.76v-233.882h-536.12v233.882z"/></clipPath><clipPath id="b"><path clip-rule="evenodd" d="m273.221 78.698c61.553 0 142.068 70.948 142.068 182.482 0 63.241-45.749 134.189-142.068 134.189s-142.067-70.948-142.067-134.189c0-111.534 80.514-182.482 142.067-182.482z"/></clipPath><path d="m247.92 325.256v182.721l-170.274-66.593 1.731-98.331 115.441 53.389zm11.921 0v182.721l170.273-66.593-1.731-98.331-115.441 53.389zm-18.408-18.452-50.588 71.361-170.504-81.93 53.904-65.976zm24.894 0 50.589 71.361 170.503-81.93-53.904-65.976z" fill="#c7a172" fill-rule="nonzero" transform="translate(2.11992 -.47822)"/><g transform="matrix(1.03628 0 0 1.03628 -11.359 -16.65999)"><path d="m82.654 223.645 161.334 73.865h24.024l161.334-73.865h96.76v-233.882h-536.12v233.882z" fill="none"/><g clip-path="url(#a)"><g transform="matrix(.794693 0 0 .846289 42.5265 3.64856)"><path d="m273.221 78.698c61.553 0 142.068 70.948 142.068 182.482 0 63.241-45.749 134.189-142.068 134.189s-142.067-70.948-142.067-134.189c0-111.534 80.514-182.482 142.067-182.482z" fill="#fff"/><g clip-path="url(#b)"><path d="m353.999 59.922s64.585 161.643-28.934 231.722c-56.332 42.212-155.154 54.305-266.231 34.054-18.361-3.348 104.484 123.371 104.484 123.371l326.221-74.215-82.715-314.932z" fill="#e2e2e2" transform="matrix(1.06493 0 0 1 .548465 42.1946)"/><ellipse cx="256.277" cy="133.986" fill="#5b5b5b" rx="9.806" ry="15.563" transform="matrix(.93985227607 -.26135676164 .221244 1.09722 40.84690505336 132.39386352)"/><ellipse cx="256.277" cy="133.986" fill="#5b5b5b" rx="9.806" ry="15.563" transform="matrix(.93985227607 -.26135676164 .221244 1.09722 88.4269234874 119.1626623752)"/><path d="m211.88 229.781s13.957-11.713 23.763-9.495 11.573 14.247 29.666 14.247c7.492 0 16.004-4.752 21.96-14.247" fill="none" stroke="#787878" stroke-width="6" transform="matrix(.916569 -.376826 .221244 1.09722 67.40771902004 119.45386090808)"/></g><path d="m273.221 71.857c-26.161 0-55.655 11.832-81.499 33.89-37.726 32.201-67.854 86.233-67.854 155.433 0 66.475 48.109 141.03 149.353 141.03 101.245 0 149.353-74.555 149.353-141.03 0-69.2-30.127-123.232-67.854-155.433-25.844-22.058-55.338-33.89-81.499-33.89zm0 6.841c61.553 0 142.068 70.948 142.068 182.482 0 63.241-45.749 134.189-142.068 134.189s-142.067-70.948-142.067-134.189c0-111.534 80.514-182.482 142.067-182.482z" fill="#a5a5a5"/></g><g transform="matrix(-.541976 -.541976 .541976 -.541976 138.745 383.508)"><g fill="#787878"><path d="m314.469 215.602h-11.559c-2.867 0-6.343 0-6.343 5.532 0 5.531 3.476 5.531 6.343 5.531h11.559v33.894c0 2.867 0 6.343 5.531 6.343s5.531-3.476 5.531-6.343v-33.894h27.563v6.661c0 .886 0 1.961 5.531 1.961 5.532 0 5.532-1.075 5.532-1.961v-6.661h17.604c2.867 0 6.343 0 6.343-5.531 0-5.532-3.476-5.532-6.343-5.532h-17.604v-6.661c0-.886 0-1.961-5.532-1.961-5.531 0-5.531 1.075-5.531 1.961v6.661h-27.563v-33.894c0-2.867 0-6.343-5.531-6.343s-5.531 3.476-5.531 6.343z"/><path d="m180.627 211.124h-88.641l-7.765 10.01h96.406z" transform="matrix(1 0 0 .619513 37.7253 87.2392)"/><path d="m363.267 146.88c-15.032 0-27.236 12.204-27.236 27.236s12.204 27.236 27.236 27.236 27.236-12.204 27.236-27.236-12.204-27.236-27.236-27.236zm0 7.83c10.71 0 19.406 8.695 19.406 19.406 0 10.71-8.696 19.406-19.406 19.406s-19.406-8.696-19.406-19.406c0-10.711 8.696-19.406 19.406-19.406z" transform="matrix(.893983 0 0 .893983 33.8709 32.5239)"/><path d="m363.267 146.88c-15.032 0-27.236 12.204-27.236 27.236s12.204 27.236 27.236 27.236 27.236-12.204 27.236-27.236-12.204-27.236-27.236-27.236zm0 7.83c10.71 0 19.406 8.695 19.406 19.406 0 10.71-8.696 19.406-19.406 19.406s-19.406-8.696-19.406-19.406c0-10.711 8.696-19.406 19.406-19.406z" transform="matrix(.893983 0 0 .893983 81.0566 65.4771)"/><path d="m363.267 146.88c-15.032 0-27.236 12.204-27.236 27.236s12.204 27.236 27.236 27.236 27.236-12.204 27.236-27.236-12.204-27.236-27.236-27.236zm0 7.83c10.71 0 19.406 8.695 19.406 19.406 0 10.71-8.696 19.406-19.406 19.406s-19.406-8.696-19.406-19.406c0-10.711 8.696-19.406 19.406-19.406z" transform="matrix(.893983 0 0 .893983 33.8709 98.4303)"/><path d="m321.978 221.134c0-18.48-5.99-23.697-10.932-23.697h-135.895c-4.942 0-10.932 7.247-10.932 23.697 0 16.449 5.99 23.697 10.932 23.697h135.895c4.942 0 10.932-5.218 10.932-23.697z"/></g><path d="m175.442 203.986h124.208c.662 0 1.099.709 1.666 1.677 1.737 2.969 2.716 7.881 2.716 15.471 0 7.589-.979 12.501-2.716 15.47-.567.969-1.004 1.677-1.666 1.677h-124.208c-.247-.234-1.321-1.28-1.863-2.273-1.743-3.186-2.81-8.099-2.81-14.874 0-6.776 1.067-11.689 2.81-14.875.542-.993 1.616-2.039 1.863-2.273z" fill="#e1e1e1"/><path d="m190.13 218.033s-.675-.585-3.612-.585c-2.938 0-3.613.585-3.613.585s-1.103 3.101-1.103 9.831c0 6.931 1.103 10.417 1.103 10.417h7.225s-1.103-3.486-1.103-10.417c0-6.73 1.103-9.831 1.103-9.831zm82.295 0s-.675-.585-3.612-.585c-2.938 0-3.613.585-3.613.585s-1.103 3.101-1.103 9.831c0 6.931 1.103 10.417 1.103 10.417h7.225s-1.103-3.486-1.103-10.417c0-6.73 1.103-9.831 1.103-9.831zm20.574 0s-.675-.585-3.613-.585c-2.937 0-3.612.585-3.612.585s-1.103 3.101-1.103 9.831c0 6.931 1.103 10.417 1.103 10.417h7.225s-1.103-3.486-1.103-10.417c0-6.73 1.103-9.831 1.103-9.831zm-61.721 0s-.675-.585-3.613-.585c-2.937 0-3.612.585-3.612.585s-1.104 3.101-1.104 9.831c0 6.931 1.104 10.417 1.104 10.417h7.225s-1.103-3.486-1.103-10.417c0-6.73 1.103-9.831 1.103-9.831zm-20.574 0s-.675-.585-3.613-.585c-2.937 0-3.612.585-3.612.585s-1.103 3.101-1.103 9.831c0 6.931 1.103 10.417 1.103 10.417h7.225s-1.103-3.486-1.103-10.417c0-6.73 1.103-9.831 1.103-9.831zm41.147 0s-.674-.585-3.612-.585-3.613.585-3.613.585-1.103 3.101-1.103 9.831c0 6.931 1.103 10.417 1.103 10.417h7.225s-1.103-3.486-1.103-10.417c0-6.73 1.103-9.831 1.103-9.831z" fill="#787878"/></g></g></g></svg>