<svg clip-rule="evenodd" fill-rule="evenodd" stroke-linecap="round" stroke-linejoin="round" stroke-miterlimit="1.5" viewBox="0 0 512 512" xmlns="http://www.w3.org/2000/svg" xmlns:xlink="http://www.w3.org/1999/xlink"><clipPath id="a"><path clip-rule="evenodd" d="m488.873 158.426c0-49.832-40.4-90.29-90.161-90.29h-203.793c-49.761 0-90.161 40.458-90.161 90.29v203.536c0 49.832 40.4 90.289 90.161 90.289h203.793c49.761 0 90.161-40.457 90.161-90.289z"/></clipPath><clipPath id="b"><path clip-rule="evenodd" d="m0 0h647v940h-647z"/></clipPath><path d="m488.873 164.165c0-53-43.023-96.029-96.016-96.029h-192.083c-52.993 0-96.016 43.029-96.016 96.029v192.058c0 52.999 43.023 96.028 96.016 96.028h192.083c52.993 0 96.016-43.029 96.016-96.028z" stroke="#fff" stroke-width="5.81" transform="matrix(1.2907965268 0 0 1.2906186132 -127.127770724 -79.811648804)"/><g transform="matrix(1.09970731276 0 0 1.09813611328 -70.410027004 -29.72810752304)"><path d="m488.873 158.426c0-49.832-40.4-90.29-90.161-90.29h-203.793c-49.761 0-90.161 40.458-90.161 90.29v203.536c0 49.832 40.4 90.289 90.161 90.289h203.793c49.761 0 90.161-40.457 90.161-90.289z" fill="#323232"/><g clip-path="url(#a)"><g clip-path="url(#b)" transform="matrix(.523858 0 0 .524607 127.347937 106.47671)"><path d="m706.409 687.974c-45.51-9.649-120.471-2.476-151.74 31.969-21.166 23.316-14.805 72.158-17.111 103.563-3.316 45.144-21.993 113.507 3.602 150.841 57.999 84.603 226.333 87.613 328.698 94.103 24.535 1.56 62.115 6.57 81.5-8.55 33.139-25.85 49.132-93.916 38.722-134.632-14.373-56.205-96.842-94.761-141.384-131.93-40.761-34.012-90.326-94.347-142.287-105.364z" fill="#424242" transform="translate(-473.173 -426.392)"/><path d="m562.89 854.937c-.567.9 10.747 15.763 17.27 20.444 6.512 4.671 16.966 8.37 24.853 9.795 8.069 1.458 19.415 1.638 27.326-.515 2.778-.755 6.583-2.24 8.56-4.331 6.332-6.7 11.537-28.116 9.852-29.106-1.348-.791-6.023 3.955-8.765 5.363-6.123 3.143-14.453 7.549-21.245 8.662-9.186 1.505-21.78-.698-30.936-2.371-8.081-1.477-26.321-8.884-26.915-7.941z" fill="#c96e3d" transform="translate(-473.173 -426.392)"/><path d="m561.623 844.452c-1.106-3.418 13.788-16.828 21.821-21.129 7.489-4.01 19.155-5.9 27.646-6.121 7.258-.189 17.609.214 23.894 3.85 6.086 3.522 15.015 15.712 14.81 18.167-.154 1.843-8.42 7.399-15.797 10.071-6.554 2.374-15.918 4.057-22.907 4.345-12.165.501-28.565-1.635-40.284-4.938-2.965-.835-8.815-3.107-9.183-4.245z" fill="#ffaa5e" transform="translate(-473.173 -426.392)"/><path d="m567.505 616.243c-7.192 5.219-16.819 12.278-23.018 18.646-14.868 15.271-33.113 37.925-42.013 57.291-18.704 40.7-28.92 101.618-29.282 146.409-.589 72.879 12.178 174.821 48.379 238.071 20.617 36.03 62.719 77.11 99.726 95.91 46.222 23.48 118.966 32.28 170.596 27.58 58.197-5.29 139.435-27.59 183.12-66.41 43.297-38.47 63.587-119.38 86.847-172.42 3.41-7.784 10.31-26.364 10.34-26.376.02-.011 19.35 10.923 26.27 10.051 5.08-.639 15.04-5.6 17.23-11.398 1.67-4.43-.52-11.749-3.55-15.381-2.75-3.277-8.87-4.79-13.04-5.738-5.62-1.279-19.2-.384-19.21-.403 0-.02 13.29-7.568 18.46-11.562 4.67-3.605 10.89-8.664 14.34-13.454 2.76-3.85 8.16-9.806 6.69-14.315-1.72-5.292-10.98-7.78-16.51-8.46-3.32-.41-7.93.705-10.95 2.149-6.18 2.955-16.91 15.352-16.93 15.338-.01-.008 2.42-9.373 2.14-13.448-.2-2.829-.57-7.124-2.62-9.08-2.13-2.029-6.72-3.011-9.55-2.225-5.56 1.542-10.85 8.963-12.72 14.418-3.28 9.526 3.65 33.355 3.63 33.382-.01.017-21.57 4.659-21.59 4.656-.04-.003-20.75-7.723-27.86-13.75-16.402-13.914-32.95-39.434-39.256-60-4.715-15.383-.175-37.587-1.702-53.603-2.563-26.871-5.205-63.518-14.792-88.75-12.22-32.164-35.81-74.165-61.985-96.498-22.809-19.462-62.102-33.678-91.215-40.854-12.77-3.148-30.532-4.486-43.67-3.873-29.641 1.381-68.372 11.741-96.85 20.073-15.145 4.431-35.193 11.257-49.307 18.314-12.792 6.397-28.573 17.309-40.148 25.71zm315.16 263.25c3.524 4.98 8.082 14.579 11.665 19.523 8.319 11.479 20.528 25.952 29.834 36.645 5.062 5.816 14.19 14.253 17.433 18.885.675.964 3.156 3.712 2.6 4.676-.74 1.281-5.075-.35-7.082-.64-4.89-.707-13.671-5.9-16.955-3.56-.738.527-.522 4.795-.129 6.796.958 4.889 5.771 10.198 7.163 14.981 1.075 3.696 4.459 10.097 1.646 12.724-3.461 3.232-10.668-2.877-15.26-4.036-2.645-.667-6.772-3.917-8.838-2.135-1.648 1.42-.112 5.097.219 7.247.525 3.401 2.33 7.686 3.254 11.001 1.475 5.29 3.878 12.28 4.611 17.73.789 5.85 5.01 16.22.227 19.69-13.666 9.91-28.726-27.16-39.072-40.497-17.127-22.085-46.613-71.706-54.47-88.943 5.677 16.141 27.534 76.298 43.602 101.17 7.864 12.17 18.996 29.53 31.76 36.39 7.101 3.81 19.594 8.84 26.467 4.63 4.873-2.99 6.414-12.15 6.617-17.86.281-7.91-5.343-17.68-7.94-25.15-1.113-3.2-3.977-10.577-3.97-10.586.016-.02 14.386 11.296 21.836 12.576 2.894.49 7.469.68 9.713-1.22 2.574-2.17 3.394-7.45 3.041-10.806-.628-5.964-7.252-11.972-10.136-17.23-2.354-4.292-7.447-14.52-7.433-14.528.01-.005 5.58 6.317 8.784 7.77 4.179 1.896 11.115 3.773 15.204 1.689 2.479-1.263 5.044-4.987 5.067-7.769.065-7.839-11.74-14.026-16.892-19.934-16.908-19.384-55.077-61.111-62.566-69.229z" fill="#ffdf5e" transform="translate(-473.173 -426.392)"/><path d="m567.473 594.884c-.009-.002-5.118-3.715-7.133-5.522-16.776-15.044-43.046-34.238-50.677-55.441-3.937-10.939-7.199-29.625 0-38.754 3.875-4.914 13.532-6.589 19.79-6.597 7.588-.011 17.259 4.596 23.912 8.245 11.248 6.169 32.954 27.243 32.984 27.212.023-.025-13.991-19.809-16.492-29.685-2.976-11.753-2.813-28.839.824-40.404 2.738-8.706 8.469-21.214 16.492-25.562 5.007-2.714 13.462-2.292 18.965-.825 5.371 1.433 11.923 5.785 15.667 9.895 5.364 5.889 8.868 16.41 11.543 23.913 2.479 6.951 5.75 23.92 5.773 23.913.019-.006-2.008-14.305-.439-20.142 1.481-5.513 6.26-11.841 9.842-16.286 4.352-5.401 10.705-12.639 16.878-15.802 7.701-3.945 19.82-6.546 28.369-5.206 3.047.478 7.023 2.268 9.336 4.309 9.179 8.095 11.991 26.016 18.674 36.269 1.111 1.706 4.113 5.388 4.13 5.387.034-.004.036-10.152 1.795-14.005 3.701-8.109 13.287-16.435 20.828-21.187 3.605-2.273 9.124-5.941 13.287-5.028 4.913 1.078 8.831 7.94 11.491 12.21 2.767 4.441 6.088 16.333 6.105 16.339.01.004 7.227-3.573 10.593-4.13 4.631-.767 11.52-1.386 15.621.898 5.573 3.105 10.381 11.528 11.671 17.775 3.06 14.822-5.703 35.292-12.244 48.94-.547 1.141-1.675 2.433-2.347 3.505-1.177 1.88-3.706 6.392-3.711 6.396-.113.091-61.016-4.068-143.341 20.038-54.923 16.082-88.092 39.353-88.186 39.332z" fill="#ff4949" transform="translate(-473.173 -426.392)"/></g><g fill-rule="nonzero" transform="matrix(1.01114 0 0 1.01259 -94.2227 45.5251)"><path d="m268.212 217.149h12.518v12.518h-12.518z"/><path d="m318.906 217.149h12.518v12.518h-12.518z"/><path d="m310.665 307.227-44.77-19.467v-10.78l44.77-19.378v12.696l-31.227 11.938 31.227 12.384z"/><path d="m314.095 324.6h52.03v8.107h-52.03z"/></g></g></g></svg>