<?xml version="1.0" encoding="UTF-8" standalone="no"?>
<!DOCTYPE svg PUBLIC "-//W3C//DTD SVG 1.1//EN" "http://www.w3.org/Graphics/SVG/1.1/DTD/svg11.dtd">
<svg width="100%" height="100%" viewBox="0 0 512 512" version="1.1" xmlns="http://www.w3.org/2000/svg" xmlns:xlink="http://www.w3.org/1999/xlink" xml:space="preserve" xmlns:serif="http://www.serif.com/" style="fill-rule:evenodd;clip-rule:evenodd;stroke-linecap:round;stroke-linejoin:round;">
    <g transform="matrix(1,0,0,1,5.68434e-13,0.525718)">
        <g id="page" transform="matrix(3.47341,0,0,3.47341,1506.43,-801.7)">
            <path d="M-412,236.362L-308,236.362L-308,372.362L-391.098,372.362L-412,349.941L-412,236.362Z" style="fill:white;fill-rule:nonzero;stroke:black;stroke-width:3.75px;"/>
        </g>
        <g transform="matrix(0.418146,0,0,0.418146,5.22398,7.07919)">
            <g transform="matrix(1,0,0,1,276.5,130)">
                <path d="M94.332,189.851C87.14,195.07 77.513,202.129 71.314,208.497C56.446,223.768 38.201,246.422 29.301,265.788C10.597,306.488 0.381,367.406 0.019,412.197C-0.57,485.076 12.197,587.018 48.398,650.268C69.015,686.298 111.117,727.378 148.124,746.178C194.346,769.658 267.09,778.458 318.72,773.758C376.917,768.468 458.155,746.168 501.84,707.348C545.137,668.878 565.427,587.968 588.687,534.928C592.097,527.144 598.997,508.564 599.027,508.552C599.047,508.541 618.377,519.475 625.297,518.603C630.377,517.964 640.337,513.003 642.527,507.205C644.197,502.775 642.007,495.456 638.977,491.824C636.227,488.547 630.107,487.034 625.937,486.086C620.317,484.807 606.737,485.702 606.727,485.683C606.727,485.663 620.017,478.115 625.187,474.121C629.857,470.516 636.077,465.457 639.527,460.667C642.287,456.817 647.687,450.861 646.217,446.352C644.497,441.06 635.237,438.572 629.707,437.892C626.387,437.482 621.777,438.597 618.757,440.041C612.577,442.996 601.847,455.393 601.827,455.379C601.817,455.371 604.247,446.006 603.967,441.931C603.767,439.102 603.397,434.807 601.347,432.851C599.217,430.822 594.627,429.84 591.797,430.626C586.237,432.168 580.947,439.589 579.077,445.044C575.797,454.57 582.727,478.399 582.707,478.426C582.697,478.443 561.137,483.085 561.117,483.082C561.077,483.079 540.367,475.359 533.257,469.332C516.855,455.418 500.307,429.898 494.001,409.332C489.286,393.949 493.826,371.745 492.299,355.729C489.736,328.858 487.094,292.211 477.507,266.979C465.287,234.815 441.697,192.814 415.522,170.481C392.713,151.019 353.42,136.803 324.307,129.627C311.537,126.479 293.775,125.141 280.637,125.754C250.996,127.135 212.265,137.495 183.787,145.827C168.642,150.258 148.594,157.084 134.48,164.141C121.688,170.538 105.907,181.45 94.332,189.851Z" style="fill:white;stroke:black;stroke-width:15px;stroke-linecap:butt;stroke-miterlimit:2;"/>
            </g>
            <g transform="matrix(1,0,0,1,276.5,130)">
                <path d="M409.492,453.101C413.016,458.081 417.574,467.68 421.157,472.624C429.476,484.103 441.685,498.576 450.991,509.269C456.053,515.085 465.181,523.522 468.424,528.154C469.099,529.118 471.58,531.866 471.024,532.83C470.284,534.111 465.949,532.48 463.942,532.19C459.052,531.483 450.271,526.29 446.987,528.63C446.249,529.157 446.465,533.425 446.858,535.426C447.816,540.315 452.629,545.624 454.021,550.407C455.096,554.103 458.48,560.504 455.667,563.131C452.206,566.363 444.999,560.254 440.407,559.095C437.762,558.428 433.635,555.178 431.569,556.96C429.921,558.38 431.457,562.057 431.788,564.207C432.313,567.608 434.118,571.893 435.042,575.208C436.517,580.498 438.92,587.488 439.653,592.938C440.442,598.788 444.663,609.158 439.88,612.628C426.214,622.538 411.154,585.468 400.808,572.131C383.681,550.046 354.195,500.425 346.338,483.188C352.015,499.329 373.872,559.486 389.94,584.358C397.804,596.528 408.936,613.888 421.7,620.748C428.801,624.558 441.294,629.588 448.167,625.378C453.04,622.388 454.581,613.228 454.784,607.518C455.065,599.608 449.441,589.838 446.844,582.368C445.731,579.168 442.867,571.791 442.874,571.782C442.89,571.762 457.26,583.078 464.71,584.358C467.604,584.848 472.179,585.038 474.423,583.138C476.997,580.968 477.817,575.688 477.464,572.332C476.836,566.368 470.212,560.36 467.328,555.102C464.974,550.81 459.881,540.582 459.895,540.574C459.905,540.569 465.475,546.891 468.679,548.344C472.858,550.24 479.794,552.117 483.883,550.033C486.362,548.77 488.927,545.046 488.95,542.264C489.015,534.425 477.21,528.238 472.058,522.33C455.15,502.946 416.981,461.219 409.492,453.101Z"/>
            </g>
            <path d="M406.942,510.394C399.797,510.471 389.901,511.546 383.532,514.785C371.867,520.717 353.79,541.339 352.9,545.842C352.452,548.105 356.097,561.125 359.544,566.721C364.729,575.139 375.291,583.873 383.569,589.279C389.685,593.274 398.65,597.936 405.867,599.064C417.459,600.875 435.137,600.885 444.648,594.016C457.545,584.702 468.034,561.28 466.042,545.497C464.761,535.341 454.889,523.233 446.296,517.669C436.219,511.142 418.948,510.265 406.942,510.394ZM366.217,558.545C365.65,559.445 376.964,574.308 383.487,578.989C389.999,583.66 400.453,587.359 408.34,588.784C416.409,590.242 427.755,590.422 435.666,588.269C438.444,587.514 442.249,586.029 444.226,583.938C450.558,577.238 455.763,555.822 454.078,554.832C452.73,554.041 448.055,558.787 445.313,560.195C439.19,563.338 430.86,567.744 424.068,568.857C414.882,570.362 402.288,568.159 393.132,566.486C385.051,565.009 366.811,557.602 366.217,558.545ZM364.95,548.06C363.844,544.642 378.738,531.232 386.771,526.931C394.26,522.921 405.926,521.031 414.417,520.81C421.675,520.621 432.026,521.024 438.311,524.66C444.397,528.182 453.326,540.372 453.121,542.827C452.967,544.67 444.701,550.226 437.324,552.898C430.77,555.272 421.406,556.955 414.417,557.243C402.252,557.744 385.852,555.608 374.133,552.305C371.168,551.47 365.318,549.198 364.95,548.06Z"/>
            <g transform="matrix(1,0,0,1,276.5,130)">
                <path d="M127.651,309.744C129.357,312.178 129.606,315.715 129.046,319.551C128.544,322.989 127.023,325.538 125.388,327.64C123.038,330.66 120.266,335.34 115.274,335.414C110.034,335.492 106.859,330.727 104.477,327.492C102.969,325.444 101.857,322.851 101.503,319.551C100.968,314.58 101.041,309.793 103.613,306.951C106.05,304.257 110.553,303.282 115.274,303.69C120.647,304.154 125.279,306.359 127.651,309.744Z"/>
            </g>
            <g transform="matrix(1,0,0,1,276.5,130)">
                <path d="M213.867,310.303C215.087,312.382 215.063,315.185 214.641,318.302C213.928,323.564 212.423,328.047 209.467,330.845C207.458,332.745 204.475,334.244 200.869,334.166C195.911,334.059 191.747,331.772 189.398,328.783C187.41,326.251 186.899,322.497 187.097,318.302C187.3,313.999 188.349,310.353 190.476,307.827C192.737,305.14 196.288,302.355 200.869,302.44C206.813,302.549 211.56,306.372 213.867,310.303Z"/>
            </g>
            <g transform="matrix(1,0,0,1,-196.673,-296.392)">
                <path d="M915.428,1351.46C906.569,1341.12 888.853,1320.43 888.85,1320.43C888.849,1320.43 873.303,1357.28 873.302,1357.29M870.27,1219.12C876.463,1252.89 888.848,1320.42 888.85,1320.43C888.847,1320.43 856.302,1341.19 856.299,1341.2" style="fill:none;fill-rule:nonzero;stroke:black;stroke-width:15px;"/>
            </g>
            <g transform="matrix(1,0,0,1,-196.673,-296.392)">
                <path d="M714.141,1358.1C711.735,1349.4 706.924,1332.01 706.923,1332.01C706.92,1332.01 675.816,1353.18 675.813,1353.18M723.671,1232.19C718.089,1265.46 706.925,1332 706.923,1332.01C706.919,1332.01 664.241,1338.39 664.236,1338.39" style="fill:none;fill-rule:nonzero;stroke:black;stroke-width:15px;"/>
            </g>
            <g transform="matrix(1,0,0,1,-198.108,-300.022)">
                <path d="M567.473,594.884C567.464,594.882 562.355,591.169 560.34,589.362C543.564,574.318 517.294,555.124 509.663,533.921C505.726,522.982 502.464,504.296 509.663,495.167C513.538,490.253 523.195,488.578 529.453,488.57C537.041,488.559 546.712,493.166 553.365,496.815C564.613,502.984 586.319,524.058 586.349,524.027C586.372,524.002 572.358,504.218 569.857,494.342C566.881,482.589 567.044,465.503 570.681,453.938C573.419,445.232 579.15,432.724 587.173,428.376C592.18,425.662 600.635,426.084 606.138,427.551C611.509,428.984 618.061,433.336 621.805,437.446C627.169,443.335 630.673,453.856 633.348,461.359C635.827,468.31 639.098,485.279 639.121,485.272C639.14,485.266 637.113,470.967 638.682,465.13C640.163,459.617 644.942,453.289 648.524,448.844C652.876,443.443 659.229,436.205 665.402,433.042C673.103,429.097 685.222,426.496 693.771,427.836C696.818,428.314 700.794,430.104 703.107,432.145C712.286,440.24 715.098,458.161 721.781,468.414C722.892,470.12 725.894,473.802 725.911,473.801C725.945,473.797 725.947,463.649 727.706,459.796C731.407,451.687 740.993,443.361 748.534,438.609C752.139,436.336 757.658,432.668 761.821,433.581C766.734,434.659 770.652,441.521 773.312,445.791C776.079,450.232 779.4,462.124 779.417,462.13C779.427,462.134 786.644,458.557 790.01,458C794.641,457.233 801.53,456.614 805.631,458.898C811.204,462.003 816.012,470.426 817.302,476.673C820.362,491.495 811.599,511.965 805.058,525.613C804.511,526.754 803.383,528.046 802.711,529.118C801.534,530.998 799.005,535.51 799,535.514C798.887,535.605 737.984,531.446 655.659,555.552C600.736,571.634 567.567,594.905 567.473,594.884Z"/>
            </g>
        </g>
        <g id="flip" transform="matrix(1,0,0,1,-0.876167,0)">
            <path d="M148.861,413.787L148.861,491.666L76.259,413.787L148.861,413.787Z" style="fill:white;fill-rule:nonzero;stroke:black;stroke-width:13px;"/>
        </g>
    </g>
</svg>
