<svg clip-rule="evenodd" fill-rule="evenodd" stroke-linejoin="round" stroke-miterlimit="2" viewBox="0 0 512 512" xmlns="http://www.w3.org/2000/svg" xmlns:xlink="http://www.w3.org/1999/xlink"><clipPath id="a"><path clip-rule="evenodd" d="m82.654 223.645 161.334 73.865h24.024l161.334-73.865h96.76v-233.882h-536.12v233.882z"/></clipPath><path d="m247.92 325.256v182.721l-170.274-66.593 1.731-98.331 115.441 53.389zm11.921 0v182.721l170.273-66.593-1.731-98.331-115.441 53.389zm-18.408-18.452-50.588 71.361-170.504-81.93 53.904-65.976zm24.894 0 50.589 71.361 170.503-81.93-53.904-65.976z" fill="#c7a172" fill-rule="nonzero" transform="translate(2.11992 -.47822)"/><g transform="matrix(1.03628 0 0 1.03628 -11.359 -16.65999)"><path d="m82.654 223.645 161.334 73.865h24.024l161.334-73.865h96.76v-233.882h-536.12v233.882z" fill="none"/><g clip-path="url(#a)"><path d="m367.427 94.441c0-10.296-8.359-18.655-18.655-18.655h-180.848c-10.296 0-18.656 8.359-18.656 18.655 0 0-16.058 143.53-20.339 184.475-2.128 20.357-8.759 61.193 5.366 61.193h248.106c14.125 0 7.494-40.836 5.365-61.193-4.281-40.945-20.339-184.475-20.339-184.475z" fill="#ffec9f" transform="matrix(.964991 0 0 .964991 8.69566 -7.39825)"/><g fill="#797979"><path d="m181.922 156.672c.146.246.295.489.454.727 1.379 2.075 3.092 3.934 6.057 5.116 1.182.471 2.555.681 3.965.781.441.031.894.006 1.32.021.084.376.178.759.252 1 .326 1.058.846 1.871 1.407 2.432 1.486 1.486 3.591 2.102 6.177 1.315 1.338-.407 2.957-1.316 4.561-2.521 1.054-.791 2.12-1.711 3.088-2.6.649.638 1.382 1.276 2.164 1.723 2.01 1.148 4.257 1.465 6.67.237 1.733-.881 3.138-2.382 4.517-3.909.61-.676 1.065-1.653 2.217-1.462 3.894.647 7.257 2.659 10.508 4.284 1.15.576 2.942.831 5.052.446 1.935-.354 4.396-1.279 6.196-1.828 2.234 1.788 4.659 2.923 7.195 3.855 2.459.904 5.035 1.584 7.545 2.839.844.422 2.57.759 4.872.217 2.339-.551 6.096-1.996 9.513-3.075 1.716-.541 3.303-1.032 4.404-1.032 14.606 0 14.763.231 28.13-4.27 4.341.274 18.601 3.717 23.612 3.717 2.345 0 4.25-1.904 4.25-4.25 0-2.345-1.905-4.25-4.25-4.25-4.323 0-15.774-2.734-21.131-3.488-2.353-.331-4.041-.173-4.69.046-12.555 4.233-12.537 3.995-25.921 3.995-2.31 0-6.131 1.11-9.788 2.364-2.179.747-5.117 1.628-6.199 1.949-1.978-.897-3.973-1.549-5.932-2.218-2.569-.878-5.093-1.729-7.225-3.861-.718-.718-2.503-1.747-5.174-1.133-1.625.374-6.325 1.797-7.247 2.078-3.799-1.913-7.8-4.018-12.327-4.77-3.396-.564-5.809.463-7.835 2.111-.862.701-1.639 1.542-2.401 2.392-.313.35-.603.723-.923 1.045l-.224-.229-.586-.595c-.236-.716-.595-1.736-.794-2.001-.405-.54-.871-.917-1.337-1.184-.853-.489-1.776-.675-2.778-.532-.713.102-1.637.373-2.554 1.306-.611.621-2.595 2.727-4.737 4.506-.241.2-.529.414-.829.624-.591-1.224-1.471-2.114-2.553-2.655-1.191-.596-2.62-.891-4.135-1.016-.989-.082-2.057.035-2.898-.3-1.412-.563-1.972-1.655-2.594-2.663-.883-1.43-1.759-2.858-2.99-4.09-.716-.716-1.716-1.275-3.098-1.269-.475.002-1.162.092-1.919.423-.609.267-1.554.908-1.71 1.013-2.495 1.692-5.63 4.39-7.754 7.404-1.754 2.49-2.811 5.214-2.811 7.834 0 2.346 1.905 4.25 4.25 4.25 2.346 0 4.25-1.904 4.25-4.25 0-1.006.586-1.982 1.26-2.939.957-1.358 2.213-2.614 3.458-3.66z" transform="matrix(.964991 0 0 .964991 10.9613 -6.00853)"/><path d="m223.116 191.689c-.287-.207-2.48-1.784-3.604-2.489-1.517-.952-2.98-1.345-4.001-1.328-.1.002-.974.031-2.272.638-2.278 1.067-11.006 5.402-15.133 7.541-.318-.4-.642-.791-.894-1.061-.695-.743-1.443-1.314-2.177-1.68-1.042-.519-2.807-1.154-4.454-1.934-.638-.302-1.601-.933-1.808-1.07-.677-1.2-1.811-2.081-3.557-2.22-.759-.06-3.134.612-3.134.612s.091-.027.13-.037c-8.26 2.092-9.872 5.933-13.152 12.607-1.035 2.105-.166 4.654 1.939 5.689 2.105 1.034 4.654.165 5.689-1.94 1.912-3.889 2.512-6.584 6.948-7.93.311.249.646.487 1.001.715 1.966 1.26 4.766 2.246 6.354 2.994.32.419 2.167 2.809 3.024 3.486 1.33 1.051 2.725 1.349 4.009 1.177.818-.11 1.668-.408 2.485-1.067l.01-.005c2.176-1.199 11.131-5.669 15.031-7.559.756.533 1.84 1.291 2.493 1.721.941.621 1.833 1.053 2.543 1.258 5.806 1.676 11.876 3.054 17.908 4.053 13.055 2.164 29.446.574 39.394-7.273 1.606.934 3.707 2.137 4.056 2.252 6.907 2.289 14.523 6.577 21.783 7.5 2.699.344 6.482-.71 9.526-2.908.731-.528 1.412-1.116 2.028-1.751 2.895 1.296 6.168 1.984 9.782 1.511 2.734-.358 10.766-3.544 15.285-5.584.498.569 1.078 1.19 1.504 1.532 1.184.946 2.494 1.428 3.869 1.428 2.345 0 4.25-1.905 4.25-4.25 0-1.916-1.271-3.538-3.015-4.067-.443-.538-1.496-1.795-2.082-2.303-1.941-1.686-4.027-2.053-6.256-.92-2.897 1.474-11.91 5.376-14.659 5.736-1.754.229-3.352-.084-4.792-.664-.27-.77-.76-2.151-.862-2.343-1.005-1.887-2.55-2.173-3.273-2.261-1.457-.177-3.354.06-4.429 2.546-.107.246-.37.844-.37 1.926 0 1.075-1.001 1.883-1.957 2.573-1.141.825-2.464 1.496-3.477 1.367-6.643-.844-13.55-4.884-19.888-7.036-.651-.393-5.101-3.063-6.037-3.392-2.514-.883-4.082.426-4.653 1.007-7.793 7.927-22.748 8.909-34.337 6.989-5.647-.936-11.328-2.221-16.768-3.786zm-27.563 5.794c-.203.13-.403.293-.599.492.067-.068.262-.251.599-.492z" transform="matrix(.964991 0 0 .964991 10.9613 -6.00853)"/><path d="m164.849 233.618c-2.318.349-4.693.461-6.534 1.398-2.091 1.063-2.925 3.624-1.862 5.715 1.064 2.091 3.624 2.925 5.715 1.861.601-.306 1.345-.308 2.097-.384.982-.1 1.987-.19 2.963-.369.408-.075 3.138-.91 3.665-1.094.859-.3 1.273-.678 1.343-.735.419-.339.724-.691.947-1.036 1.205 1.564 3.043 3.022 3.984 3.963.245.245 1.367 1.45 3.581 1.222.478-.049 3.038-.409 3.73-.507 3.048 1.088 6.278 2.909 9.657 4.188 4.526 1.713 9.268 2.521 14.151.875 2.126-.717 3.158-1.717 3.755-2.572.63-.903.931-1.848.978-2.864 2.389.354 4.903.615 7.272.615 5.01 0 10.017.504 15.048.504.3 0 1.403-.036 2.438-.072.152.609.31 1.165.432 1.41.821 1.641 2.548 3.08 4.982 3.88 3.411 1.122 8.471 1.074 10.568.71 3.726-.646 6.958-2.331 10.212-4.011 1.076.414 3.087 1.176 3.597 1.293 4.188.963 10.225.652 14.317-.38 2.275-.573 4.322-1.723 6.305-3.056 1.929-1.297 3.744-2.884 6.02-3.488.089.024.353.097.5.161.273.119.541.268.805.43 1.327.813 2.543 1.902 3.492 2.612 4.606 3.445 13.239 4.722 18.771 3.327 3.159-.797 5.779-2.313 8.33-3.931 1.894-1.201 3.731-2.481 5.941-3.226 4.017-1.355 8.444-.093 11.751 1.003 2.439.808 5.43.759 8.511.251 3.274-.539 6.674-1.662 9.098-1.662 2.345 0 4.25-1.905 4.25-4.25 0-2.346-1.905-4.25-4.25-4.25-2.397 0-5.618.814-8.87 1.476-2.168.441-4.356.933-6.065.367-4.814-1.596-11.292-2.962-17.141-.99-2.874.969-5.314 2.541-7.777 4.103-1.806 1.145-3.62 2.303-5.856 2.867-3.411.86-8.762.232-11.603-1.892-1.403-1.05-3.324-2.711-5.336-3.72-2.149-1.078-4.41-1.482-6.548-.941-2.824.715-5.262 2.284-7.635 3.924-1.534 1.06-3.007 2.199-4.771 2.643-2.918.736-7.205 1.027-10.224.362-.353-.146-3.452-1.414-4.745-1.655-1.525-.284-2.731.028-3.476.406-2.932 1.492-5.713 3.272-9.056 3.852-.947.165-2.85.204-4.645-.029-.564-.073-1.349-.293-1.846-.445-.137-.719-.342-1.706-.504-2.177-.327-.947-.813-1.617-1.233-2.037-.525-.525-1.588-1.242-3.216-1.445-1.575-.197-4.777.08-5.523.08-5.031 0-10.038-.504-15.048-.504-2.457 0-5.095-.354-7.499-.752-.293-.048-.544-.056-.775-.172.242.121.577.48.902.883-1.909-1.077-6.076-2.751-7.163.049-.481.643-1.212 1.666-1.367 2.14-.356 1.086-.354 2.38-.245 3.469-2.408.384-4.742-.266-6.999-1.121-3.668-1.388-7.172-3.374-10.459-4.469-.5-.167-1.276-.309-2.23-.288-.759.017-1.97.171-2.957.316l-.515-.452c-.302-.272-.641-.532-.852-.831-.143-.56-.533-2.03-.808-2.565-.709-1.381-1.776-2.066-2.695-2.373-1.444-.481-3.231-.5-5.008-.048-2.192.557-4.328 1.823-5.495 3.01-.138.14-.751.788-1.277 1.428zm49.134 3.7-.014.17.007-.064zm.002-.036c.004-.071.006-.147.006-.23z" transform="matrix(.964991 0 0 .964991 10.9613 -6.00853)"/><path d="m163.138 254.406.051.185c.87 2.937 2.36 5.94 9.194 8.206 3.165 1.048 6.29.473 9.4-.982 2.63-1.23 5.234-3.305 7.992-4.247.995.463 3.752 1.73 4.85 2.094 3.895 1.29 9.713.571 14.022.507.452.305 1.699 1.159 2.572 1.816 1.805 1.359 3.785 2.755 5.592 3.498 3.232 1.33 6.157.985 8.425-1.323.722-.734 1.742-.529 2.771-.4 1.457.183 2.976.59 4.455.938 3.802.895 7.423 1.175 10.095-.184.887-.451 2.172-1.507 3.502-2.765.328-.31.741-.682 1.155-1.046.902 1.116 1.802 2.218 1.956 2.373 3.69 3.702 10.496 6.071 15.646 6.071 3.081 0 5.71-1.089 8.168-2.324.332.02 1.433.097 2.107.198 2.24.337 4.56.617 6.141.296 4.935-1 9.771-3.254 14.007-5.398.737.112 4.375.656 5.52.656 2.917 0 17.584 1.113 21.794 2.623.965.741 2.333 1.248 4.074 1.201 2.84-.076 7.973-2.286 9.169-2.588 8.486-2.139 17.581-5.033 25.997-5.033 2.346 0 4.25-1.905 4.25-4.25 0-2.346-1.904-4.25-4.25-4.25-9.08 0-18.92 2.983-28.075 5.291-.843.213-5.799 1.835-7.039 2.242-.877-.46-2.084-.926-3.584-1.27-6.185-1.416-19.443-2.466-22.336-2.466-1.108 0-3.247-.576-4.919-.661-1.625-.083-3.028.205-3.992.696-3.705 1.884-7.945 3.992-12.305 4.876-1.099.223-2.791-.338-4.305-.526-2.312-.287-4.403-.076-5.775.621-1.414.72-2.864 1.566-4.647 1.566-3.115 0-7.272-1.277-9.546-3.495-.225-.285-3.366-4.265-4.068-4.962-1.399-1.388-2.817-1.369-3.234-1.362-1.226.021-2.943.631-4.647 1.962-1.644 1.285-3.506 3.582-4.618 4.148-.685.349-1.553.05-2.492-.124-1.983-.368-4.117-1.002-6.17-1.345-3.815-.636-7.366-.265-10.147 2.069-.218-.097-.472-.217-.659-.326-.9-.52-1.814-1.199-2.691-1.858-1.589-1.193-3.098-2.319-4.28-2.908-1.137-.565-2.179-.784-3.03-.784-3.556 0-8.608 1.034-11.935-.069-1.208-.4-3.225-1.552-4.731-2.1-1.684-.613-3.163-.636-4.081-.404-3.086.782-6.076 2.747-8.995 4.353-1.506.829-2.906 1.793-4.434 1.286-1.656-.549-2.688-1.036-3.285-1.686-.426-.464-.482-1-.603-1.52-.129-.559-.248-1.129-.402-1.707-.503-1.896-1.313-3.847-3.305-5.839-1.213-1.214-3.239-2.037-5.753-.662-1.82.995-5.039 4.95-5.48 5.848-1.295 2.634-3.141 7.346-3.141 10.131 0 2.345 1.904 4.25 4.25 4.25 2.345 0 4.25-1.905 4.25-4.25 0-1.323.799-3.28 1.549-4.887z" transform="matrix(.964991 0 0 .964991 10.9613 16.0768)"/></g><path d="m146.958 118.801c-20.635 0-14.331-18.533-12.732-25.942 2.173-10.065 5.686-18.513 22.326-18.513h198.031c16.64 0 20.154 8.448 22.326 18.513 1.599 7.409 7.904 25.942-12.731 25.942z" fill="#5d301a" transform="matrix(.964991 0 0 .964991 11.3785 -6.00853)"/><path d="m146.958 118.801c-20.635 0-11.872-18.533-10.273-25.942 2.172-10.065 3.227-18.513 19.867-18.513h198.031c16.64 0 17.695 8.448 19.867 18.513 1.599 7.409 10.363 25.942-10.272 25.942z" fill="#753d21" transform="matrix(.964991 0 0 .964991 11.3785 -14.8807)"/></g></g></svg>