<?xml version="1.0" encoding="UTF-8" standalone="no"?>
<!DOCTYPE svg PUBLIC "-//W3C//DTD SVG 1.1//EN" "http://www.w3.org/Graphics/SVG/1.1/DTD/svg11.dtd">
<svg width="100%" height="100%" viewBox="0 0 512 512" version="1.1" xmlns="http://www.w3.org/2000/svg" xmlns:xlink="http://www.w3.org/1999/xlink" xml:space="preserve" xmlns:serif="http://www.serif.com/" style="fill-rule:evenodd;clip-rule:evenodd;stroke-linejoin:round;stroke-miterlimit:2;">
    <g id="Icon" transform="matrix(1,0,0,1,0,2.34131)">
        <g id="Box" transform="matrix(1,0,0,1,2.11992,-2.81953)">
            <path d="M247.92,325.256L247.92,507.977L77.646,441.384L79.377,343.053L194.818,396.442L247.92,325.256ZM259.841,325.256L259.841,507.977L430.114,441.384L428.383,343.053L312.942,396.442L259.841,325.256ZM241.433,306.804L190.845,378.165L20.341,296.235L74.245,230.259L241.433,306.804ZM266.327,306.804L316.916,378.165L487.419,296.235L433.515,230.259L266.327,306.804Z" style="fill:rgb(161,118,111);fill-rule:nonzero;"/>
        </g>
        <g id="Clip-Window" serif:id="Clip Window" transform="matrix(1.03628,0,0,1.03628,-11.359,-19.0013)">
            <path d="M82.654,223.645L243.988,297.51L268.012,297.51L429.346,223.645L526.106,223.645L526.106,-10.237L-10.014,-10.237L-10.014,223.645L82.654,223.645Z" style="fill:none;"/>
            <clipPath id="_clip1">
                <path d="M82.654,223.645L243.988,297.51L268.012,297.51L429.346,223.645L526.106,223.645L526.106,-10.237L-10.014,-10.237L-10.014,223.645L82.654,223.645Z"/>
            </clipPath>
            <g clip-path="url(#_clip1)">
                <g id="GoDotDep">
                    <g id="Chicken" transform="matrix(1.09063,0,0,1.09063,-27.3272,-22.1846)">
                        <g id="body" transform="matrix(0.290734,0,0,0.290734,30.1166,-84.6007)">
                            <path d="M567.505,616.243C560.313,621.462 550.686,628.521 544.487,634.889C529.619,650.16 511.374,672.814 502.474,692.18C483.77,732.88 473.554,793.798 473.192,838.589C472.603,911.468 485.37,1013.41 521.571,1076.66C542.188,1112.69 584.29,1153.77 621.297,1172.57C667.519,1196.05 740.263,1204.85 791.893,1200.15C850.09,1194.86 931.328,1172.56 975.013,1133.74C1018.31,1095.27 1038.6,1014.36 1061.86,961.32C1065.27,953.536 1072.17,934.956 1072.2,934.944C1072.22,934.933 1091.55,945.867 1098.47,944.995C1103.55,944.356 1113.51,939.395 1115.7,933.597C1117.37,929.167 1115.18,921.848 1112.15,918.216C1109.4,914.939 1103.28,913.426 1099.11,912.478C1093.49,911.199 1079.91,912.094 1079.9,912.075C1079.9,912.055 1093.19,904.507 1098.36,900.513C1103.03,896.908 1109.25,891.849 1112.7,887.059C1115.46,883.209 1120.86,877.253 1119.39,872.744C1117.67,867.452 1108.41,864.964 1102.88,864.284C1099.56,863.874 1094.95,864.989 1091.93,866.433C1085.75,869.388 1075.02,881.785 1075,881.771C1074.99,881.763 1077.42,872.398 1077.14,868.323C1076.94,865.494 1076.57,861.199 1074.52,859.243C1072.39,857.214 1067.8,856.232 1064.97,857.018C1059.41,858.56 1054.12,865.981 1052.25,871.436C1048.97,880.962 1055.9,904.791 1055.88,904.818C1055.87,904.835 1034.31,909.477 1034.29,909.474C1034.25,909.471 1013.54,901.751 1006.43,895.724C990.028,881.81 973.48,856.29 967.174,835.724C962.459,820.341 966.999,798.137 965.472,782.121C962.909,755.25 960.267,718.603 950.68,693.371C938.46,661.207 914.87,619.206 888.695,596.873C865.886,577.411 826.593,563.195 797.48,556.019C784.71,552.871 766.948,551.533 753.81,552.146C724.169,553.527 685.438,563.887 656.96,572.219C641.815,576.65 621.767,583.476 607.653,590.533C594.861,596.93 579.08,607.842 567.505,616.243Z" style="fill:rgb(255,223,94);"/>
                            <path d="M880.564,1316.82L853.173,1334.3C849.793,1336.46 849.117,1339.04 849.115,1339.05C847.926,1343.01 850.179,1347.19 854.144,1348.38C856.346,1349.04 858.616,1348.64 860.402,1347.48L860.397,1347.48C860.397,1347.48 860.751,1347.25 861.249,1346.94L872.578,1339.71L866.746,1353.53C865.959,1355.4 865.84,1356.54 865.839,1356.54C865.427,1360.66 868.437,1364.34 872.556,1364.75C875.927,1365.09 879.003,1363.13 880.233,1360.15L880.569,1359.36L891.045,1334.52L909.733,1356.34C912.426,1359.48 917.164,1359.85 920.308,1357.15C923.451,1354.46 923.817,1349.72 921.123,1346.58L895.861,1317.09L877.647,1217.77C876.9,1213.7 872.989,1211 868.917,1211.74C864.846,1212.49 862.146,1216.4 862.893,1220.47L880.564,1316.82Z" style="fill:rgb(201,110,61);"/>
                            <path d="M675.717,1344.17L672.466,1346.39C671.969,1346.72 671.616,1346.96 671.616,1346.96L671.618,1346.96C669.624,1348.31 668.313,1350.59 668.313,1353.18C668.313,1357.32 671.674,1360.68 675.813,1360.68C675.815,1360.68 677.947,1360.8 680.743,1358.9L702.486,1344.1L706.912,1360.1C708.016,1364.09 712.15,1366.43 716.14,1365.33C720.13,1364.23 722.473,1360.09 721.37,1356.1L714.592,1331.6L731.068,1233.43C731.753,1229.35 728.994,1225.48 724.912,1224.79C720.83,1224.11 716.959,1226.87 716.274,1230.95C711.632,1258.62 703.121,1309.36 700.417,1325.48C688.468,1327.27 664.24,1330.89 664.236,1330.89C660.097,1330.89 656.736,1334.25 656.736,1338.39C656.736,1342.53 660.097,1345.89 664.236,1345.89L675.717,1344.17Z" style="fill:rgb(201,110,61);"/>
                            <path d="M567.473,594.884C567.464,594.882 562.355,591.169 560.34,589.362C543.564,574.318 517.294,555.124 509.663,533.921C505.726,522.982 502.464,504.296 509.663,495.167C513.538,490.253 523.195,488.578 529.453,488.57C537.041,488.559 546.712,493.166 553.365,496.815C564.613,502.984 586.319,524.058 586.349,524.027C586.372,524.002 572.358,504.218 569.857,494.342C566.881,482.589 567.044,465.503 570.681,453.938C573.419,445.232 579.15,432.724 587.173,428.376C592.18,425.662 600.635,426.084 606.138,427.551C611.509,428.984 618.061,433.336 621.805,437.446C627.169,443.335 630.673,453.856 633.348,461.359C635.827,468.31 639.098,485.279 639.121,485.272C639.14,485.266 637.113,470.967 638.682,465.13C640.163,459.617 644.942,453.289 648.524,448.844C652.876,443.443 659.229,436.205 665.402,433.042C673.103,429.097 685.222,426.496 693.771,427.836C696.818,428.314 700.794,430.104 703.107,432.145C712.286,440.24 715.098,458.161 721.781,468.414C722.892,470.12 725.894,473.802 725.911,473.801C725.945,473.797 725.947,463.649 727.706,459.796C731.407,451.687 740.993,443.361 748.534,438.609C752.139,436.336 757.658,432.668 761.821,433.581C766.734,434.659 770.652,441.521 773.312,445.791C776.079,450.232 779.4,462.124 779.417,462.13C779.427,462.134 786.644,458.557 790.01,458C794.641,457.233 801.53,456.614 805.631,458.898C811.204,462.003 816.012,470.426 817.302,476.673C820.362,491.495 811.599,511.965 805.058,525.613C804.511,526.754 803.383,528.046 802.711,529.118C801.534,530.998 799.005,535.51 799,535.514C798.887,535.605 737.984,531.446 655.659,555.552C600.736,571.634 567.567,594.905 567.473,594.884Z" style="fill:rgb(255,73,73);"/>
                        </g>
                        <g id="body1" serif:id="body" transform="matrix(0.290734,0,0,0.290734,30.1166,-84.6007)">
                            <path d="M706.409,687.974C660.899,678.325 585.938,685.498 554.669,719.943C533.503,743.259 539.864,792.101 537.558,823.506C534.242,868.65 515.565,937.013 541.16,974.347C599.159,1058.95 767.493,1061.96 869.858,1068.45C894.393,1070.01 931.973,1075.02 951.358,1059.9C984.497,1034.05 1000.49,965.984 990.08,925.268C975.707,869.063 893.238,830.507 848.696,793.338C807.935,759.326 758.37,698.991 706.409,687.974Z" style="fill:rgb(66,66,66);"/>
                            <path d="M567.505,616.243C560.313,621.462 550.686,628.521 544.487,634.889C529.619,650.16 511.374,672.814 502.474,692.18C483.77,732.88 473.554,793.798 473.192,838.589C472.603,911.468 485.37,1013.41 521.571,1076.66C542.188,1112.69 584.29,1153.77 621.297,1172.57C667.519,1196.05 740.263,1204.85 791.893,1200.15C850.09,1194.86 931.328,1172.56 975.013,1133.74C1018.31,1095.27 1038.6,1014.36 1061.86,961.32C1065.27,953.536 1072.17,934.956 1072.2,934.944C1072.22,934.933 1091.55,945.867 1098.47,944.995C1103.55,944.356 1113.51,939.395 1115.7,933.597C1117.37,929.167 1115.18,921.848 1112.15,918.216C1109.4,914.939 1103.28,913.426 1099.11,912.478C1093.49,911.199 1079.91,912.094 1079.9,912.075C1079.9,912.055 1093.19,904.507 1098.36,900.513C1103.03,896.908 1109.25,891.849 1112.7,887.059C1115.46,883.209 1120.86,877.253 1119.39,872.744C1117.67,867.452 1108.41,864.964 1102.88,864.284C1099.56,863.874 1094.95,864.989 1091.93,866.433C1085.75,869.388 1075.02,881.785 1075,881.771C1074.99,881.763 1077.42,872.398 1077.14,868.323C1076.94,865.494 1076.57,861.199 1074.52,859.243C1072.39,857.214 1067.8,856.232 1064.97,857.018C1059.41,858.56 1054.12,865.981 1052.25,871.436C1048.97,880.962 1055.9,904.791 1055.88,904.818C1055.87,904.835 1034.31,909.477 1034.29,909.474C1034.25,909.471 1013.54,901.751 1006.43,895.724C990.028,881.81 973.48,856.29 967.174,835.724C962.459,820.341 966.999,798.137 965.472,782.121C962.909,755.25 960.267,718.603 950.68,693.371C938.46,661.207 914.87,619.206 888.695,596.873C865.886,577.411 826.593,563.195 797.48,556.019C784.71,552.871 766.948,551.533 753.81,552.146C724.169,553.527 685.438,563.887 656.96,572.219C641.815,576.65 621.767,583.476 607.653,590.533C594.861,596.93 579.08,607.842 567.505,616.243ZM882.665,879.493C886.189,884.473 890.747,894.072 894.33,899.016C902.649,910.495 914.858,924.968 924.164,935.661C929.226,941.477 938.354,949.914 941.597,954.546C942.272,955.51 944.753,958.258 944.197,959.222C943.457,960.503 939.122,958.872 937.115,958.582C932.225,957.875 923.444,952.682 920.16,955.022C919.422,955.549 919.638,959.817 920.031,961.818C920.989,966.707 925.802,972.016 927.194,976.799C928.269,980.495 931.653,986.896 928.84,989.523C925.379,992.755 918.172,986.646 913.58,985.487C910.935,984.82 906.808,981.57 904.742,983.352C903.094,984.772 904.63,988.449 904.961,990.599C905.486,994 907.291,998.285 908.215,1001.6C909.69,1006.89 912.093,1013.88 912.826,1019.33C913.615,1025.18 917.836,1035.55 913.053,1039.02C899.387,1048.93 884.327,1011.86 873.981,998.523C856.854,976.438 827.368,926.817 819.511,909.58C825.188,925.721 847.045,985.878 863.113,1010.75C870.977,1022.92 882.109,1040.28 894.873,1047.14C901.974,1050.95 914.467,1055.98 921.34,1051.77C926.213,1048.78 927.754,1039.62 927.957,1033.91C928.238,1026 922.614,1016.23 920.017,1008.76C918.904,1005.56 916.04,998.183 916.047,998.174C916.063,998.154 930.433,1009.47 937.883,1010.75C940.777,1011.24 945.352,1011.43 947.596,1009.53C950.17,1007.36 950.99,1002.08 950.637,998.724C950.009,992.76 943.385,986.752 940.501,981.494C938.147,977.202 933.054,966.974 933.068,966.966C933.078,966.961 938.648,973.283 941.852,974.736C946.031,976.632 952.967,978.509 957.056,976.425C959.535,975.162 962.1,971.438 962.123,968.656C962.188,960.817 950.383,954.63 945.231,948.722C928.323,929.338 890.154,887.611 882.665,879.493ZM603.615,806.786C596.47,806.863 586.574,807.938 580.205,811.177C568.54,817.109 550.463,837.731 549.573,842.234C549.125,844.497 552.77,857.517 556.217,863.113C561.402,871.531 571.964,880.265 580.242,885.671C586.358,889.666 595.323,894.328 602.54,895.456C614.132,897.267 631.81,897.277 641.321,890.408C654.218,881.094 664.707,857.672 662.715,841.889C661.434,831.733 651.562,819.625 642.969,814.061C632.892,807.534 615.621,806.657 603.615,806.786ZM600.824,736.136C602.53,738.57 602.779,742.107 602.219,745.943C601.717,749.381 600.196,751.93 598.561,754.032C596.211,757.052 593.439,761.732 588.447,761.806C583.207,761.884 580.032,757.119 577.65,753.884C576.142,751.836 575.03,749.243 574.676,745.943C574.141,740.972 574.214,736.185 576.786,733.343C579.223,730.649 583.726,729.674 588.447,730.082C593.82,730.546 598.452,732.751 600.824,736.136ZM687.04,736.695C688.26,738.774 688.236,741.577 687.814,744.694C687.101,749.956 685.596,754.439 682.64,757.237C680.631,759.137 677.648,760.636 674.042,760.558C669.084,760.451 664.92,758.164 662.571,755.175C660.583,752.643 660.072,748.889 660.27,744.694C660.473,740.391 661.522,736.745 663.649,734.219C665.91,731.532 669.461,728.747 674.042,728.832C679.986,728.941 684.733,732.764 687.04,736.695Z" style="fill:rgb(255,223,94);"/>
                            <path d="M562.89,854.937C562.323,855.837 573.637,870.7 580.16,875.381C586.672,880.052 597.126,883.751 605.013,885.176C613.082,886.634 624.428,886.814 632.339,884.661C635.117,883.906 638.922,882.421 640.899,880.33C647.231,873.63 652.436,852.214 650.751,851.224C649.403,850.433 644.728,855.179 641.986,856.587C635.863,859.73 627.533,864.136 620.741,865.249C611.555,866.754 598.961,864.551 589.805,862.878C581.724,861.401 563.484,853.994 562.89,854.937Z" style="fill:rgb(201,110,61);"/>
                            <path d="M561.623,844.452C560.517,841.034 575.411,827.624 583.444,823.323C590.933,819.313 602.599,817.423 611.09,817.202C618.348,817.013 628.699,817.416 634.984,821.052C641.07,824.574 649.999,836.764 649.794,839.219C649.64,841.062 641.374,846.618 633.997,849.29C627.443,851.664 618.079,853.347 611.09,853.635C598.925,854.136 582.525,852 570.806,848.697C567.841,847.862 561.991,845.59 561.623,844.452Z" style="fill:rgb(255,170,94);"/>
                        </g>
                    </g>
                    <g id="Bottom-Egg" serif:id="Bottom Egg" transform="matrix(0.907107,0,0,0.907107,25.7357,61.2185)">
                        <path d="M143.112,179.641L179.97,205.951L203.933,172.901L234.834,223.484L269.183,205.951L283.212,223.484L308.272,194.679L327.591,211.303L342.467,172.901L372.172,204.381L382.191,195.198C382.286,198.723 382.334,202.305 382.334,205.951C382.334,251.58 325.747,305.395 256.048,305.395C186.35,305.395 129.763,251.59 129.763,205.951C129.763,196.671 143.112,179.641 143.112,179.641Z" style="fill:white;"/>
                        <path d="M148.675,171.849C144.507,168.874 138.736,169.705 135.577,173.735C135.577,173.735 128.355,182.976 124.013,192.038C121.631,197.007 120.189,202.009 120.189,205.951C120.189,226.304 129.963,248.257 147.049,267.102C171.64,294.224 211.314,314.97 256.048,314.97C300.783,314.97 340.457,294.22 365.048,267.098C382.134,248.252 391.908,226.3 391.908,205.951C391.908,202.217 391.859,198.55 391.762,194.94C391.661,191.191 389.381,187.846 385.928,186.383C382.475,184.919 378.486,185.606 375.721,188.14L372.659,190.947C372.659,190.947 349.431,166.33 349.431,166.33C347.176,163.94 343.852,162.874 340.627,163.505C337.402,164.137 334.727,166.378 333.54,169.442L323.56,195.204C323.56,195.204 314.516,187.422 314.516,187.422C310.524,183.986 304.506,184.421 301.048,188.395L283.519,208.544C283.519,208.544 276.658,199.969 276.658,199.969C273.819,196.421 268.877,195.357 264.83,197.423L238.38,210.924C238.38,210.924 212.103,167.91 212.103,167.91C210.434,165.178 207.51,163.46 204.311,163.334C201.112,163.208 198.061,164.689 196.182,167.281L177.797,192.636C177.797,192.636 148.675,171.849 148.675,171.849ZM143.112,179.641L179.97,205.951L203.933,172.901L234.834,223.484L269.183,205.951L283.212,223.484L308.272,194.679L327.591,211.303L342.467,172.901L372.172,204.381L382.191,195.198C382.286,198.723 382.334,202.305 382.334,205.951C382.334,251.58 325.747,305.395 256.048,305.395C186.35,305.395 129.763,251.59 129.763,205.951C129.763,196.671 143.112,179.641 143.112,179.641Z" style="fill:rgb(66,66,66);"/>
                    </g>
                </g>
            </g>
        </g>
    </g>
</svg>
