<svg clip-rule="evenodd" fill-rule="evenodd" stroke-linejoin="round" stroke-miterlimit="2" viewBox="0 0 512 512" xmlns="http://www.w3.org/2000/svg" xmlns:xlink="http://www.w3.org/1999/xlink"><clipPath id="a"><path clip-rule="evenodd" d="m82.654 223.645 161.334 73.865h24.024l161.334-73.865h96.76v-233.882h-536.12v233.882z"/></clipPath><path d="m247.92 325.256v182.721l-170.274-66.593 1.731-98.331 115.441 53.389zm11.921 0v182.721l170.273-66.593-1.731-98.331-115.441 53.389zm-18.408-18.452-50.588 71.361-170.504-81.93 53.904-65.976zm24.894 0 50.589 71.361 170.503-81.93-53.904-65.976z" fill="#c7a172" fill-rule="nonzero" transform="translate(2.11992 -.47822)"/><g transform="matrix(1.03628 0 0 1.03628 -11.359 -16.65999)"><path d="m82.654 223.645 161.334 73.865h24.024l161.334-73.865h96.76v-233.882h-536.12v233.882z" fill="none"/><g clip-path="url(#a)"><path d="m57.054 429.196h39.843l-8.413-20.092h39.097l2.564-15.432h11.001v121.806h-11.001l-2.564-15.432h-39.097l8.413-20.091h-39.843z" fill="#c96e3d" transform="matrix(.88852356032 0 0 .88852356032 7.449667756 -155.50552021)"/><path d="m247.783 60.975c-6.461-3.85-9.867-11.657-7.825-19.278 2.463-9.194 11.927-14.658 21.121-12.194 9.193 2.463 14.657 11.927 12.194 21.12-2.043 7.622-8.896 12.68-16.416 12.784l-15.14 56.502c7.176 2.434 13.011 7.787 16.087 14.643h61.032c12.562 18.075 33.475 29.915 57.131 29.915 12.793 0 24.784-3.463 35.089-9.504v146.65c0 7.852-6.375 14.227-14.227 14.227h-230.665c-7.852 0-14.227-6.375-14.227-14.227v-152.834c0-7.852 6.375-14.227 14.227-14.227h42.014c3.261-7.271 9.627-12.852 17.407-15.053l-28.372-49.141c-7.291 1.847-15.22-1.265-19.165-8.098-4.759-8.243-1.93-18.799 6.312-23.558 8.243-4.758 18.798-1.93 23.557 6.313 3.945 6.833 2.676 15.255-2.569 20.647l28.126 48.715zm142.132 208.216c4.957 0 8.981 4.024 8.981 8.981s-4.024 8.981-8.981 8.981-8.981-4.024-8.981-8.981 4.024-8.981 8.981-8.981zm-27.896 0c4.957 0 8.981 4.024 8.981 8.981s-4.024 8.981-8.981 8.981-8.982-4.024-8.982-8.981 4.025-8.981 8.982-8.981zm0-28.246c4.957 0 8.981 4.025 8.981 8.981 0 4.957-4.024 8.982-8.981 8.982s-8.982-4.025-8.982-8.982c0-4.956 4.025-8.981 8.982-8.981zm27.896 0c4.957 0 8.981 4.025 8.981 8.981 0 4.957-4.024 8.982-8.981 8.982s-8.981-4.025-8.981-8.982c0-4.956 4.024-8.981 8.981-8.981zm0-28.245c4.957 0 8.981 4.024 8.981 8.981s-4.024 8.981-8.981 8.981-8.981-4.024-8.981-8.981 4.024-8.981 8.981-8.981zm-27.896 0c4.957 0 8.981 4.024 8.981 8.981s-4.024 8.981-8.981 8.981-8.982-4.024-8.982-8.981 4.025-8.981 8.982-8.981zm0-28.246c4.957 0 8.981 4.025 8.981 8.981 0 4.957-4.024 8.982-8.981 8.982s-8.982-4.025-8.982-8.982c0-4.956 4.025-8.981 8.982-8.981zm27.896 0c4.957 0 8.981 4.025 8.981 8.981 0 4.957-4.024 8.982-8.981 8.982s-8.981-4.025-8.981-8.982c0-4.956 4.024-8.981 8.981-8.981z" fill="#ffd739" transform="matrix(.99599616083 0 0 .99599616083 -11.004713431 17.576281584)"/><path d="m243.324 140.429h-51.221c3.367-7.504 9.937-13.265 17.967-15.537l-29.283-50.719c-7.526 1.906-15.709-1.307-19.781-8.359-4.912-8.508-1.993-19.402 6.515-24.314 8.507-4.912 19.402-1.993 24.314 6.515 4.071 7.052 2.762 15.746-2.652 21.31l29.03 50.281 14.768-55.118c-6.669-3.973-10.184-12.032-8.076-19.898 2.542-9.489 12.31-15.128 21.799-12.586 9.489 2.543 15.128 12.311 12.586 21.8-2.108 7.866-9.181 13.087-16.944 13.194l-15.626 58.318c7.407 2.511 13.43 8.037 16.604 15.113z" fill="#c96e3d" transform="matrix(.96499097563 0 0 .96499097563 10.961283655 16.07680312)"/><path d="m232.991 163.262c0-9.716-7.889-17.604-17.605-17.604h-35.209c-9.716 0-17.605 7.888-17.605 17.604v42.384c0 9.716 7.889 17.605 17.605 17.605h35.209c9.716 0 17.605-7.889 17.605-17.605zm-40.685 14.884h-7.732c-2.624 0-4.755 2.131-4.755 4.755v1.442c0 2.624 2.131 4.755 4.755 4.755h7.732v7.731c0 2.625 2.13 4.755 4.755 4.755h1.441c2.625 0 4.755-2.13 4.755-4.755v-7.731h7.732c2.624 0 4.755-2.131 4.755-4.755v-1.442c0-2.624-2.131-4.755-4.755-4.755h-7.732v-7.732c0-2.624-2.13-4.755-4.755-4.755h-1.441c-2.625 0-4.755 2.131-4.755 4.755z" fill="#c96e3d" transform="matrix(.99599616083 0 0 .99599616083 -11.004713431 17.576281584)"/><path d="m455.89 356.397c6.456-6.77 10.325-12.237 14.588-20.615 3.163-6.216 4.471-9.401 5.459-13.299.519-2.048 1.107-3.913 1.306-4.143.465-.539 9.334 6.235 18.311 13.985 2.542 2.194 5.746 4.898 7.121 6.007 3.342 2.699 10.274 8.586 13.621 11.568 1.49 1.328 4.026 3.406 5.635 4.618s3.629 2.939 4.488 3.837l1.563 1.633h-75.517z" fill="#ffaa5e" transform="matrix(.88852356032 0 0 .88852356032 7.449667756 -155.50552021)"/><circle cx="375.967" cy="94.942" fill="#ffd739" r="61.804" transform="matrix(.99599616083 0 0 .99599616083 -11.004713431 17.576281584)"/><circle cx="401.486" cy="82.836" fill="#c96e3d" r="16.116" transform="matrix(.99599616083 0 0 .99599616083 -11.004713431 17.576281584)"/><path d="m431.796 48.635 9.501-.206c1.349-5.407 6.183-9.47 12.02-9.597 6.99-.151 12.788 5.402 12.94 12.392.151 6.99-5.402 12.788-12.392 12.94-5.837.126-10.843-3.724-12.423-9.068h-9.646zm-7.443-7.729 8.983-9.381c-2.87-4.776-2.325-11.068 1.713-15.285 4.836-5.05 12.862-5.223 17.912-.387s5.224 12.862.388 17.911c-4.038 4.217-10.3 5.034-15.196 2.374l-9.042 9.441zm-10.1-2.732v-9.115c-5.407-1.348-9.47-6.182-9.597-12.019-.151-6.99 5.402-12.789 12.392-12.94s12.788 5.401 12.94 12.392c.126 5.837-3.725 10.842-9.068 12.423l.201 9.259z" fill="#ff4949" transform="matrix(.99599616083 0 0 .99599616083 -11.004713431 17.576281584)"/></g></g></svg>