<?xml version="1.0" encoding="UTF-8" standalone="no"?>
<!DOCTYPE svg PUBLIC "-//W3C//DTD SVG 1.1//EN" "http://www.w3.org/Graphics/SVG/1.1/DTD/svg11.dtd">
<svg width="100%" height="100%" viewBox="0 0 512 512" version="1.1" xmlns="http://www.w3.org/2000/svg" xmlns:xlink="http://www.w3.org/1999/xlink" xml:space="preserve" xmlns:serif="http://www.serif.com/" style="fill-rule:evenodd;clip-rule:evenodd;stroke-linecap:round;stroke-linejoin:round;stroke-miterlimit:1.5;">
    <g id="Package">
        <g transform="matrix(2.17099,0,0,2.17099,-299.667,-303.764)">
            <g transform="matrix(0.501473,0,0,-0.577831,62.3545,384.41)">
                <path d="M585.566,119.721L385.958,19.244L385.958,218.657L585.566,319.142L585.566,119.721Z" style="fill:rgb(187,150,105);"/>
            </g>
            <g transform="matrix(-0.250737,0.434288,-0.500416,-0.288916,462.424,37.8416)">
                <path d="M586.231,118.967L386.153,19.187L386.153,218.6L585.566,319.134L586.231,118.967Z" style="fill:rgb(206,172,131);"/>
            </g>
            <g transform="matrix(-0.501473,0,0,-0.577831,449.547,384.377)">
                <path d="M585.566,119.721L386.153,19.187L386.153,218.6L585.566,319.183L585.566,119.721Z" style="fill:rgb(199,161,114);"/>
            </g>
            <g transform="matrix(0.582905,0.144485,0.144485,0.751805,36.1371,27.0994)">
                <path d="M155.902,199.943L255.902,142.564" style="fill:none;"/>
            </g>
            <g transform="matrix(0.582905,0.144485,0.144485,0.751805,86.4834,-1.76759)">
                <path d="M155.902,199.943L255.902,142.564" style="fill:none;"/>
            </g>
            <g transform="matrix(0.512523,-0.858674,0.858674,0.512523,-59.5446,270.565)">
                <path d="M232.726,183.458L217.899,175.109L217.798,289.671L232.726,297.964L232.726,183.458Z" style="fill:rgb(162,133,98);"/>
            </g>
            <g transform="matrix(0.5,0.866025,-0.866025,0.5,351.231,-115.069)">
                <path d="M232.726,177.951L217.899,186.512L217.899,302.146L232.726,293.642L232.726,177.951Z" style="fill:rgb(162,133,98);"/>
            </g>
            <g transform="matrix(1,5.55112e-17,-5.55112e-17,1,82.8602,62.4896)">
                <path d="M232.726,160.953L217.954,169.521L217.954,187.654L232.726,179.086L232.726,160.953Z" style="fill:rgb(152,123,90);"/>
            </g>
            <g transform="matrix(-1,5.55112e-17,5.55112e-17,1,431.227,63.7695)">
                <path d="M232.712,160.94L217.934,169.529L217.899,187.792L232.712,179.094L232.712,160.94Z" style="fill:rgb(160,130,95);"/>
            </g>
            <g transform="matrix(0.460619,0,0,0.460619,138.032,139.92)">
                <path d="M230.825,126.621L262.844,108.135L294.498,127.029L262.844,145.77L230.825,126.621Z" style="fill:rgb(152,123,90);"/>
            </g>
        </g>
        <g transform="matrix(0.146767,0.0819472,0,0.146767,22.377,135.435)">
            <g id="Chicken">
                <g id="body">
                    <path d="M880.564,1316.82L853.173,1334.3C849.793,1336.46 849.117,1339.04 849.115,1339.05C847.926,1343.01 850.179,1347.19 854.144,1348.38C856.346,1349.04 858.616,1348.64 860.402,1347.48L860.397,1347.48C860.397,1347.48 860.751,1347.25 861.249,1346.94L872.578,1339.71L866.746,1353.53C865.959,1355.4 865.84,1356.54 865.839,1356.54C865.427,1360.66 868.437,1364.34 872.556,1364.75C875.927,1365.09 879.003,1363.13 880.233,1360.15L880.569,1359.36L891.045,1334.52L909.733,1356.34C912.426,1359.48 917.164,1359.85 920.308,1357.15C923.451,1354.46 923.817,1349.72 921.123,1346.58L895.861,1317.09L877.647,1217.77C876.9,1213.7 872.989,1211 868.917,1211.74C864.846,1212.49 862.146,1216.4 862.893,1220.47L880.564,1316.82Z" style="fill:rgb(129,106,77);"/>
                    <path d="M675.717,1344.17L672.466,1346.39C671.969,1346.72 671.616,1346.96 671.616,1346.96L671.618,1346.96C669.624,1348.31 668.313,1350.59 668.313,1353.18C668.313,1357.32 671.674,1360.68 675.813,1360.68C675.815,1360.68 677.947,1360.8 680.743,1358.9L702.486,1344.1L706.912,1360.1C708.016,1364.09 712.15,1366.43 716.14,1365.33C720.13,1364.23 722.473,1360.09 721.37,1356.1L714.592,1331.6L731.068,1233.43C731.753,1229.35 728.994,1225.48 724.912,1224.79C720.83,1224.11 716.959,1226.87 716.274,1230.95C711.632,1258.62 703.121,1309.36 700.417,1325.48C688.468,1327.27 664.24,1330.89 664.236,1330.89C660.097,1330.89 656.736,1334.25 656.736,1338.39C656.736,1342.53 660.097,1345.89 664.236,1345.89L675.717,1344.17Z" style="fill:rgb(129,106,77);"/>
                    <path d="M567.473,594.884C567.464,594.882 562.355,591.169 560.34,589.362C543.564,574.318 517.294,555.124 509.663,533.921C505.726,522.982 502.464,504.296 509.663,495.167C513.538,490.253 523.195,488.578 529.453,488.57C537.041,488.559 546.712,493.166 553.365,496.815C564.613,502.984 586.319,524.058 586.349,524.027C586.372,524.002 572.358,504.218 569.857,494.342C566.881,482.589 567.044,465.503 570.681,453.938C573.419,445.232 579.15,432.724 587.173,428.376C592.18,425.662 600.635,426.084 606.138,427.551C611.509,428.984 618.061,433.336 621.805,437.446C627.169,443.335 630.673,453.856 633.348,461.359C635.827,468.31 639.098,485.279 639.121,485.272C639.14,485.266 637.113,470.967 638.682,465.13C640.163,459.617 644.942,453.289 648.524,448.844C652.876,443.443 659.229,436.205 665.402,433.042C673.103,429.097 685.222,426.496 693.771,427.836C696.818,428.314 700.794,430.104 703.107,432.145C712.286,440.24 715.098,458.161 721.781,468.414C722.892,470.12 725.894,473.802 725.911,473.801C725.945,473.797 725.947,463.649 727.706,459.796C731.407,451.687 740.993,443.361 748.534,438.609C752.139,436.336 757.658,432.668 761.821,433.581C766.734,434.659 770.652,441.521 773.312,445.791C776.079,450.232 779.4,462.124 779.417,462.13C779.427,462.134 786.644,458.557 790.01,458C794.641,457.233 801.53,456.614 805.631,458.898C811.204,462.003 816.012,470.426 817.302,476.673C820.362,491.495 811.599,511.965 805.058,525.613C804.511,526.754 803.383,528.046 802.711,529.118C801.534,530.998 799.005,535.51 799,535.514C798.887,535.605 737.984,531.446 655.659,555.552C600.736,571.634 567.567,594.905 567.473,594.884Z" style="fill:rgb(129,106,77);"/>
                    <path d="M567.505,616.243C560.313,621.462 550.686,628.521 544.487,634.889C529.619,650.16 511.374,672.814 502.474,692.18C483.77,732.88 473.554,793.798 473.192,838.589C472.603,911.468 485.37,1013.41 521.571,1076.66C542.188,1112.69 584.29,1153.77 621.297,1172.57C667.519,1196.05 740.263,1204.85 791.893,1200.15C850.09,1194.86 931.328,1172.56 975.013,1133.74C1018.31,1095.27 1038.6,1014.36 1061.86,961.32C1065.27,953.536 1072.17,934.956 1072.2,934.944C1072.22,934.933 1091.55,945.867 1098.47,944.995C1103.55,944.356 1113.51,939.395 1115.7,933.597C1117.37,929.167 1115.18,921.848 1112.15,918.216C1109.4,914.939 1103.28,913.426 1099.11,912.478C1093.49,911.199 1079.91,912.094 1079.9,912.075C1079.9,912.055 1093.19,904.507 1098.36,900.513C1103.03,896.908 1109.25,891.849 1112.7,887.059C1115.46,883.209 1120.86,877.253 1119.39,872.744C1117.67,867.452 1108.41,864.964 1102.88,864.284C1099.56,863.874 1094.95,864.989 1091.93,866.433C1085.75,869.388 1075.02,881.785 1075,881.771C1074.99,881.763 1077.42,872.398 1077.14,868.323C1076.94,865.494 1076.57,861.199 1074.52,859.243C1072.39,857.214 1067.8,856.232 1064.97,857.018C1059.41,858.56 1054.12,865.981 1052.25,871.436C1048.97,880.962 1055.9,904.791 1055.88,904.818C1055.87,904.835 1034.31,909.477 1034.29,909.474C1034.25,909.471 1013.54,901.751 1006.43,895.724C990.028,881.81 973.48,856.29 967.174,835.724C962.459,820.341 966.999,798.137 965.472,782.121C962.909,755.25 960.267,718.603 950.68,693.371C938.46,661.207 914.87,619.206 888.695,596.873C865.886,577.411 826.593,563.195 797.48,556.019C784.71,552.871 766.948,551.533 753.81,552.146C724.169,553.527 685.438,563.887 656.96,572.219C641.815,576.65 621.767,583.476 607.653,590.533C594.861,596.93 579.08,607.842 567.505,616.243ZM882.665,879.493C886.189,884.473 890.747,894.072 894.33,899.016C902.649,910.495 914.858,924.968 924.164,935.661C929.226,941.477 938.354,949.914 941.597,954.546C942.272,955.51 944.753,958.258 944.197,959.222C943.457,960.503 939.122,958.872 937.115,958.582C932.225,957.875 923.444,952.682 920.16,955.022C919.422,955.549 919.638,959.817 920.031,961.818C920.989,966.707 925.802,972.016 927.194,976.799C928.269,980.495 931.653,986.896 928.84,989.523C925.379,992.755 918.172,986.646 913.58,985.487C910.935,984.82 906.808,981.57 904.742,983.352C903.094,984.772 904.63,988.449 904.961,990.599C905.486,994 907.291,998.285 908.215,1001.6C909.69,1006.89 912.093,1013.88 912.826,1019.33C913.615,1025.18 917.836,1035.55 913.053,1039.02C899.387,1048.93 884.327,1011.86 873.981,998.523C856.854,976.438 827.368,926.817 819.511,909.58C825.188,925.721 847.045,985.878 863.113,1010.75C870.977,1022.92 882.109,1040.28 894.873,1047.14C901.974,1050.95 914.467,1055.98 921.34,1051.77C926.213,1048.78 927.754,1039.62 927.957,1033.91C928.238,1026 922.614,1016.23 920.017,1008.76C918.904,1005.56 916.04,998.183 916.047,998.174C916.063,998.154 930.433,1009.47 937.883,1010.75C940.777,1011.24 945.352,1011.43 947.596,1009.53C950.17,1007.36 950.99,1002.08 950.637,998.724C950.009,992.76 943.385,986.752 940.501,981.494C938.147,977.202 933.054,966.974 933.068,966.966C933.078,966.961 938.648,973.283 941.852,974.736C946.031,976.632 952.967,978.509 957.056,976.425C959.535,975.162 962.1,971.438 962.123,968.656C962.188,960.817 950.383,954.63 945.231,948.722C928.323,929.338 890.154,887.611 882.665,879.493ZM603.615,806.786C596.47,806.863 586.574,807.938 580.205,811.177C568.54,817.109 550.463,837.731 549.573,842.234C549.125,844.497 552.77,857.517 556.217,863.113C561.402,871.531 571.964,880.265 580.242,885.671C586.358,889.666 595.323,894.328 602.54,895.456C614.132,897.267 631.81,897.277 641.321,890.408C654.218,881.094 664.707,857.672 662.715,841.889C661.434,831.733 651.562,819.625 642.969,814.061C632.892,807.534 615.621,806.657 603.615,806.786ZM600.824,736.136C602.53,738.57 602.779,742.107 602.219,745.943C601.717,749.381 600.196,751.93 598.561,754.032C596.211,757.052 593.439,761.732 588.447,761.806C583.207,761.884 580.032,757.119 577.65,753.884C576.142,751.836 575.03,749.243 574.676,745.943C574.141,740.972 574.214,736.185 576.786,733.343C579.223,730.649 583.726,729.674 588.447,730.082C593.82,730.546 598.452,732.751 600.824,736.136ZM687.04,736.695C688.26,738.774 688.236,741.577 687.814,744.694C687.101,749.956 685.596,754.439 682.64,757.237C680.631,759.137 677.648,760.636 674.042,760.558C669.084,760.451 664.92,758.164 662.571,755.175C660.583,752.643 660.072,748.889 660.27,744.694C660.473,740.391 661.522,736.745 663.649,734.219C665.91,731.532 669.461,728.747 674.042,728.832C679.986,728.941 684.733,732.764 687.04,736.695Z" style="fill:rgb(129,106,77);"/>
                    <path d="M562.89,854.937C562.323,855.837 573.637,870.7 580.16,875.381C586.672,880.052 597.126,883.751 605.013,885.176C613.082,886.634 624.428,886.814 632.339,884.661C635.117,883.906 638.922,882.421 640.899,880.33C647.231,873.63 652.436,852.214 650.751,851.224C649.403,850.433 644.728,855.179 641.986,856.587C635.863,859.73 627.533,864.136 620.741,865.249C611.555,866.754 598.961,864.551 589.805,862.878C581.724,861.401 563.484,853.994 562.89,854.937Z" style="fill:rgb(129,106,77);"/>
                    <path d="M561.623,844.452C560.517,841.034 575.411,827.624 583.444,823.323C590.933,819.313 602.599,817.423 611.09,817.202C618.348,817.013 628.699,817.416 634.984,821.052C641.07,824.574 649.999,836.764 649.794,839.219C649.64,841.062 641.374,846.618 633.997,849.29C627.443,851.664 618.079,853.347 611.09,853.635C598.925,854.136 582.525,852 570.806,848.697C567.841,847.862 561.991,845.59 561.623,844.452Z" style="fill:rgb(129,106,77);"/>
                </g>
            </g>
        </g>
        <g id="SetupGodot" transform="matrix(0.104798,-0.0615257,0,0.104798,315.923,302.932)">
            <g transform="matrix(1.24896,0,0,1.24896,-96.5621,-30.8441)">
                <path d="M788.223,566.849C788.223,566.849 794.593,512.619 810.628,480.289C817.437,466.56 832.9,456.779 839.115,456.779C873.823,456.779 873.823,456.779 873.823,566.849C873.823,676.919 873.823,676.919 839.115,676.919C832.9,676.919 817.437,667.139 810.628,653.409C794.593,621.079 788.223,566.849 788.223,566.849Z" style="fill:rgb(129,106,77);"/>
            </g>
            <g transform="matrix(1.24896,0,0,1.24896,-154.882,-30.8441)">
                <path d="M234.38,566.849C234.38,566.849 228.01,512.619 211.975,480.289C205.166,466.56 189.703,456.779 183.488,456.779C148.781,456.779 148.781,456.779 148.781,566.849C148.781,676.919 148.781,676.919 183.488,676.919C189.703,676.919 205.166,667.139 211.975,653.409C228.01,621.079 234.38,566.849 234.38,566.849Z" style="fill:rgb(129,106,77);"/>
            </g>
            <g transform="matrix(3.33168,0,0,3.33168,-340.199,-1.80983)">
                <path d="M143.486,163.548L143.486,138.569C143.486,136.194 143.89,133.913 144.633,131.791C177.78,125.576 215.623,122.051 255.787,122.051C296.115,122.051 334.103,125.604 367.345,131.867C368.164,134.112 368.611,136.535 368.611,139.063L368.611,163.548C365.978,164.983 362.712,167.812 360.966,171.333C354.955,183.453 352.567,203.782 352.567,203.782C352.567,203.782 354.955,224.111 360.966,236.231C362.712,239.753 365.978,242.581 368.611,244.016L368.611,256.32C368.611,281.747 347.968,302.39 322.542,302.39L189.555,302.39C164.129,302.39 143.486,281.747 143.486,256.32L143.486,244.016C146.119,242.581 149.384,239.753 151.131,236.231C157.142,224.111 159.53,203.782 159.53,203.782C159.53,203.782 157.142,183.453 151.131,171.333C149.384,167.812 146.119,164.983 143.486,163.548ZM237.901,277.379L237.901,257.619L196.268,257.619L196.268,271.884L223.637,271.884L223.637,291.644L288.46,291.644L288.46,271.884L315.829,271.884L315.829,257.619L274.196,257.619L274.196,277.379L237.901,277.379ZM327.549,183.697C327.549,174.068 319.731,166.25 310.101,166.25L299.081,166.25C289.452,166.25 281.634,174.068 281.634,183.697L281.634,217.889C281.634,227.518 289.452,235.336 299.081,235.336L310.101,235.336C319.731,235.336 327.549,227.518 327.549,217.889L327.549,183.697ZM229.939,183.837C229.939,174.13 222.059,166.25 212.352,166.25L201.612,166.25C191.905,166.25 184.025,174.13 184.025,183.837L184.025,217.749C184.025,227.456 191.905,235.336 201.612,235.336L212.352,235.336C222.059,235.336 229.939,227.456 229.939,217.749L229.939,183.837Z" style="fill:rgb(129,106,77);"/>
            </g>
            <g transform="matrix(1.24896,0,0,1.24896,-126.594,-30.8441)">
                <path d="M511.302,324.13C413.564,324.13 241.009,344.391 242.391,343.712C281.009,256.665 386.883,194.109 511.302,194.109C635.61,194.109 741.407,256.554 780.109,343.479C781.743,344.251 609.283,324.13 511.302,324.13Z" style="fill:rgb(129,106,77);"/>
            </g>
            <g transform="matrix(1.40526,0,0,1.40526,-227.038,-60.967)">
                <path d="M293.572,224.094C288.427,226.312 282.758,227.542 276.804,227.542C253.39,227.542 234.38,208.533 234.38,185.118C234.38,161.704 253.39,142.695 276.804,142.695C300.218,142.695 319.227,161.704 319.227,185.118C319.227,191.073 317.998,196.742 315.779,201.887L403.319,289.427L381.112,311.633L293.572,224.094Z" style="fill:rgb(129,106,77);"/>
            </g>
            <g transform="matrix(1.40526,0,0,1.40526,-185.989,-60.967)">
                <path d="M706.824,201.887C704.606,196.742 703.376,191.073 703.376,185.118C703.376,161.704 722.386,142.695 745.8,142.695C769.214,142.695 788.223,161.704 788.223,185.118C788.223,208.533 769.214,227.542 745.8,227.542C739.845,227.542 734.176,226.312 729.031,224.094L646.437,306.688L624.231,284.481L706.824,201.887Z" style="fill:rgb(129,106,77);"/>
            </g>
            <g transform="matrix(1.40526,0,0,1.40526,-206.514,-106.265)">
                <path d="M495.599,170.505C490.392,168.436 485.514,165.296 481.304,161.086C464.747,144.53 464.747,117.647 481.304,101.09C497.86,84.534 524.743,84.534 541.299,101.09C557.856,117.647 557.856,144.53 541.299,161.086C537.089,165.296 532.211,168.436 527.004,170.505L527.004,321.661L495.599,321.661L495.599,170.505Z" style="fill:rgb(129,106,77);"/>
            </g>
        </g>
        <g transform="matrix(0.692969,-0.390864,0.865202,0.475384,195.257,121.102)">
            <path d="M178.058,130.577C178.058,124.109 172.519,118.858 165.698,118.858L106.441,118.858C99.62,118.858 94.082,124.109 94.082,130.577L94.082,154.014C94.082,160.481 99.62,165.732 106.441,165.732L165.698,165.732C172.519,165.732 178.058,160.481 178.058,154.014L178.058,130.577Z" style="fill:rgb(226,206,183);"/>
            <path d="M181.702,129.029C181.702,121.734 175.312,115.921 167.618,115.921L108.361,115.921C103.342,115.921 98.783,118.127 95.49,121.248C92.567,124.019 90.437,127.899 90.437,132.124L90.437,155.561C90.437,162.856 96.827,168.669 104.521,168.669C104.521,168.669 163.778,168.669 163.778,168.669C168.798,168.669 173.357,166.464 176.649,163.342C179.572,160.571 181.702,156.691 181.702,152.466L181.702,129.029ZM178.058,130.577C178.058,124.109 172.519,118.858 165.698,118.858L106.441,118.858C99.62,118.858 94.082,124.109 94.082,130.577L94.082,154.014C94.082,160.481 99.62,165.732 106.441,165.732L165.698,165.732C172.519,165.732 178.058,160.481 178.058,154.014L178.058,130.577Z" style="fill:rgb(129,106,77);"/>
            <g transform="matrix(1,0,0,1,-0.402088,-2.25805)">
                <path d="M104.411,133.171C104.411,131.324 105.321,130.281 106.576,129.011C106.912,128.672 107.578,128.18 108.117,128.314C109.479,128.655 107.956,131.337 109.846,131.525C111.555,131.694 114.198,129.866 114.198,128.051C114.198,127.759 114.361,128.652 114.589,128.834C115.019,129.177 115.638,129.337 116.174,129.337C118.465,129.337 120.776,129.479 123.087,129.479C123.412,129.479 124.386,129.412 124.061,129.412C123.253,129.412 125.033,130.287 125.343,130.321C127.86,130.597 130.446,130.589 132.991,130.589C134.196,130.589 135.533,130.746 136.717,130.547C137.088,130.485 137.519,130.547 137.897,130.547C138.073,130.547 138.597,130.612 138.421,130.612C137.797,130.612 136.317,130.729 136.42,130.676C137.017,130.373 137.655,129.549 138.318,129.382C141.724,128.523 145.244,127.876 148.644,126.969C150.776,126.401 153.266,125.272 155.477,125.233C155.864,125.227 155.035,125.9 154.979,126.283C154.851,127.177 154.828,127.731 155.435,128.338C156.651,129.555 158.971,127.828 160.143,127.434C162.27,126.719 164.585,126.881 166.84,126.881C167.234,126.881 168.958,126.63 169.274,126.946C169.459,127.131 169.179,127.519 169.336,127.729C169.623,128.111 170.227,128.406 170.675,128.555C170.742,128.577 171.232,128.697 171.232,128.718" style="fill:none;stroke:rgb(129,106,77);stroke-width:2.23px;"/>
            </g>
            <g transform="matrix(1,0,0,1,-5.94177,-1.68377)">
                <path d="M172.089,140.521C171.295,138.933 168.567,138.147 167.185,137.27C166.743,136.99 165.413,136.307 165.413,135.732C165.413,135.607 165.471,135.975 165.511,136.093C165.587,136.325 165.671,136.557 165.724,136.804C165.853,137.397 166.091,138.555 165.883,139.171C165.508,140.283 163.878,140.334 162.73,140.479C161.522,140.631 160.289,140.444 159.101,140.444C158.979,140.444 159.318,140.334 159.427,140.278C159.565,140.208 160.474,139.748 160.406,139.714C159.514,139.268 157.719,139.572 156.758,139.572C153.453,139.572 149.846,139.971 146.727,140.993C146.632,141.024 148.135,139.267 148.067,139.234C147.485,138.943 146.353,139.092 145.719,139.092C143.576,139.092 141.849,139.577 139.845,140.306C138.117,140.935 137.727,142.018 135.578,141.789C131.827,141.388 127.464,140.172 123.982,138.78C123.092,138.423 123.873,137.701 123.583,137.12C123.469,136.892 122.744,136.882 122.528,136.855C119.85,136.52 117.444,137.913 114.869,138.197C114.261,138.264 112.429,138.067 111.994,138.494C111.603,138.879 113.258,138.852 112.942,138.852" style="fill:none;stroke:rgb(129,106,77);stroke-width:2.23px;"/>
            </g>
            <g id="polygon17" transform="matrix(1,0,0,0.502485,98.5698,143.26)">
                <path d="M3.826,2.18L4.663,2.18L4.663,37.069L3.826,37.069L3.826,2.18ZM5.222,2.18L5.571,2.18L5.571,37.069L5.222,37.069L5.222,2.18ZM6.617,2.18L6.966,2.18L6.966,37.069L6.617,37.069L6.617,2.18ZM11.293,2.18L11.642,2.18L11.642,37.069L11.293,37.069L11.293,2.18ZM12.201,2.18L13.492,2.18L13.492,37.069L12.201,37.069L12.201,2.18ZM8.955,2.18L10.7,2.18L10.7,37.069L8.955,37.069L8.955,2.18ZM14.085,2.18L15.341,2.18L15.341,37.069L14.085,37.069L14.085,2.18ZM19.18,2.18L19.529,2.18L19.529,37.069L19.18,37.069L19.18,2.18ZM22.914,2.18L23.262,2.18L23.262,37.069L22.914,37.069L22.914,2.18ZM27.101,2.18L27.45,2.18L27.45,37.069L27.101,37.069L27.101,2.18ZM28.497,2.18L28.846,2.18L28.846,37.069L28.497,37.069L28.497,2.18ZM15.934,2.18L16.283,2.18L16.283,37.069L15.934,37.069L15.934,2.18ZM29.439,2.18L29.788,2.18L29.788,37.069L29.439,37.069L29.439,2.18ZM24.309,2.18L25.112,2.18L25.112,37.069L24.309,37.069L24.309,2.18ZM21.518,2.18L22.32,2.18L22.32,37.069L21.518,37.069L21.518,2.18ZM17.784,2.18L18.622,2.18L18.622,37.069L17.784,37.069L17.784,2.18ZM31.742,2.18L32.58,2.18L32.58,37.069L31.742,37.069L31.742,2.18ZM33.138,2.18L33.487,2.18L33.487,37.069L33.138,37.069L33.138,2.18ZM35.476,2.18L35.825,2.18L35.825,37.069L35.476,37.069L35.476,2.18ZM39.663,2.18L40.012,2.18L40.012,37.069L39.663,37.069L39.663,2.18ZM34.534,2.18L34.883,2.18L34.883,37.069L34.534,37.069L34.534,2.18ZM44.793,2.18L45.142,2.18L45.142,37.069L44.793,37.069L44.793,2.18ZM47.096,2.18L47.445,2.18L47.445,37.069L47.096,37.069L47.096,2.18ZM42.455,2.18L42.804,2.18L42.804,37.069L42.455,37.069L42.455,2.18ZM40.606,2.18L41.408,2.18L41.408,37.069L40.606,37.069L40.606,2.18ZM36.872,2.18L38.617,2.18L38.617,37.069L36.872,37.069L36.872,2.18ZM48.492,2.18L49.329,2.18L49.329,37.069L48.492,37.069L48.492,2.18ZM49.888,2.18L50.237,2.18L50.237,37.069L49.888,37.069L49.888,2.18ZM52.226,2.18L53.028,2.18L53.028,37.069L52.226,37.069L52.226,2.18ZM53.622,2.18L53.97,2.18L53.97,37.069L53.622,37.069L53.622,2.18ZM56.413,2.18L56.762,2.18L56.762,37.069L56.413,37.069L56.413,2.18ZM55.017,2.18L55.366,2.18L55.366,37.069L55.017,37.069L55.017,2.18ZM60.147,2.18L60.496,2.18L60.496,37.069L60.147,37.069L60.147,2.18ZM57.355,2.18L58.158,2.18L58.158,37.069L57.355,37.069L57.355,2.18ZM61.054,2.18L62.799,2.18L62.799,37.069L61.054,37.069L61.054,2.18ZM69.429,2.18L69.778,2.18L69.778,37.069L69.429,37.069L69.429,2.18ZM70.371,2.18L71.174,2.18L71.174,37.069L70.371,37.069L70.371,2.18ZM65.242,2.18L66.079,2.18L66.079,37.069L65.242,37.069L65.242,2.18ZM63.392,2.18L64.683,2.18L64.683,37.069L63.392,37.069L63.392,2.18ZM67.58,2.18L68.871,2.18L68.871,37.069L67.58,37.069L67.58,2.18Z" style="fill:rgb(129,106,77);fill-opacity:0.99;fill-rule:nonzero;"/>
            </g>
        </g>
    </g>
</svg>
