<svg clip-rule="evenodd" fill-rule="evenodd" stroke-linejoin="round" stroke-miterlimit="2" viewBox="0 0 512 512" xmlns="http://www.w3.org/2000/svg" xmlns:xlink="http://www.w3.org/1999/xlink"><clipPath id="a"><path clip-rule="evenodd" d="m82.654 223.645 161.334 73.865h24.024l161.334-73.865h96.76v-233.882h-536.12v233.882z"/></clipPath><path d="m247.92 325.256v182.721l-170.274-66.593 1.731-98.331 115.441 53.389zm11.921 0v182.721l170.273-66.593-1.731-98.331-115.441 53.389zm-18.408-18.452-50.588 71.361-170.504-81.93 53.904-65.976zm24.894 0 50.589 71.361 170.503-81.93-53.904-65.976z" fill="#c7a172" fill-rule="nonzero" transform="translate(2.11992 -.47822)"/><g transform="matrix(1.03628 0 0 1.03628 -11.359 -16.65999)"><path d="m82.654 223.645 161.334 73.865h24.024l161.334-73.865h96.76v-233.882h-536.12v233.882z" fill="none"/><g clip-path="url(#a)"><g transform="matrix(.407779 0 0 .407779 136.706 -1.01888)"><path d="m262.816 749.835c-23.502-.888-42.659-2.496-70.611-5.927-19.664-2.415-50.611-7.477-57.75-9.447-2.269-.626-7.331-1.793-11.25-2.594-3.919-.8-9.487-2.163-12.375-3.029-2.887-.865-7.612-2.216-10.5-3.002-17.978-4.893-43.061-15.362-51.099-21.327-1.704-1.265-4.519-3.312-6.256-4.549-8.361-5.958-14.931-14.659-16.562-21.937-.857-3.827.129-7.594 3.388-12.938.88-1.444 2.152-4.071 2.827-5.839.675-1.767 3.612-7.202 6.527-12.077 2.915-4.876 5.3-9.185 5.3-9.578 0-.392 1.059-2.382 2.354-4.422 1.294-2.04 4.206-7.253 6.472-11.584 2.265-4.332 4.707-8.719 5.427-9.75.72-1.032 3.262-5.588 5.65-10.125 2.388-4.538 4.973-9.162 5.745-10.276.771-1.115 2.262-3.984 3.313-6.375 1.05-2.392 2.671-5.193 3.601-6.224.93-1.032 2.298-3.563 3.04-5.625.742-2.063 1.923-4.425 2.625-5.25s2.383-3.525 3.735-6c2.822-5.167 5.091-7.875 6.599-7.875.578 0 2.966 1.81 5.307 4.024 11.54 10.908 35.728 23.018 60.132 30.105 1.856.539 6.919 2.07 11.25 3.402 4.331 1.331 9.225 2.672 10.875 2.979 1.65.306 5.025 1.095 7.5 1.753 2.475.657 7.369 1.702 10.875 2.321 27.622 4.881 27.922 4.926 47.25 7.127 23.36 2.66 75.95 2.915 100.875.489 30.488-2.968 58.688-8.325 84.375-16.028 8.587-2.575 10.368-3.188 22.5-7.744 6.015-2.259 19.292-8.192 21.75-9.719.619-.384 3.366-1.868 6.105-3.297 2.738-1.429 6.534-3.943 8.434-5.588 1.9-1.644 5.281-4.202 7.513-5.684 2.232-1.481 4.465-3.183 4.961-3.781.751-.905 1.389-.333 3.82 3.427 1.604 2.483 2.917 4.761 2.917 5.063s1.4 2.907 3.111 5.788c4.191 7.056 6.377 10.928 9.978 17.68 4.381 8.214 8.647 15.772 10.121 17.933.703 1.031 2.5 4.406 3.993 7.5 1.494 3.093 3.938 7.481 5.432 9.75 1.494 2.268 4.24 7.162 6.101 10.875 1.862 3.712 3.814 7.256 4.338 7.875 1.062 1.253 3.729 6.118 4.934 9 .432 1.031 2.448 4.575 4.481 7.875 7.042 11.428 7.029 11.394 7.058 18.375.033 7.798-1.028 10.116-8.146 17.805-6.442 6.957-15.341 13-27.401 18.605-2.269 1.055-5.137 2.394-6.375 2.976-2.83 1.331-15.513 6.201-19.5 7.488-11.366 3.669-26.167 7.751-35.45 9.777-2.585.564-5.019 1.223-5.408 1.463-.389.241-4.856 1.11-9.925 1.931-5.069.822-12.745 2.17-17.057 2.996-14.414 2.763-21 3.707-48.785 6.994-5.156.61-16.462 1.644-25.125 2.297-8.662.654-17.437 1.343-19.5 1.531-7.857.715-67.493.991-83.514.387zm34.822-107.942c20.262 0 36.713 16.45 36.713 36.712 0 20.263-16.451 36.713-36.713 36.713-20.263 0-36.713-16.45-36.713-36.713 0-20.262 16.45-36.712 36.713-36.712z" fill="#702a6e"/><path d="m411.32 133.695c173.393 0 314.166 140.773 314.166 314.166s-82.061 287.526-314.166 287.526-314.166-114.133-314.166-287.526 140.773-314.166 314.166-314.166z" fill="#631ca0" transform="matrix(.863764 0 0 .863764 -57.6454 -49.248)"/><g fill="#fff"><path d="m270.398 542.087c1.031-.806 2.22-1.474 2.642-1.483.422-.008 2.542-1.185 4.711-2.614 2.169-1.428 5.686-3.472 7.816-4.542 2.129-1.07 5.181-2.907 6.78-4.083l2.908-2.139 6.893 3.493c9.813 4.974 21.796 10.618 22.54 10.618 1.156 0-.441-9.871-4.087-25.257-.799-3.374-1.453-6.791-1.453-7.594s1.434-2.994 3.187-4.867c8.926-9.539 14.438-15.875 14.438-16.596 0-1.19-4.7-1.844-17.037-2.369l-11.038-.47-1.509-4.033c-1.361-3.64-3.662-7.568-10.234-17.478-1.2-1.81-2.639-4.122-3.197-5.138-1.103-2.01-1.01-2.177-10.521 18.96-4.166 9.259-4.007 9.123-11.751 10.051-22.404 2.686-22.211 2.633-20.581 5.68.967 1.807 13.126 13.401 18.228 17.382l2.109 1.645-1.148 6.656c-.632 3.661-1.476 9.502-1.876 12.98-.399 3.478-.959 7.758-1.244 9.511-.596 3.666.318 4.117 3.424 1.687z"/><path d="m180.548 479.275c.143-.722-.301-5.178-.988-9.902-.686-4.725-1.06-9.079-.831-9.677.229-.597 1.794-2.301 3.477-3.785 7.213-6.362 11.713-10.886 11.49-11.554-.131-.394-2.418-1.359-5.081-2.145-14.276-4.214-17.217-5.254-17.212-6.086.006-1.042-6.299-13.681-7.901-15.837-1.494-2.012-2.379-1.044-6.573 7.186-5.5 10.792-4.618 10.15-16.291 11.867-5.563.819-10.199 1.49-10.303 1.492-.103.002-.187.493-.187 1.09 0 .598 1.203 2.005 2.674 3.127s3.343 3.349 4.159 4.95c.816 1.6 1.988 3.103 2.603 3.339 1.675.642 3.165 4.075 2.875 6.622-.577 5.082-1.909 15.161-2.305 17.438-.248 1.427-.108 2.437.338 2.437.419 0 2.735-1.104 5.146-2.454 2.412-1.35 6.687-3.423 9.502-4.607l5.117-2.154 2.86 1.608c1.573.884 3.359 1.607 3.969 1.607s1.914.633 2.898 1.407c2.508 1.972 8.364 5.274 9.421 5.312.486.017 1-.559 1.143-1.281z"/><path d="m410.368 456.51c11.599-6.122 10.323-6.131 20.275.153 5.457 3.446 10.06 4.75 10.983 3.112.175-.309-.283-2.587-1.016-5.062s-2.038-7.2-2.899-10.5l-1.567-6 3.555-3c1.956-1.65 5.332-4.772 7.502-6.938 2.171-2.166 4.312-3.937 4.759-3.937s.679-.402.516-.892c-.473-1.418-7.864-2.792-15.203-2.827l-6.75-.032-2.446-5.062c-4.696-9.719-8.331-15.562-9.681-15.562-1.364 0-6.467 9.357-8.861 16.247-1.337 3.85-.585 3.549-11.925 4.764-4.193.449-10.338 1.848-11.109 2.528-.889.785 13.376 14.336 15.092 14.336 1.494 0 1.311 2.53-.756 10.482-2.556 9.836-2.795 13.518-.876 13.518.172 0 4.855-2.398 10.407-5.328z"/><path d="m256.428 396.587c.2 0 2.328-1.304 4.729-2.897 2.401-1.594 6.728-4.114 9.616-5.601 2.887-1.487 6.513-3.454 8.058-4.372l2.807-1.669 2.068 1.522c1.137.837 3.754 2.465 5.817 3.619 2.062 1.154 6.45 3.632 9.75 5.507 9.157 5.202 13.982 7.641 15.114 7.641 1.08 0 .959-2.227-.542-9.974-.383-1.98-.717-5.017-.742-6.75s-.812-7.031-1.752-11.773l-1.707-8.622 5.314-5.063c2.923-2.785 8.482-8.064 12.354-11.732l7.039-6.668-1.789-1.164c-1.001-.651-8.517-2.247-17.067-3.624l-15.278-2.461-2.662-5.272c-1.464-2.899-4.134-8.262-5.934-11.916-1.8-3.655-4.051-7.705-5.003-9-.952-1.296-2.163-3.452-2.691-4.793-.529-1.341-1.23-2.438-1.559-2.438s-1.36 1.266-2.291 2.813-2.781 4.5-4.112 6.562c-1.33 2.063-4.793 8.307-7.694 13.875-5.836 11.201-5.583 10.994-13.623 11.156-3.496.071-14.768 1.39-23.813 2.786-1.649.255-2.437.79-2.438 1.655 0 .703 5.618 6.731 12.485 13.394l12.484 12.116-1.571 7.009c-1.773 7.91-3.566 18.989-4.193 25.901l-.421 4.641 4.441-2.204z"/><path d="m81.398 359.087c1.444-.551 4.068-1.952 5.831-3.113s4.9-2.839 6.97-3.73l3.764-1.619 4.28 2.13c2.354 1.171 5.568 2.925 7.141 3.896 4.155 2.566 7.995 4.686 8.485 4.686.573 0-.369-8.168-1.669-14.486-.579-2.811-1.052-5.797-1.052-6.636 0-.909 2.875-4.491 7.125-8.878 3.919-4.044 7.125-7.572 7.125-7.84 0-1.339-5.734-2.66-11.552-2.66-8.142 0-9.805-.646-10.976-4.266-.87-2.69-5.471-10.933-7.812-13.996-.583-.763-1.395-1.181-1.804-.928-.982.607-7.213 12.35-8.299 15.641l-.851 2.581-6.916.532c-3.803.292-9.022.933-11.596 1.424l-4.682.894 7.869 7.768c4.328 4.273 7.868 8.153 7.868 8.622-.002 1.634-2.138 12.983-3.233 17.174-1.113 4.264-.956 5.552.54 4.424.45-.34 2-1.069 3.444-1.62z"/><path d="m497.634 357.775c-.02-2.976-2.104-14.341-3.171-17.292-.899-2.486-.863-2.556 3.269-6.392 2.298-2.133 5.582-4.994 7.297-6.358 3.486-2.772 4.026-5.088 1.419-6.079-.935-.356-5.402-1.045-9.926-1.532s-8.256-.947-8.293-1.023c-.815-1.652-2.763-6.163-3.784-8.762-.729-1.856-1.889-4.218-2.579-5.25-.689-1.031-1.839-2.839-2.555-4.017-.717-1.179-1.577-1.854-1.911-1.5-.727.768-4.906 8.854-7.436 14.388-.995 2.176-2.423 4.285-3.172 4.686s-5.309 1.219-10.134 1.817c-4.824.599-9.082 1.398-9.461 1.777-1.408 1.408 3.386 6.42 11.783 12.322 2.379 1.672 2.419 3.28.328 13.007-2.507 11.656-2.494 11.52-1.068 11.52.694 0 2.691-.982 4.437-2.183 1.745-1.201 5.181-3.163 7.635-4.36 2.453-1.197 5.157-2.618 6.008-3.159 1.366-.868 2.156-.638 6.75 1.968 2.862 1.624 6.89 4.174 8.953 5.668 4.569 3.31 5.629 3.452 5.611.754z"/><path d="m351.244 280.952c10.34-10.799 12.834-13.452 19.654-20.906 3.094-3.382 7.819-8.419 10.5-11.194s6.225-6.795 7.875-8.934c1.65-2.138 3.788-4.087 4.75-4.331 2.525-.64 12.12.941 37.25 6.135 12.534 2.591 29.53 5.21 30.102 4.639.244-.245-.3-1.39-1.21-2.547-.909-1.156-2.08-3.114-2.6-4.352-.521-1.237-3.001-4.702-5.511-7.699-2.509-2.997-4.798-6.204-5.086-7.125-.288-.922-2.117-3.532-4.064-5.801-1.947-2.268-4.011-4.975-4.586-6.013-1.482-2.678-11.518-15.969-12.964-17.169-2.22-1.843-1.351-3.961 5.407-13.193 1.812-2.475 3.93-5.744 4.707-7.265.777-1.522 3.526-5.751 6.109-9.399s5.666-8.479 6.852-10.734c1.186-2.256 3.072-5.283 4.191-6.727 3.433-4.43 4.043-5.945 2.613-6.494-1.99-.763-18.036 1.055-26.96 3.055-4.538 1.017-11.963 2.553-16.5 3.413-4.538.861-10.577 2.256-13.42 3.1-2.844.844-5.881 1.35-6.75 1.123-.869-.226-4.485-3.372-8.036-6.991-15.573-15.874-40.082-39.206-41.182-39.206-.322 0-.76 1.435-.974 3.188-1.096 9.024-2.837 27.765-3.534 38.062-.433 6.394-1.028 13.974-1.321 16.844l-.533 5.218-3.375.975c-1.856.535-4.388 1.454-5.627 2.041-1.238.586-6.469 2.753-11.625 4.814-16.394 6.553-19.056 7.648-22.123 9.097-1.65.78-5.35 2.469-8.221 3.754-6.705 3.001-7.331 3.526-6.361 5.337.809 1.512 3.756 2.981 10.457 5.213 2.269.756 9.187 3.213 15.375 5.46 6.187 2.248 13.275 4.81 15.75 5.693 2.475.884 5.175 1.893 6 2.242s3.911 1.534 6.857 2.634c5.31 1.98 5.362 2.027 5.804 5.151.244 1.734.616 7.034.826 11.777.361 8.186 1.516 31.935 2.226 45.75.18 3.507.346 7.135.37 8.063.022.928.226 1.687.451 1.687.224 0 4.021-3.773 8.437-8.385z"/><path d="m245.813 241.712c-.106-3.3-.374-8.362-.595-11.25l-.402-5.25 2.853-2.794c1.57-1.537 4.601-4.417 6.736-6.4 3.453-3.207 5.608-7.065 4.543-8.131-.487-.486-13.447-3.74-17.531-4.401-3.028-.49-3.154-.63-4.975-5.513-4.153-11.132-5.09-13.265-6.413-14.588-1.342-1.341-1.455-1.297-3.944 1.546-2.383 2.722-4.549 6.161-8.759 13.909l-1.697 3.122-11.053.75c-10.279.698-11.068.858-11.273 2.286-.342 2.393 3.2 8.001 7.699 12.189 4.551 4.235 5.437 6.363 4.206 10.095-1.452 4.399-3.592 16.945-3.042 17.835.647 1.047 11.88-2.55 15.469-4.953 1.299-.87 3.408-2.015 4.686-2.545 2.135-.884 2.542-.795 5.022 1.096 4.573 3.488 15.598 9.386 17.171 9.187 1.367-.174 1.476-.69 1.299-6.19z"/></g></g></g></g></svg>