<svg clip-rule="evenodd" fill-rule="evenodd" stroke-linejoin="round" stroke-miterlimit="2" viewBox="0 0 512 512" xmlns="http://www.w3.org/2000/svg"><path d="m296.979 43.222c-136.126 0-246.469 110.343-246.469 246.469s110.343 246.469 246.469 246.469c136.125 0 246.468-110.343 246.468-246.469s-110.343-246.469-246.468-246.469z" fill="#9aa2ff" fill-rule="nonzero" transform="matrix(.988198 0 0 .914521 -37.4736 -8.92865)"/><path d="m296.979 43.222c-136.126 0-246.469 110.343-246.469 246.469s110.343 246.469 246.469 246.469c136.125 0 246.468-110.343 246.468-246.469s-110.343-246.469-246.468-246.469zm-10.594 42.157v78.812c-22.058-.678-44.334-2.805-66.813-6.344 8.837-22.26 19.416-44.789 31.625-67.593 11.395-2.604 23.157-4.262 35.188-4.875zm21.187 0c12.031.613 23.794 2.271 35.188 4.875 12.427 23.218 23.162 46.16 32.094 68.812-22.205 3.303-44.628 5.096-67.282 5.344zm-82.156 12.593c-10.159 18.947-19.082 37.68-26.719 56.188-14.876-2.91-29.845-6.422-44.906-10.563 20.239-19.839 44.568-35.521 71.625-45.625zm143.125 0c27.465 10.257 52.113 26.266 72.531 46.532-14.984 4.387-30.085 8.061-45.281 11-7.758-18.945-16.852-38.127-27.25-57.532zm-229.781 62c17.589 5.066 35.126 9.423 52.625 12.969-13.37 36.27-21.735 71.665-24.844 106.156h-73.875c2.3-45.112 19.209-86.368 46.094-119.125zm317.25 1c26.413 32.595 43.004 73.468 45.281 118.125h-73.875c-3.056-33.906-11.181-68.687-24.156-104.312 17.643-3.584 35.229-8.171 52.75-13.813zm-243.563 15.875c24.752 4.134 49.386 6.67 73.938 7.5v94.75h-97.438c3.183-33.333 11.151-67.43 23.5-102.25zm169.688 1.719c12.001 34.22 19.745 67.751 22.875 100.531h-97.438v-94.468c24.964-.166 49.825-2.161 74.563-6.063zm-289.469 121.719h72.625c-1.005 36.547 4.048 72.044 15.469 106.437-14.309 3.218-28.584 7.136-42.813 11.719-26.422-32.598-43.003-73.49-45.281-118.156zm94.938 0h98.781v94.469c-28.635.19-57.134 2.777-85.469 7.906-10.258-33.181-14.509-67.336-13.312-102.375zm119.968 0h98.782c1.218 35.678-3.24 70.436-13.907 104.187-28.424-5.276-56.712-8.484-84.875-9.437zm121.094 0h72.625c-2.299 45.097-19.194 86.343-46.062 119.094-14.247-4.109-28.474-7.734-42.657-10.844 11.85-34.959 17.117-71.06 16.094-108.25zm-142.281 114.687v79.032c-15.568-.794-30.667-3.292-45.125-7.375-.003-.001.003-.031 0-.032-13.993-21.025-25.123-42.52-33.563-64.437 25.921-4.483 52.15-6.897 78.688-7.188zm21.187.219c25.776.792 51.837 3.552 78.188 8.25-8.385 21.488-19.392 42.558-33.125 63.188-14.441 4.073-29.515 6.582-45.063 7.375zm-119.687 10.813c6.983 17.172 15.618 34.056 25.906 50.656-22.815-10.168-43.415-24.421-60.906-41.781 11.606-3.394 23.267-6.346 35-8.875zm217.656 1.312c11.482 2.459 23.033 5.311 34.625 8.5-17.291 16.945-37.587 30.855-60 40.844 10.026-16.175 18.489-32.625 25.375-49.344z" fill-rule="nonzero" transform="matrix(.988198 0 0 .914521 -37.4736 -8.92865)"/><g transform="matrix(.443838 0 0 .443838 -106.726 -141.677)"><path d="m880.564 1316.82-27.391 17.48c-3.38 2.16-4.056 4.74-4.058 4.75-1.189 3.96 1.064 8.14 5.029 9.33 2.202.66 4.472.26 6.258-.9h-.005s.354-.23.852-.54l11.329-7.23-5.832 13.82c-.787 1.87-.906 3.01-.907 3.01-.412 4.12 2.598 7.8 6.717 8.21 3.371.34 6.447-1.62 7.677-4.6l.336-.79 10.476-24.84 18.688 21.82c2.693 3.14 7.431 3.51 10.575.81 3.143-2.69 3.509-7.43.815-10.57l-25.262-29.49-18.214-99.32c-.747-4.07-4.658-6.77-8.73-6.03-4.071.75-6.771 4.66-6.024 8.73z" fill="#c96e3d"/><path d="m845.797 1369.33c4.209 9.6 13.343 16.72 24.517 17.84 10.803 1.08 20.847-3.72 26.95-11.8 11.015 8.39 26.769 8.26 37.703-1.1 12.586-10.79 14.05-29.76 3.266-42.35.003 0-21.307-24.88-21.307-24.88s-17.118-93.34-17.118-93.34c-2.99-16.3-18.652-27.11-34.955-24.12-16.302 2.99-27.111 18.65-24.121 34.96l14.937 81.44-14.628 9.33c-11.86 7.58-13.5 17.24-13.506 17.26-4.572 15.24 3.558 31.29 18.262 36.76zm48.612 3.57-14.176 9.79c6.522 0 12.584-2.82 16.771-7.51l-1.144-.93c-.375-.34-.749-.68-1.123-1.02zm-24.087-5.16c-3.056 1.62-6.391 2.72-9.859 3.2.314.6.665 1.18 1.044 1.74 4.182 6.25 11.206 10.01 18.726 10.01zm10.247 14.15 13.727-9.1-.003-.01zm-9.615-14.49-.013.01 9.628 14.48zm-19.254-20.28c.706.55 1.529.99 2.444 1.26 2.202.66 4.472.26 6.258-.9h-.005s.354-.23.852-.54l11.329-7.23-5.832 13.82c-.787 1.87-.906 3.01-.907 3.01-.412 4.12 2.598 7.8 6.717 8.21 3.371.34 6.447-1.62 7.677-4.6l.336-.79 10.476-24.84 18.688 21.82c2.693 3.14 7.431 3.51 10.575.81 3.143-2.69 3.509-7.43.815-10.57l-25.262-29.49-18.214-99.32c-.747-4.07-4.658-6.77-8.73-6.03-4.071.75-6.771 4.66-6.024 8.73l17.671 96.35-27.391 17.48c-3.38 2.16-4.056 4.74-4.058 4.75-.181.6-.283 1.21-.301 1.82l-.639-1.28 1.96-4.65-1.883-6.43-.182.11c-2.227 1.46-4.128 3.26-5.659 5.3l-.022.02-.479.67c-1.668 2.36-2.699 4.65-3.223 6.86-1.103 3.98-1.118 8.28.122 12.44.993 3.33 2.71 6.3 4.95 8.75-.327-1.76-.494-3.58-.487-5.42-3.632-4.41-6.003-9.77-4.585-15.77.677-2.45 1.763-4.77 3.223-6.86l.501-.69c1.234-1.59 3.379 1.12 5.764 5.67l-2.191 5.19c-2.468 5.86-2.563 9.51-2.564 9.52-.098.99-.148 1.97-.148 2.94 5.637 6.84 14.315 11.39 16.579 12.49l.122.27.422.01-.002-.01-.542-.27c-1.03-2.18-1.694-4.5-1.975-6.86-1.627-4.48-3.864-10.4-6.176-15.75zm6.018 13.74c.02.67.071 1.34.158 2.01 1.478 4.06 2.452 6.94 2.517 7.13z"/></g><g transform="matrix(.443838 0 0 .443838 -106.726 -141.677)"><path d="m675.717 1344.17-3.251 2.22c-.497.33-.85.57-.85.57h.002c-1.994 1.35-3.305 3.63-3.305 6.22 0 4.14 3.361 7.5 7.5 7.5.002 0 2.134.12 4.93-1.78l21.743-14.8 4.426 16c1.104 3.99 5.238 6.33 9.228 5.23s6.333-5.24 5.23-9.23l-6.778-24.5 16.476-98.17c.685-4.08-2.074-7.95-6.156-8.64-4.082-.68-7.953 2.08-8.638 6.16-4.642 27.67-13.153 78.41-15.857 94.53-11.949 1.79-36.177 5.41-36.181 5.41-4.139 0-7.5 3.36-7.5 7.5s3.361 7.5 7.5 7.5z" fill="#c96e3d"/><path d="m661.894 1308.46c-15.483 1.19-27.689 14.15-27.689 29.93 0 10.4 5.302 19.58 13.352 24.97 4.17 11.57 15.253 19.85 28.256 19.85.006 0 7.026.93 16.219-4.8 7.379 8.03 18.89 11.74 30.114 8.63 15.974-4.41 25.357-20.97 20.939-36.94l-5.446-19.69 15.649-93.25c2.742-16.35-8.302-31.84-24.648-34.59-16.346-2.74-31.843 8.31-34.586 24.65-3.563 21.24-9.404 56.06-13.151 78.4zm9.721 61.03-.565-1.84-.966.15.127.14zm-.561-1.84.562 1.84.008-1.92zm13.643-2.35-.567.36.112-.03zm-16.363-12.45-.021.33c0 4.14 3.361 7.5 7.5 7.5.002 0 2.134.12 4.93-1.78l21.743-14.8 4.426 16c1.104 3.99 5.238 6.33 9.228 5.23s6.333-5.24 5.23-9.23l-6.778-24.5 16.476-98.17c.685-4.08-2.074-7.95-6.156-8.64-4.082-.68-7.953 2.08-8.638 6.16-4.642 27.67-13.153 78.41-15.857 94.53l-31.671 4.74c-.913-3.33-2.124-5.29-3.72-4.8-.631.19-1.228.4-1.79.63l1.846 4.71-.846.13c-4.139 0-7.5 3.36-7.5 7.5s3.361 7.5 7.5 7.5l6.39-.96.281.72-.059-.75 4.869-.73-4.099 2.79c-1.906 1.29-3.189 3.44-3.284 5.88l-1.744.25.043.14.631-.11c.242-.06.484-.12.727-.17zm-1.76.24-2.338.33c.81 0 1.606-.06 2.381-.19z"/></g><g transform="matrix(.443838 0 0 .443838 -106.726 -141.677)"><path d="m567.473 594.884c-.009-.002-5.118-3.715-7.133-5.522-16.776-15.044-43.046-34.238-50.677-55.441-3.937-10.939-7.199-29.625 0-38.754 3.875-4.914 13.532-6.589 19.79-6.597 7.588-.011 17.259 4.596 23.912 8.245 11.248 6.169 32.954 27.243 32.984 27.212.023-.025-13.991-19.809-16.492-29.685-2.976-11.753-2.813-28.839.824-40.404 2.738-8.706 8.469-21.214 16.492-25.562 5.007-2.714 13.462-2.292 18.965-.825 5.371 1.433 11.923 5.785 15.667 9.895 5.364 5.889 8.868 16.41 11.543 23.913 2.479 6.951 5.75 23.92 5.773 23.913.019-.006-2.008-14.305-.439-20.142 1.481-5.513 6.26-11.841 9.842-16.286 4.352-5.401 10.705-12.639 16.878-15.802 7.701-3.945 19.82-6.546 28.369-5.206 3.047.478 7.023 2.268 9.336 4.309 9.179 8.095 11.991 26.016 18.674 36.269 1.111 1.706 4.113 5.388 4.13 5.387.034-.004.036-10.152 1.795-14.005 3.701-8.109 13.287-16.435 20.828-21.187 3.605-2.273 9.124-5.941 13.287-5.028 4.913 1.078 8.831 7.94 11.491 12.21 2.767 4.441 6.088 16.333 6.105 16.339.01.004 7.227-3.573 10.593-4.13 4.631-.767 11.52-1.386 15.621.898 5.573 3.105 10.381 11.528 11.671 17.775 3.06 14.822-5.703 35.292-12.244 48.94-.547 1.141-1.675 2.433-2.347 3.505-1.177 1.88-3.706 6.392-3.711 6.396-.113.091-61.016-4.068-143.341 20.038-54.923 16.082-88.092 39.353-88.186 39.332z" fill="#ff4949"/><path d="m526.78 443.596c-17.821.857-41.881 10.202-52.501 23.669-6.798 8.621-11.485 19.614-13.188 32.18-2.205 16.268 1.359 36.361 6.173 49.736 9.852 27.374 41.333 54.306 62.992 73.729 7.091 6.359 27.41 15.955 27.442 15.962l-.05-.011c.283.064 15.762 6.038 35.574-6.976 5.108-3.356 32.564-20.632 75.1-33.087 66.62-19.508 117.603-18.671 127.215-18.32 21.689.792 31.52-9.702 31.726-9.868-.093.075 8.97-10.584 12.968-16.58 1.122-1.673 4.288-6.491 5.46-8.937.001-.002.002-.003.003-.005 10.257-21.401 20.537-54.284 15.739-77.526 0-.001 0-.001-.001-.002-3.565-17.265-18.467-39.445-33.869-48.026-.002-.001-.004-.003-.007-.004-6.08-3.386-14.193-5.456-22.463-6.364-8.94-10.671-21.798-21.007-33.614-23.599-.002-.001-.003-.001-.005-.001-11.819-2.592-28.163 1.396-40.351 7.297-8.123-6.435-20.597-12.011-30.368-13.544-.002 0-.004-.001-.006-.001-16.81-2.635-40.749 1.861-55.892 9.619-.001 0-.002.001-.004.002-1.29.661-2.596 1.407-3.908 2.232-7.463-5.043-15.833-9.195-23.191-11.159-.003 0-.006-.001-.009-.002-15.15-4.039-38.259-2.722-52.044 4.749-16.914 9.168-32.233 33.306-38.006 51.66zm40.693 151.288c-.009-.002-5.118-3.715-7.133-5.522-16.776-15.044-43.046-34.238-50.677-55.441-3.937-10.939-7.199-29.625 0-38.754 3.875-4.914 13.532-6.589 19.79-6.597 7.588-.011 17.259 4.596 23.912 8.245 11.248 6.169 32.954 27.243 32.984 27.212.023-.025-13.991-19.809-16.492-29.685-2.976-11.753-2.813-28.839.824-40.404 2.738-8.706 8.469-21.214 16.492-25.562 5.007-2.714 13.462-2.292 18.965-.825 5.371 1.433 11.923 5.785 15.667 9.895 5.364 5.889 8.868 16.41 11.543 23.913 2.479 6.951 5.75 23.92 5.773 23.913.019-.006-2.008-14.305-.439-20.142 1.481-5.513 6.26-11.841 9.842-16.286 4.352-5.401 10.705-12.639 16.878-15.802 7.701-3.945 19.82-6.546 28.369-5.206 3.047.478 7.023 2.268 9.336 4.309 9.179 8.095 11.991 26.016 18.674 36.269 1.111 1.706 4.113 5.388 4.13 5.387.034-.004.036-10.152 1.795-14.005 3.701-8.109 13.287-16.435 20.828-21.187 3.605-2.273 9.124-5.941 13.287-5.028 4.913 1.078 8.831 7.94 11.491 12.21 2.767 4.441 6.088 16.333 6.105 16.339.01.004 7.227-3.573 10.593-4.13 4.631-.767 11.52-1.386 15.621.898 5.573 3.105 10.381 11.528 11.671 17.775 3.06 14.822-5.703 35.292-12.244 48.94-.547 1.141-1.675 2.433-2.347 3.505-1.177 1.88-3.706 6.392-3.711 6.396-.113.091-61.016-4.068-143.341 20.038-54.923 16.082-88.092 39.353-88.186 39.332zm272.758-40.854-.391.596s.536-.781 1.041-1.558z"/></g><path d="m134.757 107.786c-4.27 3.098-9.914 7.375-13.594 11.155-8.533 8.764-18.832 21.891-23.94 33.005-9.998 21.756-15.64 54.283-15.833 78.225-.307 37.988 6.913 91.009 25.783 123.979 11.57 20.218 35.238 43.226 56.004 53.776h.001c25.07 12.735 64.472 17.828 92.475 15.279 31.568-2.869 75.373-15.677 99.069-36.735 10.117-8.989 18.361-21.752 25.149-36.046 7.686-16.187 13.566-34.438 19.665-49.192 1.271.037 2.433-.027 3.456-.156 3.809-.479 9.95-2.579 14.736-6.006 4.734-3.391 8.093-7.921 9.718-12.223.001-.004.003-.008.004-.012 2.171-5.759 1.267-14.435-1.515-21.131 1.292-1.995 2.554-4.208 3.281-6.257 1.85-5.207 1.815-10.324.303-14.967-1.498-4.603-4.487-8.847-9.037-12.066-4.311-3.049-10.873-5.078-15.433-5.64-1.895-.233-4.082-.185-6.312.088-5.83-3.141-14.062-4.527-19.618-2.985-6.212 1.725-12.939 7.819-16.916 14.147-2.381-3.569-4.333-7.466-5.393-10.923-.757-2.469-.146-5.607-.005-8.638.214-4.612.351-9.129-.022-13.04v-.001c-1.378-14.447-3.135-34.093-8.289-47.658-6.902-18.167-20.582-41.658-35.365-54.272-13.011-11.101-35.222-19.653-51.828-23.747-7.783-1.918-18.602-2.785-26.609-2.412-15.601.727-36.024 6-51.013 10.385-8.274 2.421-19.203 6.212-26.914 10.067-.001.001-.001.001-.001.001-6.999 3.5-15.674 9.404-22.007 14zm.252 251.254.344.411c.199.237.399.474.601.71-.318-.372-.633-.746-.945-1.121zm-4.24-5.376.31.415c.244.325.491.651.741.976-.355-.462-.706-.926-1.051-1.391zm-2.368-3.311c.095.138.191.276.286.413-.095-.137-.191-.275-.286-.413zm-1.773-2.677c.421.66.856 1.322 1.305 1.988-.449-.665-.884-1.328-1.305-1.988zm13.103-218.579-.358.292c-1.425 1.172-2.768 2.361-3.88 3.503-7.112 7.305-15.84 18.142-20.097 27.405-8.947 19.469-13.834 48.61-14.007 70.036-.282 34.862 5.825 83.626 23.142 113.882.511.893 1.05 1.792 1.613 2.695-.563-.903-1.102-1.802-1.613-2.695-17.317-30.256-23.424-79.02-23.142-113.882.173-21.426 5.06-50.567 14.007-70.036 4.257-9.263 12.985-20.1 20.097-27.405 1.205-1.237 2.68-2.529 4.238-3.795zm260.348 152.159h.001zm-4.487-1.153.078.03-.078-.03-.064-.025zm12.791-9.255-.005-.015zm-.356-.841c.094.196.182.399.265.606-.083-.207-.171-.41-.265-.606zm-6.805-4.232c.511.12 1.068.258 1.633.422-.565-.164-1.122-.302-1.633-.422zm-1.708-.293c.483.049.92.113 1.286.196l.12.028-.12-.028c-.366-.083-.803-.147-1.286-.196zm-7.903.003c.003.006 2.294-.143 4.718-.137-2.169-.005-4.231.113-4.644.134zm6.246-.109c.539.019 1.062.05 1.543.095-.369-.035-.763-.061-1.169-.08zm-28.064-1.135-.115-.042c.074.028.114.042.115.042l1.617-.346c-.968.208-1.614.346-1.617.346zm2.651-12.966c-1.041-1.577-1.849-3.326-2.058-4.919l.554-.406zm28.011-8.567c-1.106.179-2.232.534-3.089.944-2.957 1.414-8.089 7.344-8.099 7.337l.019-.076-.019.076c.01.007 5.142-5.923 8.099-7.337.902-.431 2.102-.802 3.263-.971zm-53.911 3.695c.931 1.338 1.899 2.638 2.894 3.881-.994-1.243-1.962-2.543-2.894-3.881zm61.395-2.255c.142.072.281.148.416.226-.135-.078-.274-.154-.416-.226zm-17.751-.746c.013.111.025.222.036.331l-.032-.295zm-.143-.936c.033.168.062.337.087.506-.025-.169-.054-.338-.087-.506zm-.394-1.33c.149.34.262.717.348 1.107-.086-.39-.199-.767-.348-1.107zm-1.708-1.616c.428.187.808.42 1.094.693.146.139.274.303.387.485-.113-.182-.241-.346-.387-.485-.254-.243-.583-.454-.953-.629zm-48.706-6.289.173.41zm-.927-2.398.116.32zm-1.657-9.311c.02.721.054 1.432.108 2.13-.054-.698-.088-1.409-.108-2.13zm-2.258-41.126c.117.794.228 1.591.335 2.389-.107-.798-.218-1.595-.335-2.389zm-54.035-77.281c.835.36 1.665.728 2.487 1.105-.822-.377-1.652-.745-2.487-1.105zm-4.973-2.025c.997.384 1.993.78 2.983 1.187-.991-.408-1.987-.804-2.983-1.187zm132.529 168.693c-.019-.037-.038-.073-.057-.109l-.058-.109c.059.108.116.218.171.33zm-.234-.429c-.1-.172-.205-.337-.312-.493l-.065-.092c.152.212.299.444.437.69zm-.839-1.146c-.252-.256-.547-.488-.873-.699l-.09-.057c.392.245.743.519 1.03.826zm-10.13-2.857c.256.002.512.006.766.013l-.383-.008zm-28.532-1.733.667.263c-.571-.223-1.366-.539-2.288-.922.604.251 1.153.473 1.621.659zm11.601-2.877.048.185.155.585c-.055-.203-.124-.463-.203-.77zm-35.738-18.169.3.486zm58.255.024-.157-.008c.159.006.313.018.462.036 1.451.179 3.44.618 5.075 1.396-1.635-.778-3.624-1.217-5.075-1.396-.1-.012-.201-.021-.305-.028zm-1.323.041c.345-.039.683-.057 1.006-.053h-.163c-.327.003-.669.029-1.016.073zm-57.807-1.533.288.49c-.676-1.144-1.317-2.297-1.917-3.45.514.988 1.059 1.977 1.629 2.96zm-2.133-3.949.249.494c-.266-.521-.523-1.042-.771-1.561.17.356.344.711.522 1.067zm-3.124-7.487.073.223.159.47c-.079-.232-.157-.463-.232-.693zm-3.728-50.673c-.252-1.63-.527-3.248-.829-4.841.345 1.821.655 3.675.936 5.541zm-1.094-6.2c-.862-4.279-1.931-8.344-3.292-11.928-.365-.962-.752-1.942-1.159-2.936.407.994.794 1.974 1.159 2.936 1.433 3.772 2.542 8.077 3.426 12.606zm-5.076-16.368c-1.067-2.522-2.257-5.126-3.554-7.761 1.427 2.897 2.724 5.76 3.87 8.516zm-6.002-12.521.423.794c-.141-.265-.282-.529-.423-.794l-.429-.795c.145.265.287.53.429.795zm-1.749-3.174.445.792zm-1.838-3.149c-.469-.783-.946-1.561-1.431-2.334l.241.387c.563.903 1.116 1.815 1.657 2.731zm-2.164-3.489c-.655-1.023-1.323-2.034-2.002-3.03.764 1.121 1.514 2.261 2.248 3.414zm-2.514-3.774c-1.284-1.854-2.607-3.652-3.963-5.373 1.446 1.835 2.855 3.759 4.219 5.745zm-5.605-7.4c-.184-.22-.368-.439-.553-.657.277.326.554.656.829.99zm-1.11-1.305c-1.023-1.178-2.062-2.307-3.113-3.377 1.146 1.167 2.277 2.403 3.392 3.7zm-3.687-3.955.287.288c-.287-.289-.575-.574-.864-.853l-.289-.278c.289.276.578.558.866.843zm-5.333-4.669c-.741-.563-1.509-1.115-2.301-1.656.892.609 1.752 1.232 2.577 1.867zm-9.334-5.89c2.374 1.271 4.638 2.616 6.734 4.031l-.3-.202c-2.012-1.341-4.172-2.618-6.434-3.829zm-111.361-.278-.776.283c.775-.285 1.554-.565 2.333-.839l-.779.276c-.259.092-.519.186-.778.28zm3.886-1.36-.774.264c3.103-1.063 6.15-2.019 8.866-2.814 5.96-1.743 12.859-3.673 19.921-5.347l-.756.18c-6.797 1.632-13.417 3.486-19.165 5.167-2.49.729-5.257 1.593-8.092 2.55zm82.147-8.447c3.652 1.077 7.472 2.343 11.282 3.786-3.562-1.349-7.134-2.543-10.571-3.574zm-52.618.195-.758.177c2.779-.651 5.578-1.259 8.352-1.799l-.757.149c-2.274.452-4.561.948-6.837 1.473zm49.817-.993c-.691-.191-1.373-.374-2.046-.549l-.67-.173c1.112.284 2.25.589 3.408.914zm-40.713-.917-.754.142c.755-.143 1.508-.282 2.258-.415l-.751.135c-.251.046-.502.092-.753.138zm4.483-.771-.741.118-.743.123c.495-.083.991-.164 1.484-.241zm30.722.297c-.404-.086-.815-.168-1.233-.247l-.315-.058c.632.116 1.25.239 1.849.37zm-2.185-.418c-.427-.074-.861-.144-1.299-.211l-.33-.049c.661.097 1.312.203 1.949.316zm-2.628-.401c-1.565-.21-3.175-.377-4.782-.501l-.688-.05c2.064.143 4.144.358 6.137.643zm-6.843-.636c-2.052-.112-4.066-.152-5.939-.119l.629-.008c1.903-.017 3.935.039 5.995.167z" transform="matrix(.927841 0 0 .927841 9.22133 16.8081)"/><g transform="matrix(.443838 0 0 .443838 -106.726 -141.677)"><path d="m880.564 1316.82-27.391 17.48c-3.38 2.16-4.056 4.74-4.058 4.75-1.189 3.96 1.064 8.14 5.029 9.33 2.202.66 4.472.26 6.258-.9h-.005s.354-.23.852-.54l11.329-7.23-5.832 13.82c-.787 1.87-.906 3.01-.907 3.01-.412 4.12 2.598 7.8 6.717 8.21 3.371.34 6.447-1.62 7.677-4.6l.336-.79 10.476-24.84 18.688 21.82c2.693 3.14 7.431 3.51 10.575.81 3.143-2.69 3.509-7.43.815-10.57l-25.262-29.49-18.214-99.32c-.747-4.07-4.658-6.77-8.73-6.03-4.071.75-6.771 4.66-6.024 8.73z" fill="#c96e3d"/><path d="m675.717 1344.17-3.251 2.22c-.497.33-.85.57-.85.57h.002c-1.994 1.35-3.305 3.63-3.305 6.22 0 4.14 3.361 7.5 7.5 7.5.002 0 2.134.12 4.93-1.78l21.743-14.8 4.426 16c1.104 3.99 5.238 6.33 9.228 5.23s6.333-5.24 5.23-9.23l-6.778-24.5 16.476-98.17c.685-4.08-2.074-7.95-6.156-8.64-4.082-.68-7.953 2.08-8.638 6.16-4.642 27.67-13.153 78.41-15.857 94.53-11.949 1.79-36.177 5.41-36.181 5.41-4.139 0-7.5 3.36-7.5 7.5s3.361 7.5 7.5 7.5z" fill="#c96e3d"/><path d="m706.409 687.974c-45.51-9.649-120.471-2.476-151.74 31.969-21.166 23.316-14.805 72.158-17.111 103.563-3.316 45.144-21.993 113.507 3.602 150.841 57.999 84.603 226.333 87.613 328.698 94.103 24.535 1.56 62.115 6.57 81.5-8.55 33.139-25.85 49.132-93.916 38.722-134.632-14.373-56.205-96.842-94.761-141.384-131.93-40.761-34.012-90.326-94.347-142.287-105.364z" fill="#424242"/><path d="m562.89 854.937c-.567.9 10.747 15.763 17.27 20.444 6.512 4.671 16.966 8.37 24.853 9.795 8.069 1.458 19.415 1.638 27.326-.515 2.778-.755 6.583-2.24 8.56-4.331 6.332-6.7 11.537-28.116 9.852-29.106-1.348-.791-6.023 3.955-8.765 5.363-6.123 3.143-14.453 7.549-21.245 8.662-9.186 1.505-21.78-.698-30.936-2.371-8.081-1.477-26.321-8.884-26.915-7.941z" fill="#c96e3d"/><path d="m561.623 844.452c-1.106-3.418 13.788-16.828 21.821-21.129 7.489-4.01 19.155-5.9 27.646-6.121 7.258-.189 17.609.214 23.894 3.85 6.086 3.522 15.015 15.712 14.81 18.167-.154 1.843-8.42 7.399-15.797 10.071-6.554 2.374-15.918 4.057-22.907 4.345-12.165.501-28.565-1.635-40.284-4.938-2.965-.835-8.815-3.107-9.183-4.245z" fill="#ffaa5e"/><path d="m567.505 616.243c-7.192 5.219-16.819 12.278-23.018 18.646-14.868 15.271-33.113 37.925-42.013 57.291-18.704 40.7-28.92 101.618-29.282 146.409-.589 72.879 12.178 174.821 48.379 238.071 20.617 36.03 62.719 77.11 99.726 95.91 46.222 23.48 118.966 32.28 170.596 27.58 58.197-5.29 139.435-27.59 183.12-66.41 43.297-38.47 63.587-119.38 86.847-172.42 3.41-7.784 10.31-26.364 10.34-26.376.02-.011 19.35 10.923 26.27 10.051 5.08-.639 15.04-5.6 17.23-11.398 1.67-4.43-.52-11.749-3.55-15.381-2.75-3.277-8.87-4.79-13.04-5.738-5.62-1.279-19.2-.384-19.21-.403 0-.02 13.29-7.568 18.46-11.562 4.67-3.605 10.89-8.664 14.34-13.454 2.76-3.85 8.16-9.806 6.69-14.315-1.72-5.292-10.98-7.78-16.51-8.46-3.32-.41-7.93.705-10.95 2.149-6.18 2.955-16.91 15.352-16.93 15.338-.01-.008 2.42-9.373 2.14-13.448-.2-2.829-.57-7.124-2.62-9.08-2.13-2.029-6.72-3.011-9.55-2.225-5.56 1.542-10.85 8.963-12.72 14.418-3.28 9.526 3.65 33.355 3.63 33.382-.01.017-21.57 4.659-21.59 4.656-.04-.003-20.75-7.723-27.86-13.75-16.402-13.914-32.95-39.434-39.256-60-4.715-15.383-.175-37.587-1.702-53.603-2.563-26.871-5.205-63.518-14.792-88.75-12.22-32.164-35.81-74.165-61.985-96.498-22.809-19.462-62.102-33.678-91.215-40.854-12.77-3.148-30.532-4.486-43.67-3.873-29.641 1.381-68.372 11.741-96.85 20.073-15.145 4.431-35.193 11.257-49.307 18.314-12.792 6.397-28.573 17.309-40.148 25.71zm315.16 263.25c3.524 4.98 8.082 14.579 11.665 19.523 8.319 11.479 20.528 25.952 29.834 36.645 5.062 5.816 14.19 14.253 17.433 18.885.675.964 3.156 3.712 2.6 4.676-.74 1.281-5.075-.35-7.082-.64-4.89-.707-13.671-5.9-16.955-3.56-.738.527-.522 4.795-.129 6.796.958 4.889 5.771 10.198 7.163 14.981 1.075 3.696 4.459 10.097 1.646 12.724-3.461 3.232-10.668-2.877-15.26-4.036-2.645-.667-6.772-3.917-8.838-2.135-1.648 1.42-.112 5.097.219 7.247.525 3.401 2.33 7.686 3.254 11.001 1.475 5.29 3.878 12.28 4.611 17.73.789 5.85 5.01 16.22.227 19.69-13.666 9.91-28.726-27.16-39.072-40.497-17.127-22.085-46.613-71.706-54.47-88.943 5.677 16.141 27.534 76.298 43.602 101.17 7.864 12.17 18.996 29.53 31.76 36.39 7.101 3.81 19.594 8.84 26.467 4.63 4.873-2.99 6.414-12.15 6.617-17.86.281-7.91-5.343-17.68-7.94-25.15-1.113-3.2-3.977-10.577-3.97-10.586.016-.02 14.386 11.296 21.836 12.576 2.894.49 7.469.68 9.713-1.22 2.574-2.17 3.394-7.45 3.041-10.806-.628-5.964-7.252-11.972-10.136-17.23-2.354-4.292-7.447-14.52-7.433-14.528.01-.005 5.58 6.317 8.784 7.77 4.179 1.896 11.115 3.773 15.204 1.689 2.479-1.263 5.044-4.987 5.067-7.769.065-7.839-11.74-14.026-16.892-19.934-16.908-19.384-55.077-61.111-62.566-69.229zm-279.05-72.707c-7.145.077-17.041 1.152-23.41 4.391-11.665 5.932-29.742 26.554-30.632 31.057-.448 2.263 3.197 15.283 6.644 20.879 5.185 8.418 15.747 17.152 24.025 22.558 6.116 3.995 15.081 8.657 22.298 9.785 11.592 1.811 29.27 1.821 38.781-5.048 12.897-9.314 23.386-32.736 21.394-48.519-1.281-10.156-11.153-22.264-19.746-27.828-10.077-6.527-27.348-7.404-39.354-7.275zm-2.791-70.65c1.706 2.434 1.955 5.971 1.395 9.807-.502 3.438-2.023 5.987-3.658 8.089-2.35 3.02-5.122 7.7-10.114 7.774-5.24.078-8.415-4.687-10.797-7.922-1.508-2.048-2.62-4.641-2.974-7.941-.535-4.971-.462-9.758 2.11-12.6 2.437-2.694 6.94-3.669 11.661-3.261 5.373.464 10.005 2.669 12.377 6.054zm86.216.559c1.22 2.079 1.196 4.882.774 7.999-.713 5.262-2.218 9.745-5.174 12.543-2.009 1.9-4.992 3.399-8.598 3.321-4.958-.107-9.122-2.394-11.471-5.383-1.988-2.532-2.499-6.286-2.301-10.481.203-4.303 1.252-7.949 3.379-10.475 2.261-2.687 5.812-5.472 10.393-5.387 5.944.109 10.691 3.932 12.998 7.863z" fill="#ffdf5e"/></g></svg>